  0
SECTION
  2
BLOCKS
  0
ENDSEC
  0
SECTION
  2
ENTITIES
  0
LINE
  8
0
 10
-50.8
 20
-152.876
 11
50.8
 21
-152.876
  0
LINE
  8
0
 10
50.8
 20
-152.876
 11
50.8
 21
-152.89
  0
LINE
  8
0
 10
50.8
 20
-152.89
 11
51.7948
 21
-152.89
  0
LINE
  8
0
 10
51.7948
 20
-152.89
 11
52.1768
 21
-152.876
  0
LINE
  8
0
 10
52.1768
 20
-152.876
 11
101.755
 21
-152.876
  0
LINE
  8
0
 10
101.755
 20
-152.876
 11
102.1
 21
-152.4
  0
LINE
  8
0
 10
102.1
 20
-152.4
 11
102.1
 21
152.4
  0
LINE
  8
0
 10
102.1
 20
152.4
 11
101.755
 21
152.876
  0
LINE
  8
0
 10
101.755
 20
152.876
 11
52.1768
 21
152.876
  0
LINE
  8
0
 10
52.1768
 20
152.876
 11
51.7948
 21
152.89
  0
LINE
  8
0
 10
51.7948
 20
152.89
 11
50.8
 21
152.89
  0
LINE
  8
0
 10
50.8
 20
152.89
 11
50.8
 21
152.876
  0
LINE
  8
0
 10
50.8
 20
152.876
 11
-50.8
 21
152.876
  0
LINE
  8
0
 10
-50.8
 20
152.876
 11
-50.8
 21
152.89
  0
LINE
  8
0
 10
-50.8
 20
152.89
 11
-51.7948
 21
152.89
  0
LINE
  8
0
 10
-51.7948
 20
152.89
 11
-52.1768
 21
152.876
  0
LINE
  8
0
 10
-52.1768
 20
152.876
 11
-101.445
 21
152.876
  0
LINE
  8
0
 10
-101.445
 20
152.876
 11
-102.005
 21
152.694
  0
LINE
  8
0
 10
-102.005
 20
152.694
 11
-102.005
 21
104.566
  0
LINE
  8
0
 10
-102.005
 20
104.566
 11
-102.061
 21
103.589
  0
LINE
  8
0
 10
-102.061
 20
103.589
 11
-102.1
 21
101.6
  0
LINE
  8
0
 10
-102.1
 20
101.6
 11
-102.005
 21
101.6
  0
LINE
  8
0
 10
-102.005
 20
101.6
 11
-102.005
 21
25.4
  0
LINE
  8
0
 10
-102.005
 20
25.4
 11
-102.1
 21
25.4
  0
LINE
  8
0
 10
-102.1
 20
25.4
 11
-102.061
 21
23.4108
  0
LINE
  8
0
 10
-102.061
 20
23.4108
 11
-102.005
 21
22.4337
  0
LINE
  8
0
 10
-102.005
 20
22.4337
 11
-102.005
 21
-22.4337
  0
LINE
  8
0
 10
-102.005
 20
-22.4337
 11
-102.061
 21
-23.4108
  0
LINE
  8
0
 10
-102.061
 20
-23.4108
 11
-102.1
 21
-25.4
  0
LINE
  8
0
 10
-102.1
 20
-25.4
 11
-102.005
 21
-25.4
  0
LINE
  8
0
 10
-102.005
 20
-25.4
 11
-102.005
 21
-101.6
  0
LINE
  8
0
 10
-102.005
 20
-101.6
 11
-102.1
 21
-101.6
  0
LINE
  8
0
 10
-102.1
 20
-101.6
 11
-102.061
 21
-103.589
  0
LINE
  8
0
 10
-102.061
 20
-103.589
 11
-102.005
 21
-104.566
  0
LINE
  8
0
 10
-102.005
 20
-104.566
 11
-102.005
 21
-152.694
  0
LINE
  8
0
 10
-102.005
 20
-152.694
 11
-101.445
 21
-152.876
  0
LINE
  8
0
 10
-101.445
 20
-152.876
 11
-52.1768
 21
-152.876
  0
LINE
  8
0
 10
-52.1768
 20
-152.876
 11
-51.7948
 21
-152.89
  0
LINE
  8
0
 10
-51.7948
 20
-152.89
 11
-50.8
 21
-152.89
  0
LINE
  8
0
 10
-50.8
 20
-152.89
 11
-50.8
 21
-152.876
  0
LINE
  8
0
 10
-100.862
 20
151.924
 11
-60.707
 21
151.924
  0
LINE
  8
0
 10
-60.707
 20
151.924
 11
-61.6604
 21
151.737
  0
LINE
  8
0
 10
-61.6604
 20
151.737
 11
-63.5963
 21
151.278
  0
LINE
  8
0
 10
-63.5963
 20
151.278
 11
-65.513
 21
150.745
  0
LINE
  8
0
 10
-65.513
 20
150.745
 11
-67.4075
 21
150.137
  0
LINE
  8
0
 10
-67.4075
 20
150.137
 11
-69.2771
 21
149.457
  0
LINE
  8
0
 10
-69.2771
 20
149.457
 11
-71.1189
 21
148.704
  0
LINE
  8
0
 10
-71.1189
 20
148.704
 11
-72.9301
 21
147.881
  0
LINE
  8
0
 10
-72.9301
 20
147.881
 11
-74.708
 21
146.988
  0
LINE
  8
0
 10
-74.708
 20
146.988
 11
-76.45
 21
146.027
  0
LINE
  8
0
 10
-76.45
 20
146.027
 11
-78.1534
 21
144.999
  0
LINE
  8
0
 10
-78.1534
 20
144.999
 11
-79.8156
 21
143.906
  0
LINE
  8
0
 10
-79.8156
 20
143.906
 11
-81.4342
 21
142.749
  0
LINE
  8
0
 10
-81.4342
 20
142.749
 11
-83.0068
 21
141.53
  0
LINE
  8
0
 10
-83.0068
 20
141.53
 11
-84.5308
 21
140.251
  0
LINE
  8
0
 10
-84.5308
 20
140.251
 11
-86.0042
 21
138.914
  0
LINE
  8
0
 10
-86.0042
 20
138.914
 11
-87.4246
 21
137.521
  0
LINE
  8
0
 10
-87.4246
 20
137.521
 11
-88.7899
 21
136.074
  0
LINE
  8
0
 10
-88.7899
 20
136.074
 11
-90.0981
 21
134.575
  0
LINE
  8
0
 10
-90.0981
 20
134.575
 11
-91.3471
 21
133.026
  0
LINE
  8
0
 10
-91.3471
 20
133.026
 11
-91.3867
 21
132.973
  0
LINE
  8
0
 10
-91.3867
 20
132.973
 11
-100.862
 21
151.924
  0
LINE
  8
0
 10
25.9
 20
151.924
 11
50.0108
 21
151.924
  0
LINE
  8
0
 10
50.0108
 20
151.924
 11
25.9
 21
103.703
  0
LINE
  8
0
 10
25.9
 20
103.703
 11
25.9
 21
151.924
  0
LINE
  8
0
 10
-24.9
 20
151.924
 11
-0.789215
 21
151.924
  0
LINE
  8
0
 10
-0.789215
 20
151.924
 11
-24.9
 21
103.703
  0
LINE
  8
0
 10
-24.9
 20
103.703
 11
-24.9
 21
151.924
  0
LINE
  8
0
 10
-50.3
 20
108.124
 11
-48.8466
 21
109.001
  0
LINE
  8
0
 10
-48.8466
 20
109.001
 11
-47.1844
 21
110.094
  0
LINE
  8
0
 10
-47.1844
 20
110.094
 11
-45.5658
 21
111.251
  0
LINE
  8
0
 10
-45.5658
 20
111.251
 11
-43.9932
 21
112.47
  0
LINE
  8
0
 10
-43.9932
 20
112.47
 11
-42.4691
 21
113.749
  0
LINE
  8
0
 10
-42.4691
 20
113.749
 11
-40.9958
 21
115.086
  0
LINE
  8
0
 10
-40.9958
 20
115.086
 11
-39.5754
 21
116.479
  0
LINE
  8
0
 10
-39.5754
 20
116.479
 11
-38.2101
 21
117.926
  0
LINE
  8
0
 10
-38.2101
 20
117.926
 11
-36.9019
 21
119.425
  0
LINE
  8
0
 10
-36.9019
 20
119.425
 11
-35.6528
 21
120.974
  0
LINE
  8
0
 10
-35.6528
 20
120.974
 11
-35.6441
 21
120.985
  0
LINE
  8
0
 10
-35.6441
 20
120.985
 11
-26.1892
 21
102.076
  0
LINE
  8
0
 10
-26.1892
 20
102.076
 11
-50.3
 21
102.076
  0
LINE
  8
0
 10
-50.3
 20
102.076
 11
-50.3
 21
108.124
  0
LINE
  8
0
 10
74.708
 20
146.988
 11
72.9301
 21
147.881
  0
LINE
  8
0
 10
72.9301
 20
147.881
 11
71.1189
 21
148.704
  0
LINE
  8
0
 10
71.1189
 20
148.704
 11
69.2771
 21
149.457
  0
LINE
  8
0
 10
69.2771
 20
149.457
 11
67.4075
 21
150.137
  0
LINE
  8
0
 10
67.4075
 20
150.137
 11
65.513
 21
150.745
  0
LINE
  8
0
 10
65.513
 20
150.745
 11
63.5963
 21
151.278
  0
LINE
  8
0
 10
63.5963
 20
151.278
 11
61.6604
 21
151.737
  0
LINE
  8
0
 10
61.6604
 20
151.737
 11
60.707
 21
151.924
  0
LINE
  8
0
 10
60.707
 20
151.924
 11
75.7955
 21
151.924
  0
LINE
  8
0
 10
75.7955
 20
151.924
 11
75.7955
 21
146.388
  0
LINE
  8
0
 10
75.7955
 20
146.388
 11
74.708
 21
146.988
  0
LINE
  8
0
 10
91.3471
 20
133.026
 11
90.0981
 21
134.575
  0
LINE
  8
0
 10
90.0981
 20
134.575
 11
88.7899
 21
136.074
  0
LINE
  8
0
 10
88.7899
 20
136.074
 11
87.4246
 21
137.521
  0
LINE
  8
0
 10
87.4246
 20
137.521
 11
86.0042
 21
138.914
  0
LINE
  8
0
 10
86.0042
 20
138.914
 11
84.5308
 21
140.251
  0
LINE
  8
0
 10
84.5308
 20
140.251
 11
83.0068
 21
141.53
  0
LINE
  8
0
 10
83.0068
 20
141.53
 11
81.4342
 21
142.749
  0
LINE
  8
0
 10
81.4342
 20
142.749
 11
79.8156
 21
143.906
  0
LINE
  8
0
 10
79.8156
 20
143.906
 11
78.1534
 21
144.999
  0
LINE
  8
0
 10
78.1534
 20
144.999
 11
76.7
 21
145.876
  0
LINE
  8
0
 10
76.7
 20
145.876
 11
76.7
 21
151.924
  0
LINE
  8
0
 10
76.7
 20
151.924
 11
100.811
 21
151.924
  0
LINE
  8
0
 10
100.811
 20
151.924
 11
91.3559
 21
133.015
  0
LINE
  8
0
 10
91.3559
 20
133.015
 11
91.3471
 21
133.026
  0
LINE
  8
0
 10
-50.0622
 20
151.924
 11
-25.9094
 21
151.924
  0
LINE
  8
0
 10
-25.9094
 20
151.924
 11
-25.9393
 21
150.413
  0
LINE
  8
0
 10
-25.9393
 20
150.413
 11
-26.057
 21
148.429
  0
LINE
  8
0
 10
-26.057
 20
148.429
 11
-26.2531
 21
146.451
  0
LINE
  8
0
 10
-26.2531
 20
146.451
 11
-26.5271
 21
144.482
  0
LINE
  8
0
 10
-26.5271
 20
144.482
 11
-26.8786
 21
142.526
  0
LINE
  8
0
 10
-26.8786
 20
142.526
 11
-27.3072
 21
140.585
  0
LINE
  8
0
 10
-27.3072
 20
140.585
 11
-27.8122
 21
138.663
  0
LINE
  8
0
 10
-27.8122
 20
138.663
 11
-28.3927
 21
136.762
  0
LINE
  8
0
 10
-28.3927
 20
136.762
 11
-29.0478
 21
134.885
  0
LINE
  8
0
 10
-29.0478
 20
134.885
 11
-29.7765
 21
133.036
  0
LINE
  8
0
 10
-29.7765
 20
133.036
 11
-30.5778
 21
131.217
  0
LINE
  8
0
 10
-30.5778
 20
131.217
 11
-31.4502
 21
129.432
  0
LINE
  8
0
 10
-31.4502
 20
129.432
 11
-32.3926
 21
127.682
  0
LINE
  8
0
 10
-32.3926
 20
127.682
 11
-33.4033
 21
125.97
  0
LINE
  8
0
 10
-33.4033
 20
125.97
 11
-34.4809
 21
124.3
  0
LINE
  8
0
 10
-34.4809
 20
124.3
 11
-35.5145
 21
122.829
  0
LINE
  8
0
 10
-35.5145
 20
122.829
 11
-50.0622
 21
151.924
  0
LINE
  8
0
 10
-90.8881
 20
131.976
 11
-90.7812
 21
132.122
  0
LINE
  8
0
 10
-90.7812
 20
132.122
 11
-89.5441
 21
133.678
  0
LINE
  8
0
 10
-89.5441
 20
133.678
 11
-88.2466
 21
135.183
  0
LINE
  8
0
 10
-88.2466
 20
135.183
 11
-86.8906
 21
136.637
  0
LINE
  8
0
 10
-86.8906
 20
136.637
 11
-85.4783
 21
138.035
  0
LINE
  8
0
 10
-85.4783
 20
138.035
 11
-84.0118
 21
139.377
  0
LINE
  8
0
 10
-84.0118
 20
139.377
 11
-82.4934
 21
140.659
  0
LINE
  8
0
 10
-82.4934
 20
140.659
 11
-80.9256
 21
141.881
  0
LINE
  8
0
 10
-80.9256
 20
141.881
 11
-79.3107
 21
143.039
  0
LINE
  8
0
 10
-79.3107
 20
143.039
 11
-77.6513
 21
144.133
  0
LINE
  8
0
 10
-77.6513
 20
144.133
 11
-75.95
 21
145.161
  0
LINE
  8
0
 10
-75.95
 20
145.161
 11
-74.2094
 21
146.121
  0
LINE
  8
0
 10
-74.2094
 20
146.121
 11
-72.4323
 21
147.011
  0
LINE
  8
0
 10
-72.4323
 20
147.011
 11
-70.6214
 21
147.83
  0
LINE
  8
0
 10
-70.6214
 20
147.83
 11
-68.7795
 21
148.577
  0
LINE
  8
0
 10
-68.7795
 20
148.577
 11
-66.9096
 21
149.251
  0
LINE
  8
0
 10
-66.9096
 20
149.251
 11
-65.0145
 21
149.85
  0
LINE
  8
0
 10
-65.0145
 20
149.85
 11
-63.0972
 21
150.374
  0
LINE
  8
0
 10
-63.0972
 20
150.374
 11
-61.1607
 21
150.821
  0
LINE
  8
0
 10
-61.1607
 20
150.821
 11
-59.2081
 21
151.192
  0
LINE
  8
0
 10
-59.2081
 20
151.192
 11
-57.2423
 21
151.486
  0
LINE
  8
0
 10
-57.2423
 20
151.486
 11
-55.2664
 21
151.701
  0
LINE
  8
0
 10
-55.2664
 20
151.701
 11
-53.2836
 21
151.839
  0
LINE
  8
0
 10
-53.2836
 20
151.839
 11
-51.2969
 21
151.898
  0
LINE
  8
0
 10
-51.2969
 20
151.898
 11
-51.2045
 21
151.897
  0
LINE
  8
0
 10
-51.2045
 20
151.897
 11
-51.2045
 21
108.761
  0
LINE
  8
0
 10
-51.2045
 20
108.761
 11
-51.9155
 21
108.351
  0
LINE
  8
0
 10
-51.9155
 20
108.351
 11
-53.6747
 21
107.426
  0
LINE
  8
0
 10
-53.6747
 20
107.426
 11
-55.4691
 21
106.571
  0
LINE
  8
0
 10
-55.4691
 20
106.571
 11
-57.2959
 21
105.788
  0
LINE
  8
0
 10
-57.2959
 20
105.788
 11
-59.1521
 21
105.077
  0
LINE
  8
0
 10
-59.1521
 20
105.077
 11
-61.035
 21
104.441
  0
LINE
  8
0
 10
-61.035
 20
104.441
 11
-62.9416
 21
103.879
  0
LINE
  8
0
 10
-62.9416
 20
103.879
 11
-64.8688
 21
103.393
  0
LINE
  8
0
 10
-64.8688
 20
103.393
 11
-66.8138
 21
102.984
  0
LINE
  8
0
 10
-66.8138
 20
102.984
 11
-68.7734
 21
102.651
  0
LINE
  8
0
 10
-68.7734
 20
102.651
 11
-70.7446
 21
102.397
  0
LINE
  8
0
 10
-70.7446
 20
102.397
 11
-72.7243
 21
102.22
  0
LINE
  8
0
 10
-72.7243
 20
102.22
 11
-74.7094
 21
102.122
  0
LINE
  8
0
 10
-74.7094
 20
102.122
 11
-75.9549
 21
102.11
  0
LINE
  8
0
 10
-75.9549
 20
102.11
 11
-90.8881
 21
131.976
  0
LINE
  8
0
 10
51.3
 20
102.076
 11
51.3
 21
151.888
  0
LINE
  8
0
 10
51.3
 20
151.888
 11
52.2905
 21
151.878
  0
LINE
  8
0
 10
52.2905
 20
151.878
 11
54.2757
 21
151.78
  0
LINE
  8
0
 10
54.2757
 20
151.78
 11
56.2554
 21
151.603
  0
LINE
  8
0
 10
56.2554
 20
151.603
 11
58.2266
 21
151.349
  0
LINE
  8
0
 10
58.2266
 20
151.349
 11
60.1862
 21
151.016
  0
LINE
  8
0
 10
60.1862
 20
151.016
 11
62.1312
 21
150.607
  0
LINE
  8
0
 10
62.1312
 20
150.607
 11
64.0584
 21
150.121
  0
LINE
  8
0
 10
64.0584
 20
150.121
 11
65.965
 21
149.559
  0
LINE
  8
0
 10
65.965
 20
149.559
 11
67.8479
 21
148.923
  0
LINE
  8
0
 10
67.8479
 20
148.923
 11
69.7041
 21
148.212
  0
LINE
  8
0
 10
69.7041
 20
148.212
 11
71.5309
 21
147.429
  0
LINE
  8
0
 10
71.5309
 20
147.429
 11
73.3252
 21
146.574
  0
LINE
  8
0
 10
73.3252
 20
146.574
 11
75.0844
 21
145.649
  0
LINE
  8
0
 10
75.0844
 20
145.649
 11
75.7955
 21
145.239
  0
LINE
  8
0
 10
75.7955
 20
145.239
 11
75.7955
 21
102.076
  0
LINE
  8
0
 10
75.7955
 20
102.076
 11
51.3
 21
102.076
  0
LINE
  8
0
 10
26.1378
 20
102.076
 11
50.3955
 21
150.591
  0
LINE
  8
0
 10
50.3955
 20
150.591
 11
50.3955
 21
102.076
  0
LINE
  8
0
 10
50.3955
 20
102.076
 11
26.1378
 21
102.076
  0
LINE
  8
0
 10
101.138
 20
111.486
 11
100.717
 21
113.431
  0
LINE
  8
0
 10
100.717
 20
113.431
 11
100.221
 21
115.357
  0
LINE
  8
0
 10
100.221
 20
115.357
 11
99.6503
 21
117.263
  0
LINE
  8
0
 10
99.6503
 20
117.263
 11
99.0062
 21
119.146
  0
LINE
  8
0
 10
99.0062
 20
119.146
 11
98.2896
 21
121.002
  0
LINE
  8
0
 10
98.2896
 20
121.002
 11
97.5016
 21
122.828
  0
LINE
  8
0
 10
97.5016
 20
122.828
 11
96.6434
 21
124.623
  0
LINE
  8
0
 10
96.6434
 20
124.623
 11
95.7161
 21
126.384
  0
LINE
  8
0
 10
95.7161
 20
126.384
 11
94.7214
 21
128.107
  0
LINE
  8
0
 10
94.7214
 20
128.107
 11
93.6605
 21
129.79
  0
LINE
  8
0
 10
93.6605
 20
129.79
 11
92.5352
 21
131.431
  0
LINE
  8
0
 10
92.5352
 20
131.431
 11
91.9849
 21
132.17
  0
LINE
  8
0
 10
91.9849
 20
132.17
 11
101.195
 21
150.591
  0
LINE
  8
0
 10
101.195
 20
150.591
 11
101.195
 21
111.162
  0
LINE
  8
0
 10
101.195
 20
111.162
 11
101.138
 21
111.486
  0
LINE
  8
0
 10
-50.3
 20
150.297
 11
-36.1461
 21
121.989
  0
LINE
  8
0
 10
-36.1461
 20
121.989
 11
-36.8297
 21
121.094
  0
LINE
  8
0
 10
-36.8297
 20
121.094
 11
-38.0972
 21
119.563
  0
LINE
  8
0
 10
-38.0972
 20
119.563
 11
-39.4242
 21
118.083
  0
LINE
  8
0
 10
-39.4242
 20
118.083
 11
-40.8086
 21
116.657
  0
LINE
  8
0
 10
-40.8086
 20
116.657
 11
-42.2484
 21
115.287
  0
LINE
  8
0
 10
-42.2484
 20
115.287
 11
-43.7411
 21
113.975
  0
LINE
  8
0
 10
-43.7411
 20
113.975
 11
-45.2845
 21
112.722
  0
LINE
  8
0
 10
-45.2845
 20
112.722
 11
-46.8761
 21
111.532
  0
LINE
  8
0
 10
-46.8761
 20
111.532
 11
-48.5136
 21
110.405
  0
LINE
  8
0
 10
-48.5136
 20
110.405
 11
-50.1943
 21
109.344
  0
LINE
  8
0
 10
-50.1943
 20
109.344
 11
-50.3
 21
109.283
  0
LINE
  8
0
 10
-50.3
 20
109.283
 11
-50.3
 21
150.297
  0
LINE
  8
0
 10
-101.1
 20
150.297
 11
-92.0157
 21
132.128
  0
LINE
  8
0
 10
-92.0157
 20
132.128
 11
-92.5352
 21
131.431
  0
LINE
  8
0
 10
-92.5352
 20
131.431
 11
-93.6605
 21
129.79
  0
LINE
  8
0
 10
-93.6605
 20
129.79
 11
-94.7214
 21
128.107
  0
LINE
  8
0
 10
-94.7214
 20
128.107
 11
-95.7161
 21
126.384
  0
LINE
  8
0
 10
-95.7161
 20
126.384
 11
-96.6434
 21
124.623
  0
LINE
  8
0
 10
-96.6434
 20
124.623
 11
-97.5016
 21
122.828
  0
LINE
  8
0
 10
-97.5016
 20
122.828
 11
-98.2896
 21
121.002
  0
LINE
  8
0
 10
-98.2896
 20
121.002
 11
-99.0062
 21
119.146
  0
LINE
  8
0
 10
-99.0062
 20
119.146
 11
-99.6503
 21
117.263
  0
LINE
  8
0
 10
-99.6503
 20
117.263
 11
-100.221
 21
115.357
  0
LINE
  8
0
 10
-100.221
 20
115.357
 11
-100.717
 21
113.431
  0
LINE
  8
0
 10
-100.717
 20
113.431
 11
-101.1
 21
111.663
  0
LINE
  8
0
 10
-101.1
 20
111.663
 11
-101.1
 21
150.297
  0
LINE
  8
0
 10
76.7
 20
144.717
 11
76.8057
 21
144.656
  0
LINE
  8
0
 10
76.8057
 20
144.656
 11
78.4864
 21
143.595
  0
LINE
  8
0
 10
78.4864
 20
143.595
 11
80.1239
 21
142.468
  0
LINE
  8
0
 10
80.1239
 20
142.468
 11
81.7155
 21
141.278
  0
LINE
  8
0
 10
81.7155
 20
141.278
 11
83.2589
 21
140.025
  0
LINE
  8
0
 10
83.2589
 20
140.025
 11
84.7516
 21
138.713
  0
LINE
  8
0
 10
84.7516
 20
138.713
 11
86.1913
 21
137.343
  0
LINE
  8
0
 10
86.1913
 20
137.343
 11
87.5758
 21
135.917
  0
LINE
  8
0
 10
87.5758
 20
135.917
 11
88.9028
 21
134.437
  0
LINE
  8
0
 10
88.9028
 20
134.437
 11
90.1703
 21
132.906
  0
LINE
  8
0
 10
90.1703
 20
132.906
 11
90.8539
 21
132.011
  0
LINE
  8
0
 10
90.8539
 20
132.011
 11
76.7
 21
103.703
  0
LINE
  8
0
 10
76.7
 20
103.703
 11
76.7
 21
144.717
  0
LINE
  8
0
 10
-35.0151
 20
121.83
 11
-34.4648
 21
122.569
  0
LINE
  8
0
 10
-34.4648
 20
122.569
 11
-33.3395
 21
124.21
  0
LINE
  8
0
 10
-33.3395
 20
124.21
 11
-32.2786
 21
125.893
  0
LINE
  8
0
 10
-32.2786
 20
125.893
 11
-31.2839
 21
127.616
  0
LINE
  8
0
 10
-31.2839
 20
127.616
 11
-30.3566
 21
129.377
  0
LINE
  8
0
 10
-30.3566
 20
129.377
 11
-29.4984
 21
131.172
  0
LINE
  8
0
 10
-29.4984
 20
131.172
 11
-28.7104
 21
132.998
  0
LINE
  8
0
 10
-28.7104
 20
132.998
 11
-27.9938
 21
134.854
  0
LINE
  8
0
 10
-27.9938
 20
134.854
 11
-27.3497
 21
136.737
  0
LINE
  8
0
 10
-27.3497
 20
136.737
 11
-26.7791
 21
138.643
  0
LINE
  8
0
 10
-26.7791
 20
138.643
 11
-26.2828
 21
140.569
  0
LINE
  8
0
 10
-26.2828
 20
140.569
 11
-25.8616
 21
142.514
  0
LINE
  8
0
 10
-25.8616
 20
142.514
 11
-25.8045
 21
142.838
  0
LINE
  8
0
 10
-25.8045
 20
142.838
 11
-25.8045
 21
103.409
  0
LINE
  8
0
 10
-25.8045
 20
103.409
 11
-35.0151
 21
121.83
  0
LINE
  8
0
 10
76.9378
 20
102.076
 11
91.4855
 21
131.171
  0
LINE
  8
0
 10
91.4855
 20
131.171
 11
92.5191
 21
129.7
  0
LINE
  8
0
 10
92.5191
 20
129.7
 11
93.5967
 21
128.03
  0
LINE
  8
0
 10
93.5967
 20
128.03
 11
94.6074
 21
126.318
  0
LINE
  8
0
 10
94.6074
 20
126.318
 11
95.5497
 21
124.568
  0
LINE
  8
0
 10
95.5497
 20
124.568
 11
96.4222
 21
122.783
  0
LINE
  8
0
 10
96.4222
 20
122.783
 11
97.2234
 21
120.964
  0
LINE
  8
0
 10
97.2234
 20
120.964
 11
97.9522
 21
119.115
  0
LINE
  8
0
 10
97.9522
 20
119.115
 11
98.6073
 21
117.238
  0
LINE
  8
0
 10
98.6073
 20
117.238
 11
99.1878
 21
115.337
  0
LINE
  8
0
 10
99.1878
 20
115.337
 11
99.6927
 21
113.415
  0
LINE
  8
0
 10
99.6927
 20
113.415
 11
100.121
 21
111.474
  0
LINE
  8
0
 10
100.121
 20
111.474
 11
100.473
 21
109.518
  0
LINE
  8
0
 10
100.473
 20
109.518
 11
100.747
 21
107.549
  0
LINE
  8
0
 10
100.747
 20
107.549
 11
100.943
 21
105.571
  0
LINE
  8
0
 10
100.943
 20
105.571
 11
101.061
 21
103.587
  0
LINE
  8
0
 10
101.061
 20
103.587
 11
101.091
 21
102.076
  0
LINE
  8
0
 10
101.091
 20
102.076
 11
76.9378
 21
102.076
  0
LINE
  8
0
 10
-101.09
 20
102.076
 11
-101.09
 21
102.594
  0
LINE
  8
0
 10
-101.09
 20
102.594
 11
-101.012
 21
104.58
  0
LINE
  8
0
 10
-101.012
 20
104.58
 11
-100.855
 21
106.561
  0
LINE
  8
0
 10
-100.855
 20
106.561
 11
-100.62
 21
108.535
  0
LINE
  8
0
 10
-100.62
 20
108.535
 11
-100.307
 21
110.498
  0
LINE
  8
0
 10
-100.307
 20
110.498
 11
-99.9166
 21
112.446
  0
LINE
  8
0
 10
-99.9166
 20
112.446
 11
-99.4498
 21
114.378
  0
LINE
  8
0
 10
-99.4498
 20
114.378
 11
-98.907
 21
116.29
  0
LINE
  8
0
 10
-98.907
 20
116.29
 11
-98.289
 21
118.18
  0
LINE
  8
0
 10
-98.289
 20
118.18
 11
-97.597
 21
120.043
  0
LINE
  8
0
 10
-97.597
 20
120.043
 11
-96.8318
 21
121.877
  0
LINE
  8
0
 10
-96.8318
 20
121.877
 11
-95.9948
 21
123.68
  0
LINE
  8
0
 10
-95.9948
 20
123.68
 11
-95.0872
 21
125.448
  0
LINE
  8
0
 10
-95.0872
 20
125.448
 11
-94.1105
 21
127.179
  0
LINE
  8
0
 10
-94.1105
 20
127.179
 11
-93.0661
 21
128.87
  0
LINE
  8
0
 10
-93.0661
 20
128.87
 11
-91.9558
 21
130.519
  0
LINE
  8
0
 10
-91.9558
 20
130.519
 11
-91.513
 21
131.123
  0
LINE
  8
0
 10
-91.513
 20
131.123
 11
-76.9892
 21
102.076
  0
LINE
  8
0
 10
-76.9892
 20
102.076
 11
-101.09
 21
102.076
  0
LINE
  8
0
 10
-66.293
 20
102.076
 11
-65.3396
 21
102.263
  0
LINE
  8
0
 10
-65.3396
 20
102.263
 11
-63.4037
 21
102.722
  0
LINE
  8
0
 10
-63.4037
 20
102.722
 11
-61.487
 21
103.255
  0
LINE
  8
0
 10
-61.487
 20
103.255
 11
-59.5924
 21
103.863
  0
LINE
  8
0
 10
-59.5924
 20
103.863
 11
-57.7229
 21
104.543
  0
LINE
  8
0
 10
-57.7229
 20
104.543
 11
-55.8811
 21
105.296
  0
LINE
  8
0
 10
-55.8811
 20
105.296
 11
-54.0699
 21
106.119
  0
LINE
  8
0
 10
-54.0699
 20
106.119
 11
-52.292
 21
107.012
  0
LINE
  8
0
 10
-52.292
 20
107.012
 11
-51.2045
 21
107.612
  0
LINE
  8
0
 10
-51.2045
 20
107.612
 11
-51.2045
 21
102.076
  0
LINE
  8
0
 10
-51.2045
 20
102.076
 11
-66.293
 21
102.076
  0
LINE
  8
0
 10
-63.2378
 20
76.6755
 11
-75.4548
 21
101.11
  0
LINE
  8
0
 10
-75.4548
 20
101.11
 11
-75.2052
 21
101.11
  0
LINE
  8
0
 10
-75.2052
 20
101.11
 11
-74.8232
 21
101.124
  0
LINE
  8
0
 10
-74.8232
 20
101.124
 11
-51.2045
 21
101.124
  0
LINE
  8
0
 10
-51.2045
 20
101.124
 11
-51.2045
 21
76.6755
  0
LINE
  8
0
 10
-51.2045
 20
76.6755
 11
-63.2378
 21
76.6755
  0
LINE
  8
0
 10
-50.3
 20
101.124
 11
-26.1892
 21
101.124
  0
LINE
  8
0
 10
-26.1892
 20
101.124
 11
-50.3
 21
52.9029
  0
LINE
  8
0
 10
-50.3
 20
52.9029
 11
-50.3
 21
101.124
  0
LINE
  8
0
 10
51.3
 20
76.6755
 11
51.3
 21
101.124
  0
LINE
  8
0
 10
51.3
 20
101.124
 11
75.4108
 21
101.124
  0
LINE
  8
0
 10
75.4108
 20
101.124
 11
63.1863
 21
76.6755
  0
LINE
  8
0
 10
63.1863
 20
76.6755
 11
51.3
 21
76.6755
  0
LINE
  8
0
 10
-101.1
 20
76.6755
 11
-101.1
 21
101.124
  0
LINE
  8
0
 10
-101.1
 20
101.124
 11
-76.5137
 21
101.124
  0
LINE
  8
0
 10
-76.5137
 20
101.124
 11
-64.2892
 21
76.6755
  0
LINE
  8
0
 10
-64.2892
 20
76.6755
 11
-101.1
 21
76.6755
  0
LINE
  8
0
 10
-24.6622
 20
101.124
 11
24.6108
 21
101.124
  0
LINE
  8
0
 10
24.6108
 20
101.124
 11
-0.0257263
 21
51.8515
  0
LINE
  8
0
 10
-0.0257263
 20
51.8515
 11
-24.6622
 21
101.124
  0
LINE
  8
0
 10
25.9
 20
51.2755
 11
25.9
 21
101.124
  0
LINE
  8
0
 10
25.9
 20
101.124
 11
50.3955
 21
101.124
  0
LINE
  8
0
 10
50.3955
 20
101.124
 11
50.3955
 21
51.2755
  0
LINE
  8
0
 10
50.3955
 20
51.2755
 11
25.9
 21
51.2755
  0
LINE
  8
0
 10
76.7
 20
76.6755
 11
76.7
 21
101.124
  0
LINE
  8
0
 10
76.7
 20
101.124
 11
101.195
 21
101.124
  0
LINE
  8
0
 10
101.195
 20
101.124
 11
101.195
 21
76.6755
  0
LINE
  8
0
 10
101.195
 20
76.6755
 11
76.7
 21
76.6755
  0
LINE
  8
0
 10
64.2378
 20
76.6755
 11
75.7955
 21
99.791
  0
LINE
  8
0
 10
75.7955
 20
99.791
 11
75.7955
 21
76.6755
  0
LINE
  8
0
 10
75.7955
 20
76.6755
 11
64.2378
 21
76.6755
  0
LINE
  8
0
 10
0.737762
 20
51.2755
 11
24.9955
 21
99.791
  0
LINE
  8
0
 10
24.9955
 20
99.791
 11
24.9955
 21
51.2755
  0
LINE
  8
0
 10
24.9955
 20
51.2755
 11
0.737762
 21
51.2755
  0
LINE
  8
0
 10
-50.0622
 20
51.2755
 11
-25.8045
 21
99.791
  0
LINE
  8
0
 10
-25.8045
 20
99.791
 11
-25.8045
 21
51.2755
  0
LINE
  8
0
 10
-25.8045
 20
51.2755
 11
-50.0622
 21
51.2755
  0
LINE
  8
0
 10
-24.9
 20
51.2755
 11
-24.9
 21
99.4971
  0
LINE
  8
0
 10
-24.9
 20
99.4971
 11
-0.789215
 21
51.2755
  0
LINE
  8
0
 10
-0.789215
 20
51.2755
 11
-24.9
 21
51.2755
  0
LINE
  8
0
 10
-62.7622
 20
75.7245
 11
-51.2045
 21
75.7245
  0
LINE
  8
0
 10
-51.2045
 20
75.7245
 11
-51.2045
 21
52.609
  0
LINE
  8
0
 10
-51.2045
 20
52.609
 11
-62.7622
 21
75.7245
  0
LINE
  8
0
 10
-101.1
 20
51.2755
 11
-101.1
 21
75.7245
  0
LINE
  8
0
 10
-101.1
 20
75.7245
 11
-63.8137
 21
75.7245
  0
LINE
  8
0
 10
-63.8137
 20
75.7245
 11
-51.5892
 21
51.2755
  0
LINE
  8
0
 10
-51.5892
 20
51.2755
 11
-101.1
 21
51.2755
  0
LINE
  8
0
 10
51.5378
 20
51.2755
 11
63.7622
 21
75.7245
  0
LINE
  8
0
 10
63.7622
 20
75.7245
 11
75.7955
 21
75.7245
  0
LINE
  8
0
 10
75.7955
 20
75.7245
 11
75.7955
 21
51.2755
  0
LINE
  8
0
 10
75.7955
 20
51.2755
 11
51.5378
 21
51.2755
  0
LINE
  8
0
 10
51.3
 20
75.7245
 11
62.7108
 21
75.7245
  0
LINE
  8
0
 10
62.7108
 20
75.7245
 11
51.3
 21
52.9029
  0
LINE
  8
0
 10
51.3
 20
52.9029
 11
51.3
 21
75.7245
  0
LINE
  8
0
 10
76.7
 20
51.2755
 11
76.7
 21
75.7245
  0
LINE
  8
0
 10
76.7
 20
75.7245
 11
101.195
 21
75.7245
  0
LINE
  8
0
 10
101.195
 20
75.7245
 11
101.195
 21
51.2755
  0
LINE
  8
0
 10
101.195
 20
51.2755
 11
76.7
 21
51.2755
  0
LINE
  8
0
 10
74.708
 20
19.9883
 11
72.9301
 21
20.8812
  0
LINE
  8
0
 10
72.9301
 20
20.8812
 11
71.1189
 21
21.7045
  0
LINE
  8
0
 10
71.1189
 20
21.7045
 11
69.2771
 21
22.4569
  0
LINE
  8
0
 10
69.2771
 20
22.4569
 11
67.4075
 21
23.1374
  0
LINE
  8
0
 10
67.4075
 20
23.1374
 11
65.513
 21
23.7449
  0
LINE
  8
0
 10
65.513
 20
23.7449
 11
63.5963
 21
24.2784
  0
LINE
  8
0
 10
63.5963
 20
24.2784
 11
61.6604
 21
24.7372
  0
LINE
  8
0
 10
61.6604
 20
24.7372
 11
59.7081
 21
25.1206
  0
LINE
  8
0
 10
59.7081
 20
25.1206
 11
57.7425
 21
25.4281
  0
LINE
  8
0
 10
57.7425
 20
25.4281
 11
55.7664
 21
25.659
  0
LINE
  8
0
 10
55.7664
 20
25.659
 11
53.7828
 21
25.8132
  0
LINE
  8
0
 10
53.7828
 20
25.8132
 11
51.7948
 21
25.8904
  0
LINE
  8
0
 10
51.7948
 20
25.8904
 11
51.3
 21
25.8904
  0
LINE
  8
0
 10
51.3
 20
25.8904
 11
51.3
 21
50.3245
  0
LINE
  8
0
 10
51.3
 20
50.3245
 11
75.7955
 21
50.3245
  0
LINE
  8
0
 10
75.7955
 20
50.3245
 11
75.7955
 21
19.3882
  0
LINE
  8
0
 10
75.7955
 20
19.3882
 11
74.708
 21
19.9883
  0
LINE
  8
0
 10
81.4342
 20
15.7489
 11
79.8156
 21
16.9058
  0
LINE
  8
0
 10
79.8156
 20
16.9058
 11
78.1534
 21
17.9991
  0
LINE
  8
0
 10
78.1534
 20
17.9991
 11
76.7
 21
18.8762
  0
LINE
  8
0
 10
76.7
 20
18.8762
 11
76.7
 21
50.3245
  0
LINE
  8
0
 10
76.7
 20
50.3245
 11
100.811
 21
50.3245
  0
LINE
  8
0
 10
100.811
 20
50.3245
 11
82.9396
 21
14.5822
  0
LINE
  8
0
 10
82.9396
 20
14.5822
 11
81.4342
 21
15.7489
  0
LINE
  8
0
 10
-100.862
 20
50.3245
 11
-51.5892
 21
50.3245
  0
LINE
  8
0
 10
-51.5892
 20
50.3245
 11
-64.7765
 21
23.9499
  0
LINE
  8
0
 10
-64.7765
 20
23.9499
 11
-65.513
 21
23.7449
  0
LINE
  8
0
 10
-65.513
 20
23.7449
 11
-67.4075
 21
23.1374
  0
LINE
  8
0
 10
-67.4075
 20
23.1374
 11
-69.2771
 21
22.4569
  0
LINE
  8
0
 10
-69.2771
 20
22.4569
 11
-71.1189
 21
21.7045
  0
LINE
  8
0
 10
-71.1189
 20
21.7045
 11
-72.9301
 21
20.8812
  0
LINE
  8
0
 10
-72.9301
 20
20.8812
 11
-74.708
 21
19.9883
  0
LINE
  8
0
 10
-74.708
 20
19.9883
 11
-76.45
 21
19.0271
  0
LINE
  8
0
 10
-76.45
 20
19.0271
 11
-78.1534
 21
17.9991
  0
LINE
  8
0
 10
-78.1534
 20
17.9991
 11
-79.8156
 21
16.9058
  0
LINE
  8
0
 10
-79.8156
 20
16.9058
 11
-81.4342
 21
15.7489
  0
LINE
  8
0
 10
-81.4342
 20
15.7489
 11
-82.9767
 21
14.5534
  0
LINE
  8
0
 10
-82.9767
 20
14.5534
 11
-100.862
 21
50.3245
  0
LINE
  8
0
 10
12.9622
 20
25.8755
 11
0.737762
 21
50.3245
  0
LINE
  8
0
 10
0.737762
 20
50.3245
 11
24.9955
 21
50.3245
  0
LINE
  8
0
 10
24.9955
 20
50.3245
 11
24.9955
 21
25.8755
  0
LINE
  8
0
 10
24.9955
 20
25.8755
 11
12.9622
 21
25.8755
  0
LINE
  8
0
 10
25.9
 20
25.8755
 11
25.9
 21
50.3245
  0
LINE
  8
0
 10
25.9
 20
50.3245
 11
50.0108
 21
50.3245
  0
LINE
  8
0
 10
50.0108
 20
50.3245
 11
37.7863
 21
25.8755
  0
LINE
  8
0
 10
37.7863
 20
25.8755
 11
25.9
 21
25.8755
  0
LINE
  8
0
 10
-50.0622
 20
50.3245
 11
-25.8045
 21
50.3245
  0
LINE
  8
0
 10
-25.8045
 20
50.3245
 11
-25.8045
 21
25.8755
  0
LINE
  8
0
 10
-25.8045
 20
25.8755
 11
-37.8378
 21
25.8755
  0
LINE
  8
0
 10
-37.8378
 20
25.8755
 11
-50.0622
 21
50.3245
  0
LINE
  8
0
 10
-11.9622
 20
25.8755
 11
-0.0257263
 21
49.7485
  0
LINE
  8
0
 10
-0.0257263
 20
49.7485
 11
11.9108
 21
25.8755
  0
LINE
  8
0
 10
11.9108
 20
25.8755
 11
-11.9622
 21
25.8755
  0
LINE
  8
0
 10
-51.2045
 20
48.991
 11
-51.2045
 21
25.8904
  0
LINE
  8
0
 10
-51.2045
 20
25.8904
 11
-51.7948
 21
25.8904
  0
LINE
  8
0
 10
-51.7948
 20
25.8904
 11
-53.7828
 21
25.8132
  0
LINE
  8
0
 10
-53.7828
 20
25.8132
 11
-55.7664
 21
25.659
  0
LINE
  8
0
 10
-55.7664
 20
25.659
 11
-57.7425
 21
25.4281
  0
LINE
  8
0
 10
-57.7425
 20
25.4281
 11
-59.7081
 21
25.1206
  0
LINE
  8
0
 10
-59.7081
 20
25.1206
 11
-61.6604
 21
24.7372
  0
LINE
  8
0
 10
-61.6604
 20
24.7372
 11
-63.556
 21
24.2879
  0
LINE
  8
0
 10
-63.556
 20
24.2879
 11
-51.2045
 21
48.991
  0
LINE
  8
0
 10
38.8378
 20
25.8755
 11
50.3955
 21
48.991
  0
LINE
  8
0
 10
50.3955
 20
48.991
 11
50.3955
 21
25.8755
  0
LINE
  8
0
 10
50.3955
 20
25.8755
 11
38.8378
 21
25.8755
  0
LINE
  8
0
 10
94.7214
 20
1.10667
 11
93.6605
 21
2.78979
  0
LINE
  8
0
 10
93.6605
 20
2.78979
 11
92.5352
 21
4.43054
  0
LINE
  8
0
 10
92.5352
 20
4.43054
 11
91.3471
 21
6.0264
  0
LINE
  8
0
 10
91.3471
 20
6.0264
 11
90.0981
 21
7.575
  0
LINE
  8
0
 10
90.0981
 20
7.575
 11
88.7899
 21
9.07399
  0
LINE
  8
0
 10
88.7899
 20
9.07399
 11
87.4246
 21
10.5211
  0
LINE
  8
0
 10
87.4246
 20
10.5211
 11
86.0042
 21
11.9143
  0
LINE
  8
0
 10
86.0042
 20
11.9143
 11
84.5308
 21
13.2513
  0
LINE
  8
0
 10
84.5308
 20
13.2513
 11
83.6818
 21
13.9637
  0
LINE
  8
0
 10
83.6818
 20
13.9637
 11
101.195
 21
48.991
  0
LINE
  8
0
 10
101.195
 20
48.991
 11
101.195
 21
25.4
  0
LINE
  8
0
 10
101.195
 20
25.4
 11
101.1
 21
25.4
  0
LINE
  8
0
 10
101.1
 20
25.4
 11
101.061
 21
23.4128
  0
LINE
  8
0
 10
101.061
 20
23.4128
 11
100.943
 21
21.4287
  0
LINE
  8
0
 10
100.943
 20
21.4287
 11
100.747
 21
19.4509
  0
LINE
  8
0
 10
100.747
 20
19.4509
 11
100.473
 21
17.4823
  0
LINE
  8
0
 10
100.473
 20
17.4823
 11
100.121
 21
15.526
  0
LINE
  8
0
 10
100.121
 20
15.526
 11
99.6927
 21
13.5852
  0
LINE
  8
0
 10
99.6927
 20
13.5852
 11
99.1878
 21
11.6629
  0
LINE
  8
0
 10
99.1878
 20
11.6629
 11
98.6073
 21
9.76195
  0
LINE
  8
0
 10
98.6073
 20
9.76195
 11
97.9522
 21
7.88545
  0
LINE
  8
0
 10
97.9522
 20
7.88545
 11
97.2234
 21
6.0363
  0
LINE
  8
0
 10
97.2234
 20
6.0363
 11
96.4222
 21
4.21738
  0
LINE
  8
0
 10
96.4222
 20
4.21738
 11
95.5497
 21
2.43155
  0
LINE
  8
0
 10
95.5497
 20
2.43155
 11
94.7808
 21
1.00365
  0
LINE
  8
0
 10
94.7808
 20
1.00365
 11
94.7214
 21
1.10667
  0
LINE
  8
0
 10
-50.3
 20
25.8755
 11
-50.3
 21
48.6971
  0
LINE
  8
0
 10
-50.3
 20
48.6971
 11
-38.8892
 21
25.8755
  0
LINE
  8
0
 10
-38.8892
 20
25.8755
 11
-50.3
 21
25.8755
  0
LINE
  8
0
 10
-95.0872
 20
1.5519
 11
-95.9948
 21
3.32016
  0
LINE
  8
0
 10
-95.9948
 20
3.32016
 11
-96.8318
 21
5.12288
  0
LINE
  8
0
 10
-96.8318
 20
5.12288
 11
-97.597
 21
6.95728
  0
LINE
  8
0
 10
-97.597
 20
6.95728
 11
-98.289
 21
8.82047
  0
LINE
  8
0
 10
-98.289
 20
8.82047
 11
-98.907
 21
10.7095
  0
LINE
  8
0
 10
-98.907
 20
10.7095
 11
-99.4498
 21
12.6216
  0
LINE
  8
0
 10
-99.4498
 20
12.6216
 11
-99.9166
 21
14.5535
  0
LINE
  8
0
 10
-99.9166
 20
14.5535
 11
-100.307
 21
16.5024
  0
LINE
  8
0
 10
-100.307
 20
16.5024
 11
-100.62
 21
18.4652
  0
LINE
  8
0
 10
-100.62
 20
18.4652
 11
-100.855
 21
20.4388
  0
LINE
  8
0
 10
-100.855
 20
20.4388
 11
-101.012
 21
22.4202
  0
LINE
  8
0
 10
-101.012
 20
22.4202
 11
-101.09
 21
24.4062
  0
LINE
  8
0
 10
-101.09
 20
24.4062
 11
-101.09
 21
25.4
  0
LINE
  8
0
 10
-101.09
 20
25.4
 11
-101.1
 21
25.4
  0
LINE
  8
0
 10
-101.1
 20
25.4
 11
-101.1
 21
48.6971
  0
LINE
  8
0
 10
-101.1
 20
48.6971
 11
-83.7181
 21
13.9332
  0
LINE
  8
0
 10
-83.7181
 20
13.9332
 11
-84.5308
 21
13.2513
  0
LINE
  8
0
 10
-84.5308
 20
13.2513
 11
-86.0042
 21
11.9143
  0
LINE
  8
0
 10
-86.0042
 20
11.9143
 11
-87.4246
 21
10.5211
  0
LINE
  8
0
 10
-87.4246
 20
10.5211
 11
-88.7899
 21
9.07399
  0
LINE
  8
0
 10
-88.7899
 20
9.07399
 11
-90.0981
 21
7.575
  0
LINE
  8
0
 10
-90.0981
 20
7.575
 11
-91.3471
 21
6.0264
  0
LINE
  8
0
 10
-91.3471
 20
6.0264
 11
-92.5352
 21
4.43054
  0
LINE
  8
0
 10
-92.5352
 20
4.43054
 11
-93.6605
 21
2.78979
  0
LINE
  8
0
 10
-93.6605
 20
2.78979
 11
-94.7214
 21
1.10667
  0
LINE
  8
0
 10
-94.7214
 20
1.10667
 11
-94.7793
 21
1.00624
  0
LINE
  8
0
 10
-94.7793
 20
1.00624
 11
-95.0872
 21
1.5519
  0
LINE
  8
0
 10
-24.9
 20
24.9245
 11
-13.4892
 21
24.9245
  0
LINE
  8
0
 10
-13.4892
 20
24.9245
 11
-24.9
 21
2.10291
  0
LINE
  8
0
 10
-24.9
 20
2.10291
 11
-24.9
 21
24.9245
  0
LINE
  8
0
 10
-37.3622
 20
24.9245
 11
-25.8045
 21
24.9245
  0
LINE
  8
0
 10
-25.8045
 20
24.9245
 11
-25.8045
 21
1.80901
  0
LINE
  8
0
 10
-25.8045
 20
1.80901
 11
-37.3622
 21
24.9245
  0
LINE
  8
0
 10
13.4378
 20
24.9245
 11
24.9955
 21
24.9245
  0
LINE
  8
0
 10
24.9955
 20
24.9245
 11
24.9955
 21
1.80901
  0
LINE
  8
0
 10
24.9955
 20
1.80901
 11
13.4378
 21
24.9245
  0
LINE
  8
0
 10
25.9
 20
24.9245
 11
37.3108
 21
24.9245
  0
LINE
  8
0
 10
37.3108
 20
24.9245
 11
25.9
 21
2.10291
  0
LINE
  8
0
 10
25.9
 20
2.10291
 11
25.9
 21
24.9245
  0
LINE
  8
0
 10
26.1378
 20
0.475525
 11
38.3622
 21
24.9245
  0
LINE
  8
0
 10
38.3622
 20
24.9245
 11
50.3955
 21
24.9245
  0
LINE
  8
0
 10
50.3955
 20
24.9245
 11
50.3955
 21
0.475525
  0
LINE
  8
0
 10
50.3955
 20
0.475525
 11
26.1378
 21
0.475525
  0
LINE
  8
0
 10
-50.3
 20
24.9245
 11
-38.4137
 21
24.9245
  0
LINE
  8
0
 10
-38.4137
 20
24.9245
 11
-26.1892
 21
0.475525
  0
LINE
  8
0
 10
-26.1892
 20
0.475525
 11
-50.3
 21
0.475525
  0
LINE
  8
0
 10
-50.3
 20
0.475525
 11
-50.3
 21
24.9245
  0
LINE
  8
0
 10
-53.2836
 20
-24.8386
 11
-55.2664
 21
-24.7013
  0
LINE
  8
0
 10
-55.2664
 20
-24.7013
 11
-57.2423
 21
-24.4857
  0
LINE
  8
0
 10
-57.2423
 20
-24.4857
 11
-59.2081
 21
-24.1923
  0
LINE
  8
0
 10
-59.2081
 20
-24.1923
 11
-61.1607
 21
-23.8214
  0
LINE
  8
0
 10
-61.1607
 20
-23.8214
 11
-63.0972
 21
-23.3736
  0
LINE
  8
0
 10
-63.0972
 20
-23.3736
 11
-64.1581
 21
-23.0837
  0
LINE
  8
0
 10
-64.1581
 20
-23.0837
 11
-75.7
 21
0
  0
LINE
  8
0
 10
-75.7
 20
0
 11
-64.1581
 21
23.0837
  0
LINE
  8
0
 10
-64.1581
 20
23.0837
 11
-63.0972
 21
23.3736
  0
LINE
  8
0
 10
-63.0972
 20
23.3736
 11
-61.1607
 21
23.8214
  0
LINE
  8
0
 10
-61.1607
 20
23.8214
 11
-59.2081
 21
24.1923
  0
LINE
  8
0
 10
-59.2081
 20
24.1923
 11
-57.2423
 21
24.4857
  0
LINE
  8
0
 10
-57.2423
 20
24.4857
 11
-55.2664
 21
24.7013
  0
LINE
  8
0
 10
-55.2664
 20
24.7013
 11
-53.2836
 21
24.8386
  0
LINE
  8
0
 10
-53.2836
 20
24.8386
 11
-51.2969
 21
24.8975
  0
LINE
  8
0
 10
-51.2969
 20
24.8975
 11
-51.2045
 21
24.8966
  0
LINE
  8
0
 10
-51.2045
 20
24.8966
 11
-51.2045
 21
-24.8966
  0
LINE
  8
0
 10
-51.2045
 20
-24.8966
 11
-51.2969
 21
-24.8975
  0
LINE
  8
0
 10
-51.2969
 20
-24.8975
 11
-53.2836
 21
-24.8386
  0
LINE
  8
0
 10
51.3
 20
0.475525
 11
51.3
 21
24.8877
  0
LINE
  8
0
 10
51.3
 20
24.8877
 11
52.2905
 21
24.8779
  0
LINE
  8
0
 10
52.2905
 20
24.8779
 11
54.2757
 21
24.7798
  0
LINE
  8
0
 10
54.2757
 20
24.7798
 11
56.2554
 21
24.6033
  0
LINE
  8
0
 10
56.2554
 20
24.6033
 11
58.2266
 21
24.3487
  0
LINE
  8
0
 10
58.2266
 20
24.3487
 11
60.1862
 21
24.0165
  0
LINE
  8
0
 10
60.1862
 20
24.0165
 11
62.1312
 21
23.6071
  0
LINE
  8
0
 10
62.1312
 20
23.6071
 11
64.0584
 21
23.1212
  0
LINE
  8
0
 10
64.0584
 20
23.1212
 11
65.965
 21
22.5595
  0
LINE
  8
0
 10
65.965
 20
22.5595
 11
67.8479
 21
21.9229
  0
LINE
  8
0
 10
67.8479
 20
21.9229
 11
69.7041
 21
21.2125
  0
LINE
  8
0
 10
69.7041
 20
21.2125
 11
71.5309
 21
20.4292
  0
LINE
  8
0
 10
71.5309
 20
20.4292
 11
73.3252
 21
19.5745
  0
LINE
  8
0
 10
73.3252
 20
19.5745
 11
75.0844
 21
18.6495
  0
LINE
  8
0
 10
75.0844
 20
18.6495
 11
75.7955
 21
18.2389
  0
LINE
  8
0
 10
75.7955
 20
18.2389
 11
75.7955
 21
0.475525
  0
LINE
  8
0
 10
75.7955
 20
0.475525
 11
51.3
 21
0.475525
  0
LINE
  8
0
 10
-82.5188
 20
13.6377
 11
-82.4934
 21
13.6591
  0
LINE
  8
0
 10
-82.4934
 20
13.6591
 11
-80.9256
 21
14.8808
  0
LINE
  8
0
 10
-80.9256
 20
14.8808
 11
-79.3107
 21
16.0395
  0
LINE
  8
0
 10
-79.3107
 20
16.0395
 11
-77.6513
 21
17.1335
  0
LINE
  8
0
 10
-77.6513
 20
17.1335
 11
-75.95
 21
18.1611
  0
LINE
  8
0
 10
-75.95
 20
18.1611
 11
-74.2094
 21
19.1207
  0
LINE
  8
0
 10
-74.2094
 20
19.1207
 11
-72.4323
 21
20.0107
  0
LINE
  8
0
 10
-72.4323
 20
20.0107
 11
-70.6214
 21
20.8299
  0
LINE
  8
0
 10
-70.6214
 20
20.8299
 11
-68.7795
 21
21.5769
  0
LINE
  8
0
 10
-68.7795
 20
21.5769
 11
-66.9096
 21
22.2505
  0
LINE
  8
0
 10
-66.9096
 20
22.2505
 11
-65.3852
 21
22.7325
  0
LINE
  8
0
 10
-65.3852
 20
22.7325
 11
-76.2257
 21
1.05145
  0
LINE
  8
0
 10
-76.2257
 20
1.05145
 11
-82.5188
 21
13.6377
  0
LINE
  8
0
 10
76.7
 20
17.7167
 11
76.8057
 21
17.6557
  0
LINE
  8
0
 10
76.8057
 20
17.6557
 11
78.4864
 21
16.5947
  0
LINE
  8
0
 10
78.4864
 20
16.5947
 11
80.1239
 21
15.4681
  0
LINE
  8
0
 10
80.1239
 20
15.4681
 11
81.7155
 21
14.2777
  0
LINE
  8
0
 10
81.7155
 20
14.2777
 11
82.478
 21
13.659
  0
LINE
  8
0
 10
82.478
 20
13.659
 11
76.7
 21
2.10291
  0
LINE
  8
0
 10
76.7
 20
2.10291
 11
76.7
 21
17.7167
  0
LINE
  8
0
 10
95.6348
 20
0.475525
 11
95.7161
 21
0.616318
  0
LINE
  8
0
 10
95.7161
 20
0.616318
 11
96.6434
 21
2.3766
  0
LINE
  8
0
 10
96.6434
 20
2.3766
 11
97.5016
 21
4.17151
  0
LINE
  8
0
 10
97.5016
 20
4.17151
 11
98.2896
 21
5.99834
  0
LINE
  8
0
 10
98.2896
 20
5.99834
 11
99.0062
 21
7.85435
  0
LINE
  8
0
 10
99.0062
 20
7.85435
 11
99.6503
 21
9.73677
  0
LINE
  8
0
 10
99.6503
 20
9.73677
 11
100.221
 21
11.6427
  0
LINE
  8
0
 10
100.221
 20
11.6427
 11
100.717
 21
13.5694
  0
LINE
  8
0
 10
100.717
 20
13.5694
 11
101.138
 21
15.5139
  0
LINE
  8
0
 10
101.138
 20
15.5139
 11
101.195
 21
15.8376
  0
LINE
  8
0
 10
101.195
 20
15.8376
 11
101.195
 21
0.475525
  0
LINE
  8
0
 10
101.195
 20
0.475525
 11
95.6348
 21
0.475525
  0
LINE
  8
0
 10
-101.1
 20
15.3366
 11
-100.717
 21
13.5694
  0
LINE
  8
0
 10
-100.717
 20
13.5694
 11
-100.221
 21
11.6427
  0
LINE
  8
0
 10
-100.221
 20
11.6427
 11
-99.6503
 21
9.73677
  0
LINE
  8
0
 10
-99.6503
 20
9.73677
 11
-99.0062
 21
7.85435
  0
LINE
  8
0
 10
-99.0062
 20
7.85435
 11
-98.2896
 21
5.99834
  0
LINE
  8
0
 10
-98.2896
 20
5.99834
 11
-97.5016
 21
4.17151
  0
LINE
  8
0
 10
-97.5016
 20
4.17151
 11
-96.6434
 21
2.3766
  0
LINE
  8
0
 10
-96.6434
 20
2.3766
 11
-95.7161
 21
0.616318
  0
LINE
  8
0
 10
-95.7161
 20
0.616318
 11
-95.3603
 21
0
  0
LINE
  8
0
 10
-95.3603
 20
0
 11
-95.7161
 21
-0.616318
  0
LINE
  8
0
 10
-95.7161
 20
-0.616318
 11
-96.6434
 21
-2.3766
  0
LINE
  8
0
 10
-96.6434
 20
-2.3766
 11
-97.5016
 21
-4.17151
  0
LINE
  8
0
 10
-97.5016
 20
-4.17151
 11
-98.2896
 21
-5.99834
  0
LINE
  8
0
 10
-98.2896
 20
-5.99834
 11
-99.0062
 21
-7.85435
  0
LINE
  8
0
 10
-99.0062
 20
-7.85435
 11
-99.6503
 21
-9.73677
  0
LINE
  8
0
 10
-99.6503
 20
-9.73677
 11
-100.221
 21
-11.6427
  0
LINE
  8
0
 10
-100.221
 20
-11.6427
 11
-100.717
 21
-13.5694
  0
LINE
  8
0
 10
-100.717
 20
-13.5694
 11
-101.1
 21
-15.3366
  0
LINE
  8
0
 10
-101.1
 20
-15.3366
 11
-101.1
 21
15.3366
  0
LINE
  8
0
 10
76.9378
 20
0.475525
 11
83.226
 21
13.052
  0
LINE
  8
0
 10
83.226
 20
13.052
 11
83.2589
 21
13.0253
  0
LINE
  8
0
 10
83.2589
 20
13.0253
 11
84.7516
 21
11.713
  0
LINE
  8
0
 10
84.7516
 20
11.713
 11
86.1913
 21
10.3427
  0
LINE
  8
0
 10
86.1913
 20
10.3427
 11
87.5758
 21
8.91663
  0
LINE
  8
0
 10
87.5758
 20
8.91663
 11
88.9028
 21
7.43695
  0
LINE
  8
0
 10
88.9028
 20
7.43695
 11
90.1703
 21
5.90599
  0
LINE
  8
0
 10
90.1703
 20
5.90599
 11
91.3764
 21
4.32617
  0
LINE
  8
0
 10
91.3764
 20
4.32617
 11
92.5191
 21
2.69992
  0
LINE
  8
0
 10
92.5191
 20
2.69992
 11
93.5967
 21
1.0298
  0
LINE
  8
0
 10
93.5967
 20
1.0298
 11
93.924
 21
0.475525
  0
LINE
  8
0
 10
93.924
 20
0.475525
 11
76.9378
 21
0.475525
  0
LINE
  8
0
 10
-84.0118
 20
-12.3766
 11
-85.4783
 21
-11.035
  0
LINE
  8
0
 10
-85.4783
 20
-11.035
 11
-86.8906
 21
-9.63651
  0
LINE
  8
0
 10
-86.8906
 20
-9.63651
 11
-88.2466
 21
-8.18333
  0
LINE
  8
0
 10
-88.2466
 20
-8.18333
 11
-89.5441
 21
-6.67773
  0
LINE
  8
0
 10
-89.5441
 20
-6.67773
 11
-90.7812
 21
-5.12204
  0
LINE
  8
0
 10
-90.7812
 20
-5.12204
 11
-91.9558
 21
-3.51869
  0
LINE
  8
0
 10
-91.9558
 20
-3.51869
 11
-93.0661
 21
-1.87019
  0
LINE
  8
0
 10
-93.0661
 20
-1.87019
 11
-94.1105
 21
-0.179108
  0
LINE
  8
0
 10
-94.1105
 20
-0.179108
 11
-94.2116
 21
0
  0
LINE
  8
0
 10
-94.2116
 20
0
 11
-94.1105
 21
0.179108
  0
LINE
  8
0
 10
-94.1105
 20
0.179108
 11
-93.0661
 21
1.87019
  0
LINE
  8
0
 10
-93.0661
 20
1.87019
 11
-91.9558
 21
3.51869
  0
LINE
  8
0
 10
-91.9558
 20
3.51869
 11
-90.7812
 21
5.12204
  0
LINE
  8
0
 10
-90.7812
 20
5.12204
 11
-89.5441
 21
6.67773
  0
LINE
  8
0
 10
-89.5441
 20
6.67773
 11
-88.2466
 21
8.18333
  0
LINE
  8
0
 10
-88.2466
 20
8.18333
 11
-86.8906
 21
9.63651
  0
LINE
  8
0
 10
-86.8906
 20
9.63651
 11
-85.4783
 21
11.035
  0
LINE
  8
0
 10
-85.4783
 20
11.035
 11
-84.0118
 21
12.3766
  0
LINE
  8
0
 10
-84.0118
 20
12.3766
 11
-83.2581
 21
13.0132
  0
LINE
  8
0
 10
-83.2581
 20
13.0132
 11
-76.7514
 21
0
  0
LINE
  8
0
 10
-76.7514
 20
0
 11
-83.2581
 21
-13.0132
  0
LINE
  8
0
 10
-83.2581
 20
-13.0132
 11
-84.0118
 21
-12.3766
  0
LINE
  8
0
 10
101.138
 20
-15.5139
 11
100.717
 21
-13.5694
  0
LINE
  8
0
 10
100.717
 20
-13.5694
 11
100.221
 21
-11.6427
  0
LINE
  8
0
 10
100.221
 20
-11.6427
 11
99.6503
 21
-9.73677
  0
LINE
  8
0
 10
99.6503
 20
-9.73677
 11
99.0062
 21
-7.85435
  0
LINE
  8
0
 10
99.0062
 20
-7.85435
 11
98.2896
 21
-5.99834
  0
LINE
  8
0
 10
98.2896
 20
-5.99834
 11
97.5016
 21
-4.17151
  0
LINE
  8
0
 10
97.5016
 20
-4.17151
 11
96.6434
 21
-2.3766
  0
LINE
  8
0
 10
96.6434
 20
-2.3766
 11
95.7161
 21
-0.616318
  0
LINE
  8
0
 10
95.7161
 20
-0.616318
 11
95.6348
 21
-0.475525
  0
LINE
  8
0
 10
95.6348
 20
-0.475525
 11
101.195
 21
-0.475525
  0
LINE
  8
0
 10
101.195
 20
-0.475525
 11
101.195
 21
-15.8376
  0
LINE
  8
0
 10
101.195
 20
-15.8376
 11
101.138
 21
-15.5139
  0
LINE
  8
0
 10
-50.3
 20
-24.9245
 11
-50.3
 21
-0.475525
  0
LINE
  8
0
 10
-50.3
 20
-0.475525
 11
-26.1892
 21
-0.475525
  0
LINE
  8
0
 10
-26.1892
 20
-0.475525
 11
-38.4137
 21
-24.9245
  0
LINE
  8
0
 10
-38.4137
 20
-24.9245
 11
-50.3
 21
-24.9245
  0
LINE
  8
0
 10
-12.4378
 20
-24.9245
 11
-24.6622
 21
-0.475525
  0
LINE
  8
0
 10
-24.6622
 20
-0.475525
 11
24.6108
 21
-0.475525
  0
LINE
  8
0
 10
24.6108
 20
-0.475525
 11
12.3863
 21
-24.9245
  0
LINE
  8
0
 10
12.3863
 20
-24.9245
 11
-12.4378
 21
-24.9245
  0
LINE
  8
0
 10
51.3
 20
-0.475525
 11
75.4108
 21
-0.475525
  0
LINE
  8
0
 10
75.4108
 20
-0.475525
 11
64.0931
 21
-23.111
  0
LINE
  8
0
 10
64.0931
 20
-23.111
 11
64.0584
 21
-23.1212
  0
LINE
  8
0
 10
64.0584
 20
-23.1212
 11
62.1312
 21
-23.6071
  0
LINE
  8
0
 10
62.1312
 20
-23.6071
 11
60.1862
 21
-24.0165
  0
LINE
  8
0
 10
60.1862
 20
-24.0165
 11
58.2266
 21
-24.3487
  0
LINE
  8
0
 10
58.2266
 20
-24.3487
 11
56.2554
 21
-24.6033
  0
LINE
  8
0
 10
56.2554
 20
-24.6033
 11
54.2757
 21
-24.7798
  0
LINE
  8
0
 10
54.2757
 20
-24.7798
 11
52.2905
 21
-24.8779
  0
LINE
  8
0
 10
52.2905
 20
-24.8779
 11
51.3
 21
-24.8877
  0
LINE
  8
0
 10
51.3
 20
-24.8877
 11
51.3
 21
-0.475525
  0
LINE
  8
0
 10
38.3622
 20
-24.9245
 11
26.1378
 21
-0.475525
  0
LINE
  8
0
 10
26.1378
 20
-0.475525
 11
50.3955
 21
-0.475525
  0
LINE
  8
0
 10
50.3955
 20
-0.475525
 11
50.3955
 21
-24.9245
  0
LINE
  8
0
 10
50.3955
 20
-24.9245
 11
38.3622
 21
-24.9245
  0
LINE
  8
0
 10
76.7
 20
-0.475525
 11
93.924
 21
-0.475525
  0
LINE
  8
0
 10
93.924
 20
-0.475525
 11
93.5967
 21
-1.0298
  0
LINE
  8
0
 10
93.5967
 20
-1.0298
 11
92.5191
 21
-2.69992
  0
LINE
  8
0
 10
92.5191
 20
-2.69992
 11
91.3764
 21
-4.32617
  0
LINE
  8
0
 10
91.3764
 20
-4.32617
 11
90.1703
 21
-5.90599
  0
LINE
  8
0
 10
90.1703
 20
-5.90599
 11
88.9028
 21
-7.43695
  0
LINE
  8
0
 10
88.9028
 20
-7.43695
 11
87.5758
 21
-8.91663
  0
LINE
  8
0
 10
87.5758
 20
-8.91663
 11
86.1913
 21
-10.3427
  0
LINE
  8
0
 10
86.1913
 20
-10.3427
 11
84.7516
 21
-11.713
  0
LINE
  8
0
 10
84.7516
 20
-11.713
 11
83.2589
 21
-13.0253
  0
LINE
  8
0
 10
83.2589
 20
-13.0253
 11
81.7155
 21
-14.2777
  0
LINE
  8
0
 10
81.7155
 20
-14.2777
 11
80.1239
 21
-15.4681
  0
LINE
  8
0
 10
80.1239
 20
-15.4681
 11
78.4864
 21
-16.5947
  0
LINE
  8
0
 10
78.4864
 20
-16.5947
 11
76.8057
 21
-17.6557
  0
LINE
  8
0
 10
76.8057
 20
-17.6557
 11
76.7
 21
-17.7167
  0
LINE
  8
0
 10
76.7
 20
-17.7167
 11
76.7
 21
-0.475525
  0
LINE
  8
0
 10
76.7
 20
-50.3245
 11
76.7
 21
-18.8762
  0
LINE
  8
0
 10
76.7
 20
-18.8762
 11
78.1534
 21
-17.9991
  0
LINE
  8
0
 10
78.1534
 20
-17.9991
 11
79.8156
 21
-16.9058
  0
LINE
  8
0
 10
79.8156
 20
-16.9058
 11
81.4342
 21
-15.7489
  0
LINE
  8
0
 10
81.4342
 20
-15.7489
 11
83.0068
 21
-14.5301
  0
LINE
  8
0
 10
83.0068
 20
-14.5301
 11
84.5308
 21
-13.2513
  0
LINE
  8
0
 10
84.5308
 20
-13.2513
 11
86.0042
 21
-11.9143
  0
LINE
  8
0
 10
86.0042
 20
-11.9143
 11
87.4246
 21
-10.5211
  0
LINE
  8
0
 10
87.4246
 20
-10.5211
 11
88.7899
 21
-9.07399
  0
LINE
  8
0
 10
88.7899
 20
-9.07399
 11
90.0981
 21
-7.575
  0
LINE
  8
0
 10
90.0981
 20
-7.575
 11
91.3471
 21
-6.0264
  0
LINE
  8
0
 10
91.3471
 20
-6.0264
 11
92.5352
 21
-4.43054
  0
LINE
  8
0
 10
92.5352
 20
-4.43054
 11
93.6605
 21
-2.78979
  0
LINE
  8
0
 10
93.6605
 20
-2.78979
 11
94.7214
 21
-1.10667
  0
LINE
  8
0
 10
94.7214
 20
-1.10667
 11
94.7808
 21
-1.00365
  0
LINE
  8
0
 10
94.7808
 20
-1.00365
 11
95.5497
 21
-2.43155
  0
LINE
  8
0
 10
95.5497
 20
-2.43155
 11
96.4222
 21
-4.21738
  0
LINE
  8
0
 10
96.4222
 20
-4.21738
 11
97.2234
 21
-6.0363
  0
LINE
  8
0
 10
97.2234
 20
-6.0363
 11
97.9522
 21
-7.88545
  0
LINE
  8
0
 10
97.9522
 20
-7.88545
 11
98.6073
 21
-9.76195
  0
LINE
  8
0
 10
98.6073
 20
-9.76195
 11
99.1878
 21
-11.6629
  0
LINE
  8
0
 10
99.1878
 20
-11.6629
 11
99.6927
 21
-13.5852
  0
LINE
  8
0
 10
99.6927
 20
-13.5852
 11
100.121
 21
-15.526
  0
LINE
  8
0
 10
100.121
 20
-15.526
 11
100.473
 21
-17.4823
  0
LINE
  8
0
 10
100.473
 20
-17.4823
 11
100.747
 21
-19.4509
  0
LINE
  8
0
 10
100.747
 20
-19.4509
 11
100.943
 21
-21.4287
  0
LINE
  8
0
 10
100.943
 20
-21.4287
 11
101.061
 21
-23.4128
  0
LINE
  8
0
 10
101.061
 20
-23.4128
 11
101.1
 21
-25.4
  0
LINE
  8
0
 10
101.1
 20
-25.4
 11
101.195
 21
-25.4
  0
LINE
  8
0
 10
101.195
 20
-25.4
 11
101.195
 21
-50.3245
  0
LINE
  8
0
 10
101.195
 20
-50.3245
 11
76.7
 21
-50.3245
  0
LINE
  8
0
 10
-101.09
 20
-24.9245
 11
-101.09
 21
-24.4062
  0
LINE
  8
0
 10
-101.09
 20
-24.4062
 11
-101.012
 21
-22.4202
  0
LINE
  8
0
 10
-101.012
 20
-22.4202
 11
-100.855
 21
-20.4388
  0
LINE
  8
0
 10
-100.855
 20
-20.4388
 11
-100.62
 21
-18.4652
  0
LINE
  8
0
 10
-100.62
 20
-18.4652
 11
-100.307
 21
-16.5024
  0
LINE
  8
0
 10
-100.307
 20
-16.5024
 11
-99.9166
 21
-14.5535
  0
LINE
  8
0
 10
-99.9166
 20
-14.5535
 11
-99.4498
 21
-12.6216
  0
LINE
  8
0
 10
-99.4498
 20
-12.6216
 11
-98.907
 21
-10.7095
  0
LINE
  8
0
 10
-98.907
 20
-10.7095
 11
-98.289
 21
-8.82047
  0
LINE
  8
0
 10
-98.289
 20
-8.82047
 11
-97.597
 21
-6.95728
  0
LINE
  8
0
 10
-97.597
 20
-6.95728
 11
-96.8318
 21
-5.12288
  0
LINE
  8
0
 10
-96.8318
 20
-5.12288
 11
-95.9948
 21
-3.32016
  0
LINE
  8
0
 10
-95.9948
 20
-3.32016
 11
-95.0872
 21
-1.5519
  0
LINE
  8
0
 10
-95.0872
 20
-1.5519
 11
-94.7793
 21
-1.00624
  0
LINE
  8
0
 10
-94.7793
 20
-1.00624
 11
-94.7214
 21
-1.10667
  0
LINE
  8
0
 10
-94.7214
 20
-1.10667
 11
-93.6605
 21
-2.78979
  0
LINE
  8
0
 10
-93.6605
 20
-2.78979
 11
-92.5352
 21
-4.43054
  0
LINE
  8
0
 10
-92.5352
 20
-4.43054
 11
-91.3471
 21
-6.0264
  0
LINE
  8
0
 10
-91.3471
 20
-6.0264
 11
-90.0981
 21
-7.575
  0
LINE
  8
0
 10
-90.0981
 20
-7.575
 11
-88.7899
 21
-9.07399
  0
LINE
  8
0
 10
-88.7899
 20
-9.07399
 11
-87.4246
 21
-10.5211
  0
LINE
  8
0
 10
-87.4246
 20
-10.5211
 11
-86.0042
 21
-11.9143
  0
LINE
  8
0
 10
-86.0042
 20
-11.9143
 11
-84.5308
 21
-13.2513
  0
LINE
  8
0
 10
-84.5308
 20
-13.2513
 11
-83.7181
 21
-13.9332
  0
LINE
  8
0
 10
-83.7181
 20
-13.9332
 11
-89.2137
 21
-24.9245
  0
LINE
  8
0
 10
-89.2137
 20
-24.9245
 11
-101.09
 21
-24.9245
  0
LINE
  8
0
 10
-66.9096
 20
-22.2505
 11
-68.7795
 21
-21.5769
  0
LINE
  8
0
 10
-68.7795
 20
-21.5769
 11
-70.6214
 21
-20.8299
  0
LINE
  8
0
 10
-70.6214
 20
-20.8299
 11
-72.4323
 21
-20.0107
  0
LINE
  8
0
 10
-72.4323
 20
-20.0107
 11
-74.2094
 21
-19.1207
  0
LINE
  8
0
 10
-74.2094
 20
-19.1207
 11
-75.95
 21
-18.1611
  0
LINE
  8
0
 10
-75.95
 20
-18.1611
 11
-77.6513
 21
-17.1335
  0
LINE
  8
0
 10
-77.6513
 20
-17.1335
 11
-79.3107
 21
-16.0395
  0
LINE
  8
0
 10
-79.3107
 20
-16.0395
 11
-80.9256
 21
-14.8808
  0
LINE
  8
0
 10
-80.9256
 20
-14.8808
 11
-82.4934
 21
-13.6591
  0
LINE
  8
0
 10
-82.4934
 20
-13.6591
 11
-82.5188
 21
-13.6377
  0
LINE
  8
0
 10
-82.5188
 20
-13.6377
 11
-76.2257
 21
-1.05145
  0
LINE
  8
0
 10
-76.2257
 20
-1.05145
 11
-65.3852
 21
-22.7325
  0
LINE
  8
0
 10
-65.3852
 20
-22.7325
 11
-66.9096
 21
-22.2505
  0
LINE
  8
0
 10
13.4378
 20
-24.9245
 11
24.9955
 21
-1.80901
  0
LINE
  8
0
 10
24.9955
 20
-1.80901
 11
24.9955
 21
-24.9245
  0
LINE
  8
0
 10
24.9955
 20
-24.9245
 11
13.4378
 21
-24.9245
  0
LINE
  8
0
 10
-25.8045
 20
-1.80901
 11
-25.8045
 21
-24.9245
  0
LINE
  8
0
 10
-25.8045
 20
-24.9245
 11
-37.3622
 21
-24.9245
  0
LINE
  8
0
 10
-37.3622
 20
-24.9245
 11
-25.8045
 21
-1.80901
  0
LINE
  8
0
 10
75.7955
 20
-1.80901
 11
75.7955
 21
-18.2389
  0
LINE
  8
0
 10
75.7955
 20
-18.2389
 11
75.0844
 21
-18.6495
  0
LINE
  8
0
 10
75.0844
 20
-18.6495
 11
73.3252
 21
-19.5745
  0
LINE
  8
0
 10
73.3252
 20
-19.5745
 11
71.5309
 21
-20.4292
  0
LINE
  8
0
 10
71.5309
 20
-20.4292
 11
69.7041
 21
-21.2125
  0
LINE
  8
0
 10
69.7041
 20
-21.2125
 11
67.8479
 21
-21.9229
  0
LINE
  8
0
 10
67.8479
 20
-21.9229
 11
65.965
 21
-22.5595
  0
LINE
  8
0
 10
65.965
 20
-22.5595
 11
65.3261
 21
-22.7477
  0
LINE
  8
0
 10
65.3261
 20
-22.7477
 11
75.7955
 21
-1.80901
  0
LINE
  8
0
 10
25.9
 20
-24.9245
 11
25.9
 21
-2.10291
  0
LINE
  8
0
 10
25.9
 20
-2.10291
 11
37.3108
 21
-24.9245
  0
LINE
  8
0
 10
37.3108
 20
-24.9245
 11
25.9
 21
-24.9245
  0
LINE
  8
0
 10
-88.1622
 20
-24.9245
 11
-82.9767
 21
-14.5534
  0
LINE
  8
0
 10
-82.9767
 20
-14.5534
 11
-81.4342
 21
-15.7489
  0
LINE
  8
0
 10
-81.4342
 20
-15.7489
 11
-79.8156
 21
-16.9058
  0
LINE
  8
0
 10
-79.8156
 20
-16.9058
 11
-78.1534
 21
-17.9991
  0
LINE
  8
0
 10
-78.1534
 20
-17.9991
 11
-76.45
 21
-19.0271
  0
LINE
  8
0
 10
-76.45
 20
-19.0271
 11
-74.708
 21
-19.9883
  0
LINE
  8
0
 10
-74.708
 20
-19.9883
 11
-72.9301
 21
-20.8812
  0
LINE
  8
0
 10
-72.9301
 20
-20.8812
 11
-71.1189
 21
-21.7045
  0
LINE
  8
0
 10
-71.1189
 20
-21.7045
 11
-69.2771
 21
-22.4569
  0
LINE
  8
0
 10
-69.2771
 20
-22.4569
 11
-67.4075
 21
-23.1374
  0
LINE
  8
0
 10
-67.4075
 20
-23.1374
 11
-65.513
 21
-23.7449
  0
LINE
  8
0
 10
-65.513
 20
-23.7449
 11
-64.7765
 21
-23.9499
  0
LINE
  8
0
 10
-64.7765
 20
-23.9499
 11
-64.2892
 21
-24.9245
  0
LINE
  8
0
 10
-64.2892
 20
-24.9245
 11
-88.1622
 21
-24.9245
  0
LINE
  8
0
 10
51.5378
 20
-50.3245
 11
64.7167
 21
-23.9665
  0
LINE
  8
0
 10
64.7167
 20
-23.9665
 11
65.513
 21
-23.7449
  0
LINE
  8
0
 10
65.513
 20
-23.7449
 11
67.4075
 21
-23.1374
  0
LINE
  8
0
 10
67.4075
 20
-23.1374
 11
69.2771
 21
-22.4569
  0
LINE
  8
0
 10
69.2771
 20
-22.4569
 11
71.1189
 21
-21.7045
  0
LINE
  8
0
 10
71.1189
 20
-21.7045
 11
72.9301
 21
-20.8812
  0
LINE
  8
0
 10
72.9301
 20
-20.8812
 11
74.708
 21
-19.9883
  0
LINE
  8
0
 10
74.708
 20
-19.9883
 11
75.7955
 21
-19.3882
  0
LINE
  8
0
 10
75.7955
 20
-19.3882
 11
75.7955
 21
-50.3245
  0
LINE
  8
0
 10
75.7955
 20
-50.3245
 11
51.5378
 21
-50.3245
  0
LINE
  8
0
 10
-63.2378
 20
-24.9245
 11
-63.556
 21
-24.2879
  0
LINE
  8
0
 10
-63.556
 20
-24.2879
 11
-61.6604
 21
-24.7372
  0
LINE
  8
0
 10
-61.6604
 20
-24.7372
 11
-60.707
 21
-24.9245
  0
LINE
  8
0
 10
-60.707
 20
-24.9245
 11
-63.2378
 21
-24.9245
  0
LINE
  8
0
 10
51.3
 20
-25.8904
 11
51.7948
 21
-25.8904
  0
LINE
  8
0
 10
51.7948
 20
-25.8904
 11
53.7828
 21
-25.8132
  0
LINE
  8
0
 10
53.7828
 20
-25.8132
 11
55.7664
 21
-25.659
  0
LINE
  8
0
 10
55.7664
 20
-25.659
 11
57.7425
 21
-25.4281
  0
LINE
  8
0
 10
57.7425
 20
-25.4281
 11
59.7081
 21
-25.1206
  0
LINE
  8
0
 10
59.7081
 20
-25.1206
 11
61.6604
 21
-24.7372
  0
LINE
  8
0
 10
61.6604
 20
-24.7372
 11
63.4977
 21
-24.3018
  0
LINE
  8
0
 10
63.4977
 20
-24.3018
 11
51.3
 21
-48.6971
  0
LINE
  8
0
 10
51.3
 20
-48.6971
 11
51.3
 21
-25.8904
  0
LINE
  8
0
 10
-101.1
 20
-25.8755
 11
-89.6892
 21
-25.8755
  0
LINE
  8
0
 10
-89.6892
 20
-25.8755
 11
-101.1
 21
-48.6971
  0
LINE
  8
0
 10
-101.1
 20
-48.6971
 11
-101.1
 21
-25.8755
  0
LINE
  8
0
 10
-50.3
 20
-25.8755
 11
-38.8892
 21
-25.8755
  0
LINE
  8
0
 10
-38.8892
 20
-25.8755
 11
-50.3
 21
-48.6971
  0
LINE
  8
0
 10
-50.3
 20
-48.6971
 11
-50.3
 21
-25.8755
  0
LINE
  8
0
 10
-62.7622
 20
-25.8755
 11
-52.1768
 21
-25.8755
  0
LINE
  8
0
 10
-52.1768
 20
-25.8755
 11
-51.7948
 21
-25.8904
  0
LINE
  8
0
 10
-51.7948
 20
-25.8904
 11
-51.2045
 21
-25.8904
  0
LINE
  8
0
 10
-51.2045
 20
-25.8904
 11
-51.2045
 21
-48.991
  0
LINE
  8
0
 10
-51.2045
 20
-48.991
 11
-62.7622
 21
-25.8755
  0
LINE
  8
0
 10
38.8378
 20
-25.8755
 11
50.3955
 21
-25.8755
  0
LINE
  8
0
 10
50.3955
 20
-25.8755
 11
50.3955
 21
-48.991
  0
LINE
  8
0
 10
50.3955
 20
-48.991
 11
38.8378
 21
-25.8755
  0
LINE
  8
0
 10
-11.9622
 20
-25.8755
 11
11.9108
 21
-25.8755
  0
LINE
  8
0
 10
11.9108
 20
-25.8755
 11
-0.0257263
 21
-49.7485
  0
LINE
  8
0
 10
-0.0257263
 20
-49.7485
 11
-11.9622
 21
-25.8755
  0
LINE
  8
0
 10
25.9
 20
-50.3245
 11
25.9
 21
-25.8755
  0
LINE
  8
0
 10
25.9
 20
-25.8755
 11
37.7863
 21
-25.8755
  0
LINE
  8
0
 10
37.7863
 20
-25.8755
 11
50.0108
 21
-50.3245
  0
LINE
  8
0
 10
50.0108
 20
-50.3245
 11
25.9
 21
-50.3245
  0
LINE
  8
0
 10
-50.0622
 20
-50.3245
 11
-37.8378
 21
-25.8755
  0
LINE
  8
0
 10
-37.8378
 20
-25.8755
 11
-25.8045
 21
-25.8755
  0
LINE
  8
0
 10
-25.8045
 20
-25.8755
 11
-25.8045
 21
-50.3245
  0
LINE
  8
0
 10
-25.8045
 20
-50.3245
 11
-50.0622
 21
-50.3245
  0
LINE
  8
0
 10
0.737762
 20
-50.3245
 11
12.9622
 21
-25.8755
  0
LINE
  8
0
 10
12.9622
 20
-25.8755
 11
24.9955
 21
-25.8755
  0
LINE
  8
0
 10
24.9955
 20
-25.8755
 11
24.9955
 21
-50.3245
  0
LINE
  8
0
 10
24.9955
 20
-50.3245
 11
0.737762
 21
-50.3245
  0
LINE
  8
0
 10
-24.9
 20
-50.3245
 11
-24.9
 21
-25.8755
  0
LINE
  8
0
 10
-24.9
 20
-25.8755
 11
-13.0137
 21
-25.8755
  0
LINE
  8
0
 10
-13.0137
 20
-25.8755
 11
-0.789215
 21
-50.3245
  0
LINE
  8
0
 10
-0.789215
 20
-50.3245
 11
-24.9
 21
-50.3245
  0
LINE
  8
0
 10
-101.1
 20
-75.7245
 11
-101.1
 21
-50.8
  0
LINE
  8
0
 10
-101.1
 20
-50.8
 11
-88.6378
 21
-25.8755
  0
LINE
  8
0
 10
-88.6378
 20
-25.8755
 11
-63.8137
 21
-25.8755
  0
LINE
  8
0
 10
-63.8137
 20
-25.8755
 11
-51.3515
 21
-50.8
  0
LINE
  8
0
 10
-51.3515
 20
-50.8
 11
-63.8137
 21
-75.7245
  0
LINE
  8
0
 10
-63.8137
 20
-75.7245
 11
-101.1
 21
-75.7245
  0
LINE
  8
0
 10
-24.9
 20
-51.2755
 11
-0.789215
 21
-51.2755
  0
LINE
  8
0
 10
-0.789215
 20
-51.2755
 11
-24.9
 21
-99.4971
  0
LINE
  8
0
 10
-24.9
 20
-99.4971
 11
-24.9
 21
-51.2755
  0
LINE
  8
0
 10
63.7622
 20
-75.7245
 11
51.5378
 21
-51.2755
  0
LINE
  8
0
 10
51.5378
 20
-51.2755
 11
101.195
 21
-51.2755
  0
LINE
  8
0
 10
101.195
 20
-51.2755
 11
101.195
 21
-75.7245
  0
LINE
  8
0
 10
101.195
 20
-75.7245
 11
63.7622
 21
-75.7245
  0
LINE
  8
0
 10
25.9
 20
-51.2755
 11
50.0108
 21
-51.2755
  0
LINE
  8
0
 10
50.0108
 20
-51.2755
 11
25.9
 21
-99.4971
  0
LINE
  8
0
 10
25.9
 20
-99.4971
 11
25.9
 21
-51.2755
  0
LINE
  8
0
 10
-50.0622
 20
-51.2755
 11
-25.8045
 21
-51.2755
  0
LINE
  8
0
 10
-25.8045
 20
-51.2755
 11
-25.8045
 21
-99.791
  0
LINE
  8
0
 10
-25.8045
 20
-99.791
 11
-50.0622
 21
-51.2755
  0
LINE
  8
0
 10
0.737762
 20
-51.2755
 11
24.9955
 21
-51.2755
  0
LINE
  8
0
 10
24.9955
 20
-51.2755
 11
24.9955
 21
-99.791
  0
LINE
  8
0
 10
24.9955
 20
-99.791
 11
0.737762
 21
-51.2755
  0
LINE
  8
0
 10
-50.3
 20
-52.9029
 11
-26.1892
 21
-101.124
  0
LINE
  8
0
 10
-26.1892
 20
-101.124
 11
-50.3
 21
-101.124
  0
LINE
  8
0
 10
-50.3
 20
-101.124
 11
-50.3
 21
-52.9029
  0
LINE
  8
0
 10
-62.7622
 20
-75.7245
 11
-51.2045
 21
-52.609
  0
LINE
  8
0
 10
-51.2045
 20
-52.609
 11
-51.2045
 21
-75.7245
  0
LINE
  8
0
 10
-51.2045
 20
-75.7245
 11
-62.7622
 21
-75.7245
  0
LINE
  8
0
 10
26.1378
 20
-101.124
 11
50.3955
 21
-52.609
  0
LINE
  8
0
 10
50.3955
 20
-52.609
 11
50.3955
 21
-101.124
  0
LINE
  8
0
 10
50.3955
 20
-101.124
 11
26.1378
 21
-101.124
  0
LINE
  8
0
 10
51.3
 20
-75.7245
 11
51.3
 21
-52.9029
  0
LINE
  8
0
 10
51.3
 20
-52.9029
 11
62.7108
 21
-75.7245
  0
LINE
  8
0
 10
62.7108
 20
-75.7245
 11
51.3
 21
-75.7245
  0
LINE
  8
0
 10
76.4622
 20
-101.124
 11
64.2378
 21
-76.6755
  0
LINE
  8
0
 10
64.2378
 20
-76.6755
 11
101.195
 21
-76.6755
  0
LINE
  8
0
 10
101.195
 20
-76.6755
 11
101.195
 21
-101.124
  0
LINE
  8
0
 10
101.195
 20
-101.124
 11
76.4622
 21
-101.124
  0
LINE
  8
0
 10
-101.1
 20
-101.124
 11
-101.1
 21
-76.6755
  0
LINE
  8
0
 10
-101.1
 20
-76.6755
 11
-64.2892
 21
-76.6755
  0
LINE
  8
0
 10
-64.2892
 20
-76.6755
 11
-76.5137
 21
-101.124
  0
LINE
  8
0
 10
-76.5137
 20
-101.124
 11
-101.1
 21
-101.124
  0
LINE
  8
0
 10
-75.4622
 20
-101.124
 11
-63.2378
 21
-76.6755
  0
LINE
  8
0
 10
-63.2378
 20
-76.6755
 11
-51.2045
 21
-76.6755
  0
LINE
  8
0
 10
-51.2045
 20
-76.6755
 11
-51.2045
 21
-101.124
  0
LINE
  8
0
 10
-51.2045
 20
-101.124
 11
-75.4622
 21
-101.124
  0
LINE
  8
0
 10
51.3
 20
-101.124
 11
51.3
 21
-76.6755
  0
LINE
  8
0
 10
51.3
 20
-76.6755
 11
63.1863
 21
-76.6755
  0
LINE
  8
0
 10
63.1863
 20
-76.6755
 11
75.4108
 21
-101.124
  0
LINE
  8
0
 10
75.4108
 20
-101.124
 11
51.3
 21
-101.124
  0
LINE
  8
0
 10
76.9378
 20
-102.076
 11
101.091
 21
-102.076
  0
LINE
  8
0
 10
101.091
 20
-102.076
 11
101.061
 21
-103.587
  0
LINE
  8
0
 10
101.061
 20
-103.587
 11
100.943
 21
-105.571
  0
LINE
  8
0
 10
100.943
 20
-105.571
 11
100.747
 21
-107.549
  0
LINE
  8
0
 10
100.747
 20
-107.549
 11
100.473
 21
-109.518
  0
LINE
  8
0
 10
100.473
 20
-109.518
 11
100.121
 21
-111.474
  0
LINE
  8
0
 10
100.121
 20
-111.474
 11
99.6927
 21
-113.415
  0
LINE
  8
0
 10
99.6927
 20
-113.415
 11
99.1878
 21
-115.337
  0
LINE
  8
0
 10
99.1878
 20
-115.337
 11
98.6073
 21
-117.238
  0
LINE
  8
0
 10
98.6073
 20
-117.238
 11
97.9522
 21
-119.115
  0
LINE
  8
0
 10
97.9522
 20
-119.115
 11
97.2234
 21
-120.964
  0
LINE
  8
0
 10
97.2234
 20
-120.964
 11
96.4222
 21
-122.783
  0
LINE
  8
0
 10
96.4222
 20
-122.783
 11
95.5497
 21
-124.568
  0
LINE
  8
0
 10
95.5497
 20
-124.568
 11
94.6074
 21
-126.318
  0
LINE
  8
0
 10
94.6074
 20
-126.318
 11
93.5967
 21
-128.03
  0
LINE
  8
0
 10
93.5967
 20
-128.03
 11
92.5191
 21
-129.7
  0
LINE
  8
0
 10
92.5191
 20
-129.7
 11
91.4855
 21
-131.171
  0
LINE
  8
0
 10
91.4855
 20
-131.171
 11
76.9378
 21
-102.076
  0
LINE
  8
0
 10
26.1378
 20
-102.076
 11
50.3955
 21
-102.076
  0
LINE
  8
0
 10
50.3955
 20
-102.076
 11
50.3955
 21
-150.591
  0
LINE
  8
0
 10
50.3955
 20
-150.591
 11
26.1378
 21
-102.076
  0
LINE
  8
0
 10
-53.2836
 20
-151.839
 11
-55.2664
 21
-151.701
  0
LINE
  8
0
 10
-55.2664
 20
-151.701
 11
-57.2423
 21
-151.486
  0
LINE
  8
0
 10
-57.2423
 20
-151.486
 11
-59.2081
 21
-151.192
  0
LINE
  8
0
 10
-59.2081
 20
-151.192
 11
-61.1607
 21
-150.821
  0
LINE
  8
0
 10
-61.1607
 20
-150.821
 11
-63.0972
 21
-150.374
  0
LINE
  8
0
 10
-63.0972
 20
-150.374
 11
-65.0145
 21
-149.85
  0
LINE
  8
0
 10
-65.0145
 20
-149.85
 11
-66.9096
 21
-149.251
  0
LINE
  8
0
 10
-66.9096
 20
-149.251
 11
-68.7795
 21
-148.577
  0
LINE
  8
0
 10
-68.7795
 20
-148.577
 11
-70.6214
 21
-147.83
  0
LINE
  8
0
 10
-70.6214
 20
-147.83
 11
-72.4323
 21
-147.011
  0
LINE
  8
0
 10
-72.4323
 20
-147.011
 11
-74.2094
 21
-146.121
  0
LINE
  8
0
 10
-74.2094
 20
-146.121
 11
-75.95
 21
-145.161
  0
LINE
  8
0
 10
-75.95
 20
-145.161
 11
-77.6513
 21
-144.133
  0
LINE
  8
0
 10
-77.6513
 20
-144.133
 11
-79.3107
 21
-143.039
  0
LINE
  8
0
 10
-79.3107
 20
-143.039
 11
-80.9256
 21
-141.881
  0
LINE
  8
0
 10
-80.9256
 20
-141.881
 11
-82.4934
 21
-140.659
  0
LINE
  8
0
 10
-82.4934
 20
-140.659
 11
-84.0118
 21
-139.377
  0
LINE
  8
0
 10
-84.0118
 20
-139.377
 11
-85.4783
 21
-138.035
  0
LINE
  8
0
 10
-85.4783
 20
-138.035
 11
-86.8906
 21
-136.637
  0
LINE
  8
0
 10
-86.8906
 20
-136.637
 11
-88.2466
 21
-135.183
  0
LINE
  8
0
 10
-88.2466
 20
-135.183
 11
-89.5441
 21
-133.678
  0
LINE
  8
0
 10
-89.5441
 20
-133.678
 11
-90.7812
 21
-132.122
  0
LINE
  8
0
 10
-90.7812
 20
-132.122
 11
-90.8881
 21
-131.976
  0
LINE
  8
0
 10
-90.8881
 20
-131.976
 11
-75.9378
 21
-102.076
  0
LINE
  8
0
 10
-75.9378
 20
-102.076
 11
-51.2045
 21
-102.076
  0
LINE
  8
0
 10
-51.2045
 20
-102.076
 11
-51.2045
 21
-151.897
  0
LINE
  8
0
 10
-51.2045
 20
-151.897
 11
-51.2969
 21
-151.898
  0
LINE
  8
0
 10
-51.2969
 20
-151.898
 11
-53.2836
 21
-151.839
  0
LINE
  8
0
 10
-24.6622
 20
-102.076
 11
24.6108
 21
-102.076
  0
LINE
  8
0
 10
24.6108
 20
-102.076
 11
-0.0257263
 21
-151.349
  0
LINE
  8
0
 10
-0.0257263
 20
-151.349
 11
-24.6622
 21
-102.076
  0
LINE
  8
0
 10
-91.9558
 20
-130.519
 11
-93.0661
 21
-128.87
  0
LINE
  8
0
 10
-93.0661
 20
-128.87
 11
-94.1105
 21
-127.179
  0
LINE
  8
0
 10
-94.1105
 20
-127.179
 11
-95.0872
 21
-125.448
  0
LINE
  8
0
 10
-95.0872
 20
-125.448
 11
-95.9948
 21
-123.68
  0
LINE
  8
0
 10
-95.9948
 20
-123.68
 11
-96.8318
 21
-121.877
  0
LINE
  8
0
 10
-96.8318
 20
-121.877
 11
-97.597
 21
-120.043
  0
LINE
  8
0
 10
-97.597
 20
-120.043
 11
-98.289
 21
-118.18
  0
LINE
  8
0
 10
-98.289
 20
-118.18
 11
-98.907
 21
-116.29
  0
LINE
  8
0
 10
-98.907
 20
-116.29
 11
-99.4498
 21
-114.378
  0
LINE
  8
0
 10
-99.4498
 20
-114.378
 11
-99.9166
 21
-112.446
  0
LINE
  8
0
 10
-99.9166
 20
-112.446
 11
-100.307
 21
-110.498
  0
LINE
  8
0
 10
-100.307
 20
-110.498
 11
-100.62
 21
-108.535
  0
LINE
  8
0
 10
-100.62
 20
-108.535
 11
-100.855
 21
-106.561
  0
LINE
  8
0
 10
-100.855
 20
-106.561
 11
-101.012
 21
-104.58
  0
LINE
  8
0
 10
-101.012
 20
-104.58
 11
-101.09
 21
-102.594
  0
LINE
  8
0
 10
-101.09
 20
-102.594
 11
-101.09
 21
-102.076
  0
LINE
  8
0
 10
-101.09
 20
-102.076
 11
-76.9892
 21
-102.076
  0
LINE
  8
0
 10
-76.9892
 20
-102.076
 11
-91.513
 21
-131.123
  0
LINE
  8
0
 10
-91.513
 20
-131.123
 11
-91.9558
 21
-130.519
  0
LINE
  8
0
 10
-50.3
 20
-102.076
 11
-26.1892
 21
-102.076
  0
LINE
  8
0
 10
-26.1892
 20
-102.076
 11
-50.3
 21
-150.297
  0
LINE
  8
0
 10
-50.3
 20
-150.297
 11
-50.3
 21
-102.076
  0
LINE
  8
0
 10
51.3
 20
-102.076
 11
75.8863
 21
-102.076
  0
LINE
  8
0
 10
75.8863
 20
-102.076
 11
90.8539
 21
-132.011
  0
LINE
  8
0
 10
90.8539
 20
-132.011
 11
90.1703
 21
-132.906
  0
LINE
  8
0
 10
90.1703
 20
-132.906
 11
88.9028
 21
-134.437
  0
LINE
  8
0
 10
88.9028
 20
-134.437
 11
87.5758
 21
-135.917
  0
LINE
  8
0
 10
87.5758
 20
-135.917
 11
86.1913
 21
-137.343
  0
LINE
  8
0
 10
86.1913
 20
-137.343
 11
84.7516
 21
-138.713
  0
LINE
  8
0
 10
84.7516
 20
-138.713
 11
83.2589
 21
-140.025
  0
LINE
  8
0
 10
83.2589
 20
-140.025
 11
81.7155
 21
-141.278
  0
LINE
  8
0
 10
81.7155
 20
-141.278
 11
80.1239
 21
-142.468
  0
LINE
  8
0
 10
80.1239
 20
-142.468
 11
78.4864
 21
-143.595
  0
LINE
  8
0
 10
78.4864
 20
-143.595
 11
76.8057
 21
-144.656
  0
LINE
  8
0
 10
76.8057
 20
-144.656
 11
75.0844
 21
-145.649
  0
LINE
  8
0
 10
75.0844
 20
-145.649
 11
73.3252
 21
-146.574
  0
LINE
  8
0
 10
73.3252
 20
-146.574
 11
71.5309
 21
-147.429
  0
LINE
  8
0
 10
71.5309
 20
-147.429
 11
69.7041
 21
-148.212
  0
LINE
  8
0
 10
69.7041
 20
-148.212
 11
67.8479
 21
-148.923
  0
LINE
  8
0
 10
67.8479
 20
-148.923
 11
65.965
 21
-149.559
  0
LINE
  8
0
 10
65.965
 20
-149.559
 11
64.0584
 21
-150.121
  0
LINE
  8
0
 10
64.0584
 20
-150.121
 11
62.1312
 21
-150.607
  0
LINE
  8
0
 10
62.1312
 20
-150.607
 11
60.1862
 21
-151.016
  0
LINE
  8
0
 10
60.1862
 20
-151.016
 11
58.2266
 21
-151.349
  0
LINE
  8
0
 10
58.2266
 20
-151.349
 11
56.2554
 21
-151.603
  0
LINE
  8
0
 10
56.2554
 20
-151.603
 11
54.2757
 21
-151.78
  0
LINE
  8
0
 10
54.2757
 20
-151.78
 11
52.2905
 21
-151.878
  0
LINE
  8
0
 10
52.2905
 20
-151.878
 11
51.3
 21
-151.888
  0
LINE
  8
0
 10
51.3
 20
-151.888
 11
51.3
 21
-102.076
  0
LINE
  8
0
 10
0.737762
 20
-151.924
 11
24.9955
 21
-103.409
  0
LINE
  8
0
 10
24.9955
 20
-103.409
 11
24.9955
 21
-151.924
  0
LINE
  8
0
 10
24.9955
 20
-151.924
 11
0.737762
 21
-151.924
  0
LINE
  8
0
 10
-50.0622
 20
-151.924
 11
-25.8045
 21
-103.409
  0
LINE
  8
0
 10
-25.8045
 20
-103.409
 11
-25.8045
 21
-151.924
  0
LINE
  8
0
 10
-25.8045
 20
-151.924
 11
-50.0622
 21
-151.924
  0
LINE
  8
0
 10
25.9
 20
-151.924
 11
25.9
 21
-103.703
  0
LINE
  8
0
 10
25.9
 20
-103.703
 11
50.0108
 21
-151.924
  0
LINE
  8
0
 10
50.0108
 20
-151.924
 11
25.9
 21
-151.924
  0
LINE
  8
0
 10
-24.9
 20
-151.924
 11
-24.9
 21
-103.703
  0
LINE
  8
0
 10
-24.9
 20
-103.703
 11
-0.789215
 21
-151.924
  0
LINE
  8
0
 10
-0.789215
 20
-151.924
 11
-24.9
 21
-151.924
  0
LINE
  8
0
 10
91.9849
 20
-132.17
 11
92.5352
 21
-131.431
  0
LINE
  8
0
 10
92.5352
 20
-131.431
 11
93.6605
 21
-129.79
  0
LINE
  8
0
 10
93.6605
 20
-129.79
 11
94.7214
 21
-128.107
  0
LINE
  8
0
 10
94.7214
 20
-128.107
 11
95.7161
 21
-126.384
  0
LINE
  8
0
 10
95.7161
 20
-126.384
 11
96.6434
 21
-124.623
  0
LINE
  8
0
 10
96.6434
 20
-124.623
 11
97.5016
 21
-122.828
  0
LINE
  8
0
 10
97.5016
 20
-122.828
 11
98.2896
 21
-121.002
  0
LINE
  8
0
 10
98.2896
 20
-121.002
 11
99.0062
 21
-119.146
  0
LINE
  8
0
 10
99.0062
 20
-119.146
 11
99.6503
 21
-117.263
  0
LINE
  8
0
 10
99.6503
 20
-117.263
 11
100.221
 21
-115.357
  0
LINE
  8
0
 10
100.221
 20
-115.357
 11
100.717
 21
-113.431
  0
LINE
  8
0
 10
100.717
 20
-113.431
 11
101.138
 21
-111.486
  0
LINE
  8
0
 10
101.138
 20
-111.486
 11
101.195
 21
-111.162
  0
LINE
  8
0
 10
101.195
 20
-111.162
 11
101.195
 21
-150.591
  0
LINE
  8
0
 10
101.195
 20
-150.591
 11
91.9849
 21
-132.17
  0
LINE
  8
0
 10
-101.1
 20
-111.663
 11
-100.717
 21
-113.431
  0
LINE
  8
0
 10
-100.717
 20
-113.431
 11
-100.221
 21
-115.357
  0
LINE
  8
0
 10
-100.221
 20
-115.357
 11
-99.6503
 21
-117.263
  0
LINE
  8
0
 10
-99.6503
 20
-117.263
 11
-99.0062
 21
-119.146
  0
LINE
  8
0
 10
-99.0062
 20
-119.146
 11
-98.2896
 21
-121.002
  0
LINE
  8
0
 10
-98.2896
 20
-121.002
 11
-97.5016
 21
-122.828
  0
LINE
  8
0
 10
-97.5016
 20
-122.828
 11
-96.6434
 21
-124.623
  0
LINE
  8
0
 10
-96.6434
 20
-124.623
 11
-95.7161
 21
-126.384
  0
LINE
  8
0
 10
-95.7161
 20
-126.384
 11
-94.7214
 21
-128.107
  0
LINE
  8
0
 10
-94.7214
 20
-128.107
 11
-93.6605
 21
-129.79
  0
LINE
  8
0
 10
-93.6605
 20
-129.79
 11
-92.5352
 21
-131.431
  0
LINE
  8
0
 10
-92.5352
 20
-131.431
 11
-92.0157
 21
-132.128
  0
LINE
  8
0
 10
-92.0157
 20
-132.128
 11
-101.1
 21
-150.297
  0
LINE
  8
0
 10
-101.1
 20
-150.297
 11
-101.1
 21
-111.663
  0
LINE
  8
0
 10
-100.862
 20
-151.924
 11
-91.3867
 21
-132.973
  0
LINE
  8
0
 10
-91.3867
 20
-132.973
 11
-91.3471
 21
-133.026
  0
LINE
  8
0
 10
-91.3471
 20
-133.026
 11
-90.0981
 21
-134.575
  0
LINE
  8
0
 10
-90.0981
 20
-134.575
 11
-88.7899
 21
-136.074
  0
LINE
  8
0
 10
-88.7899
 20
-136.074
 11
-87.4246
 21
-137.521
  0
LINE
  8
0
 10
-87.4246
 20
-137.521
 11
-86.0042
 21
-138.914
  0
LINE
  8
0
 10
-86.0042
 20
-138.914
 11
-84.5308
 21
-140.251
  0
LINE
  8
0
 10
-84.5308
 20
-140.251
 11
-83.0068
 21
-141.53
  0
LINE
  8
0
 10
-83.0068
 20
-141.53
 11
-81.4342
 21
-142.749
  0
LINE
  8
0
 10
-81.4342
 20
-142.749
 11
-79.8156
 21
-143.906
  0
LINE
  8
0
 10
-79.8156
 20
-143.906
 11
-78.1534
 21
-144.999
  0
LINE
  8
0
 10
-78.1534
 20
-144.999
 11
-76.45
 21
-146.027
  0
LINE
  8
0
 10
-76.45
 20
-146.027
 11
-74.708
 21
-146.988
  0
LINE
  8
0
 10
-74.708
 20
-146.988
 11
-72.9301
 21
-147.881
  0
LINE
  8
0
 10
-72.9301
 20
-147.881
 11
-71.1189
 21
-148.704
  0
LINE
  8
0
 10
-71.1189
 20
-148.704
 11
-69.2771
 21
-149.457
  0
LINE
  8
0
 10
-69.2771
 20
-149.457
 11
-67.4075
 21
-150.137
  0
LINE
  8
0
 10
-67.4075
 20
-150.137
 11
-65.513
 21
-150.745
  0
LINE
  8
0
 10
-65.513
 20
-150.745
 11
-63.5963
 21
-151.278
  0
LINE
  8
0
 10
-63.5963
 20
-151.278
 11
-61.6604
 21
-151.737
  0
LINE
  8
0
 10
-61.6604
 20
-151.737
 11
-60.707
 21
-151.924
  0
LINE
  8
0
 10
-60.707
 20
-151.924
 11
-100.862
 21
-151.924
  0
LINE
  8
0
 10
60.707
 20
-151.924
 11
61.6604
 21
-151.737
  0
LINE
  8
0
 10
61.6604
 20
-151.737
 11
63.5963
 21
-151.278
  0
LINE
  8
0
 10
63.5963
 20
-151.278
 11
65.513
 21
-150.745
  0
LINE
  8
0
 10
65.513
 20
-150.745
 11
67.4075
 21
-150.137
  0
LINE
  8
0
 10
67.4075
 20
-150.137
 11
69.2771
 21
-149.457
  0
LINE
  8
0
 10
69.2771
 20
-149.457
 11
71.1189
 21
-148.704
  0
LINE
  8
0
 10
71.1189
 20
-148.704
 11
72.9301
 21
-147.881
  0
LINE
  8
0
 10
72.9301
 20
-147.881
 11
74.708
 21
-146.988
  0
LINE
  8
0
 10
74.708
 20
-146.988
 11
76.45
 21
-146.027
  0
LINE
  8
0
 10
76.45
 20
-146.027
 11
78.1534
 21
-144.999
  0
LINE
  8
0
 10
78.1534
 20
-144.999
 11
79.8156
 21
-143.906
  0
LINE
  8
0
 10
79.8156
 20
-143.906
 11
81.4342
 21
-142.749
  0
LINE
  8
0
 10
81.4342
 20
-142.749
 11
83.0068
 21
-141.53
  0
LINE
  8
0
 10
83.0068
 20
-141.53
 11
84.5308
 21
-140.251
  0
LINE
  8
0
 10
84.5308
 20
-140.251
 11
86.0042
 21
-138.914
  0
LINE
  8
0
 10
86.0042
 20
-138.914
 11
87.4246
 21
-137.521
  0
LINE
  8
0
 10
87.4246
 20
-137.521
 11
88.7899
 21
-136.074
  0
LINE
  8
0
 10
88.7899
 20
-136.074
 11
90.0981
 21
-134.575
  0
LINE
  8
0
 10
90.0981
 20
-134.575
 11
91.3471
 21
-133.026
  0
LINE
  8
0
 10
91.3471
 20
-133.026
 11
91.3559
 21
-133.015
  0
LINE
  8
0
 10
91.3559
 20
-133.015
 11
100.811
 21
-151.924
  0
LINE
  8
0
 10
100.811
 20
-151.924
 11
60.707
 21
-151.924
  0
LINE
  8
0
 10
24.9955
 20
151.924
 11
24.9955
 21
102.076
  0
LINE
  8
0
 10
24.9955
 20
102.076
 11
-24.6622
 21
102.076
  0
LINE
  8
0
 10
-24.6622
 20
102.076
 11
0.262222
 21
151.924
  0
LINE
  8
0
 10
0.262222
 20
151.924
 11
24.9955
 21
151.924
  0
LINE
  8
0
 10
-0.789215
 20
50.3245
 11
-13.0137
 21
25.8755
  0
LINE
  8
0
 10
-13.0137
 20
25.8755
 11
-24.9
 21
25.8755
  0
LINE
  8
0
 10
-24.9
 20
25.8755
 11
-24.9
 21
50.3245
  0
LINE
  8
0
 10
-24.9
 20
50.3245
 11
-0.789215
 21
50.3245
  0
LINE
  8
0
 10
12.3863
 20
24.9245
 11
24.6108
 21
0.475525
  0
LINE
  8
0
 10
24.6108
 20
0.475525
 11
-24.6622
 21
0.475525
  0
LINE
  8
0
 10
-24.6622
 20
0.475525
 11
-12.4378
 21
24.9245
  0
LINE
  8
0
 10
-12.4378
 20
24.9245
 11
12.3863
 21
24.9245
  0
LINE
  8
0
 10
-13.4892
 20
-24.9245
 11
-24.9
 21
-24.9245
  0
LINE
  8
0
 10
-24.9
 20
-24.9245
 11
-24.9
 21
-2.10291
  0
LINE
  8
0
 10
-24.9
 20
-2.10291
 11
-13.4892
 21
-24.9245
  0
LINE
  8
0
 10
24.6108
 20
-101.124
 11
-24.6622
 21
-101.124
  0
LINE
  8
0
 10
-24.6622
 20
-101.124
 11
-0.0257263
 21
-51.8515
  0
LINE
  8
0
 10
-0.0257263
 20
-51.8515
 11
24.6108
 21
-101.124
  0
ENDSEC
  0
SECTION
  2
OBJECTS
  0
DICTIONARY
  0
ENDSEC
  0
EOF
