<?xml version="1.0"?>
<!DOCTYPE svg PUBLIC "-//W3C//DTD SVG 1.1//EN" "http://www.w3.org/Graphics/SVG/1.1/DTD/svg11.dtd">
<svg width="68.00000000000001mm" height="101.33333333333334mm" viewBox="0 0 68.00000000000001 101.33333333333334" xmlns="http://www.w3.org/2000/svg" version="1.1">
<g id="Sketch" transform="translate(34.000000,50.666667) scale(1,-1)">
<path id="Sketch_w0000"  d="M -16.666666666666668 49.99999999999999 L -16.666666666666668 -49.99999999999999 L 33.33333333333333 50.00000000000001 L -33.33333333333333 50.00000000000001 L 16.666666666666668 -49.99999999999999 L 16.66666666666667 49.999999999999986 L -33.33333333333333 -49.99999999999999 L 33.33333333333333 -49.99999999999999 L -16.666666666666735 49.99999999999996 A 16.6667 16.6667 0 0 1 -33.3333 33.3333L 33.33333333333333 33.33333333333336 A 16.6667 16.6667 0 0 1 16.6667 50M 16.666666666666668 -49.999999999999986 A 16.6667 16.6667 0 0 1 33.3333 -33.3333L -33.33333333333333 -33.333333333333336 A 16.6667 16.6667 0 0 1 -16.6667 -50M -33.33333333333333 50.00000000000001 L -33.33333333333333 -49.99999999999999 M 33.33333333333333 -49.99999999999999 L 33.33333333333333 50.00000000000001 " stroke="#000000" stroke-width="0.35 px" style="stroke-width:0.35;stroke-miterlimit:4;stroke-dasharray:none;fill:none;fill-rule: evenodd "/>
<path id="Sketch_w0001"  d="M 8.333333333333334 49.99999999999999 L 8.333333333333334 -49.99999999999999 " stroke="#000000" stroke-width="0.35 px" style="stroke-width:0.35;stroke-miterlimit:4;stroke-dasharray:none;fill:none;fill-rule: evenodd "/>
<path id="Sketch_w0002"  d="M -33.33333333333333 16.666666666666664 L 33.33333333333333 16.666666666666664 L 1.2555634240350361e-42 -49.99999999999999 L -33.33333333333333 16.666666666666664 " stroke="#000000" stroke-width="0.35 px" style="stroke-width:0.35;stroke-miterlimit:4;stroke-dasharray:none;fill:none;fill-rule: evenodd "/>
<path id="Sketch_w0003"  d="M -8.333333333333334 -49.99999999999999 L -8.333333333333336 49.999999999999986 A 16.6667 16.6667 0 0 0 -25 33.3333" stroke="#000000" stroke-width="0.35 px" style="stroke-width:0.35;stroke-miterlimit:4;stroke-dasharray:none;fill:none;fill-rule: evenodd "/>
<path id="Sketch_w0004"  d="M -33.33333333333333 -16.666666666666668 L 0.0 49.999999999999986 " stroke="#000000" stroke-width="0.35 px" style="stroke-width:0.35;stroke-miterlimit:4;stroke-dasharray:none;fill:none;fill-rule: evenodd "/>
<path id="Sketch_w0005"  d="M 33.33333333333333 -25.0 L 16.666666666666668 -25.000000000000004 " stroke="#000000" stroke-width="0.35 px" style="stroke-width:0.35;stroke-miterlimit:4;stroke-dasharray:none;fill:none;fill-rule: evenodd "/>
<path id="Sketch_w0006"  d="M 33.33333333333333 -16.666666666666668 L -16.666666666666664 -16.666666666666664 " stroke="#000000" stroke-width="0.35 px" style="stroke-width:0.35;stroke-miterlimit:4;stroke-dasharray:none;fill:none;fill-rule: evenodd "/>
<path id="Sketch_w0007"  d="M -33.33333333333333 -25.0 L -16.666666666666668 -25.000000000000004 " stroke="#000000" stroke-width="0.35 px" style="stroke-width:0.35;stroke-miterlimit:4;stroke-dasharray:none;fill:none;fill-rule: evenodd "/>
<path id="Sketch_w0008"  d="M 33.3333333333297 -8.333333333326063 A 16.6667 16.6667 0 0 1 16.6667 8.33333L -16.66666666667391 8.333333333329717 A 16.6667 16.6667 0 0 1 -33.3333 -8.33333L 16.66666666666667 -8.333333333333334 A 16.6667 16.6667 0 0 1 33.3333 8.33333" stroke="#000000" stroke-width="0.35 px" style="stroke-width:0.35;stroke-miterlimit:4;stroke-dasharray:none;fill:none;fill-rule: evenodd "/>
<path id="Sketch_w0009"  d="M -33.33333333331497 8.3333333332966 A 16.6667 16.6667 0 0 1 -16.6667 -8.33333" stroke="#000000" stroke-width="0.35 px" style="stroke-width:0.35;stroke-miterlimit:4;stroke-dasharray:none;fill:none;fill-rule: evenodd "/>
<path id="Sketch_w0010"  d="M 25.0 49.99999999999999 L 25.000000000000004 -16.666666666666664 " stroke="#000000" stroke-width="0.35 px" style="stroke-width:0.35;stroke-miterlimit:4;stroke-dasharray:none;fill:none;fill-rule: evenodd "/>
<path id="Sketch_w0011"  d="M -33.33333333333333 25.000000000000004 L -16.666666666666668 25.0 " stroke="#000000" stroke-width="0.35 px" style="stroke-width:0.35;stroke-miterlimit:4;stroke-dasharray:none;fill:none;fill-rule: evenodd "/>
<path id="Sketch_w0012"  d="M 16.666666666666668 25.0 L 33.33333333333333 25.000000000000004 " stroke="#000000" stroke-width="0.35 px" style="stroke-width:0.35;stroke-miterlimit:4;stroke-dasharray:none;fill:none;fill-rule: evenodd "/>
<path id="Sketch_w0013"  d="M -16.666666666666668 6.3589510576090134e-24 L 33.33333333333333 -5.645507680674414e-23 " stroke="#000000" stroke-width="0.35 px" style="stroke-width:0.35;stroke-miterlimit:4;stroke-dasharray:none;fill:none;fill-rule: evenodd "/>
<title>b'Sketch'</title>
</g>
</svg>