999
"DXF R12 Output" (www.mydxf.blogspot.com)
 0 
SECTION
 2 
HEADER
 9 
$ACADVER
 1 
AC1009
 9 
$EXTMIN
 10 
 0 
 20 
 0 
 9 
$EXTMAX
 10 
 8.5 
 20 
 11 
 0 
ENDSEC
 0 
SECTION
 2 
ENTITIES
0
LINE
8
Layer 1
10
0.846666
20
317.647000
11
-0.846666
21
315.953000
0
LINE
8
Layer 1
10
0.000000
20
318.211000
11
0.000000
21
315.389000
0
LINE
8
Layer 1
10
2.257780
20
315.671000
11
1.128890
21
314.542110
0
LINE
8
Layer 1
10
1.693330
20
316.236000
11
0.564440
21
315.107110
0
LINE
8
Layer 1
10
1.128890
20
316.800000
11
0.000000
21
315.671110
0
LINE
8
Shape2DView
10
-35.022200
20
52.800200
11
-35.555500
21
52.800200
0
LINE
8
Shape2DView
10
-35.022200
20
53.333500
11
-35.022200
21
52.800200
0
LINE
8
Shape2DView
10
-35.555500
20
53.333500
11
-35.022200
21
53.333500
0
LINE
8
Shape2DView
10
-35.555500
20
52.800200
11
-35.555500
21
53.333500
0
LINE
8
Shape2DView
10
-35.555500
20
52.141000
11
-35.555500
21
52.800200
0
LINE
8
Shape2DView
10
-35.022200
20
51.074300
11
-35.555500
21
52.141000
0
LINE
8
Shape2DView
10
-35.022200
20
52.800200
11
-35.022200
21
51.074300
0
LINE
8
Shape2DView
10
-34.692600
20
52.800200
11
-35.022200
21
52.800200
0
LINE
8
Shape2DView
10
-34.959200
20
53.333500
11
-34.692600
21
52.800200
0
LINE
8
Shape2DView
10
-35.022200
20
53.333500
11
-34.959200
21
53.333500
0
LINE
8
Shape2DView
10
-36.088800
20
53.866900
11
36.088800
21
53.866900
0
LINE
8
Shape2DView
10
-36.088800
20
-53.866400
11
-36.088800
21
53.866900
0
LINE
8
Shape2DView
10
36.088800
20
53.866900
11
36.088800
21
-53.866400
0
LINE
8
Shape2DView
10
36.088800
20
-53.866400
11
-36.088800
21
-53.866400
0
LINE
8
Shape2DView
10
-35.555500
20
-52.140500
11
-35.555500
21
-39.942400
0
LINE
8
Shape2DView
10
-35.555500
20
-39.942400
11
-35.555500
21
-36.088600
0
LINE
8
Shape2DView
10
-35.555500
20
-36.088600
11
-35.555500
21
-35.021900
0
LINE
8
Shape2DView
10
-35.555500
20
-35.021900
11
-35.555500
21
-27.199700
0
LINE
8
Shape2DView
10
-35.555500
20
-26.133100
11
-35.555500
21
-27.199700
0
LINE
8
Shape2DView
10
-35.555500
20
-26.133100
11
-35.555500
21
-18.970100
0
LINE
8
Shape2DView
10
-35.555500
20
-16.584900
11
-35.555500
21
-18.970100
0
LINE
8
Shape2DView
10
-35.555500
20
-16.584900
11
-35.555500
21
-9.421960
0
LINE
8
Shape2DView
10
-35.555500
20
-9.421960
11
-35.555500
21
-8.355300
0
LINE
8
Shape2DView
10
-35.555500
20
-8.355300
11
-35.555500
21
-4.501450
0
LINE
8
Shape2DView
10
-35.555500
20
-4.501450
11
-35.555500
21
4.501950
0
LINE
8
Shape2DView
10
-35.555500
20
4.501950
11
-35.555500
21
16.585400
0
LINE
8
Shape2DView
10
-35.555500
20
17.244700
11
-35.555500
21
16.585400
0
LINE
8
Shape2DView
10
-35.555500
20
17.244700
11
-35.555500
21
18.311400
0
LINE
8
Shape2DView
10
-35.555500
20
18.970600
11
-35.555500
21
18.311400
0
LINE
8
Shape2DView
10
-35.555500
20
18.970600
11
-35.555500
21
26.133600
0
LINE
8
Shape2DView
10
-35.555500
20
26.133600
11
-35.555500
21
27.200200
0
LINE
8
Shape2DView
10
-35.555500
20
27.200200
11
-35.555500
21
35.022400
0
LINE
8
Shape2DView
10
-35.555500
20
36.089100
11
-35.555500
21
35.022400
0
LINE
8
Shape2DView
10
-35.555500
20
36.089100
11
-35.555500
21
39.942900
0
LINE
8
Shape2DView
10
-35.555500
20
39.942900
11
-35.555500
21
52.141000
0
LINE
8
Shape2DView
10
-34.959200
20
53.333500
11
-22.164900
21
53.333500
0
LINE
8
Shape2DView
10
-22.164900
20
53.333500
11
-18.374100
21
53.333500
0
LINE
8
Shape2DView
10
-18.374100
20
53.333500
11
-18.311100
21
53.333500
0
LINE
8
Shape2DView
10
-18.311100
20
53.333500
11
-17.244500
21
53.333500
0
LINE
8
Shape2DView
10
-17.244500
20
53.333500
11
-17.181400
21
53.333500
0
LINE
8
Shape2DView
10
-17.181400
20
53.333500
11
-9.422210
21
53.333500
0
LINE
8
Shape2DView
10
-9.422210
20
53.333500
11
-8.355550
21
53.333500
0
LINE
8
Shape2DView
10
-8.355550
20
53.333500
11
-0.596284
21
53.333500
0
LINE
8
Shape2DView
10
-0.596284
20
53.333500
11
0.596284
21
53.333500
0
LINE
8
Shape2DView
10
0.596284
20
53.333500
11
8.355550
21
53.333500
0
LINE
8
Shape2DView
10
9.422210
20
53.333500
11
8.355550
21
53.333500
0
LINE
8
Shape2DView
10
9.422210
20
53.333500
11
17.181400
21
53.333500
0
LINE
8
Shape2DView
10
17.181400
20
53.333500
11
17.244500
21
53.333500
0
LINE
8
Shape2DView
10
18.311100
20
53.333500
11
17.244500
21
53.333500
0
LINE
8
Shape2DView
10
18.311100
20
53.333500
11
18.374100
21
53.333500
0
LINE
8
Shape2DView
10
18.374100
20
53.333500
11
22.164900
21
53.333500
0
LINE
8
Shape2DView
10
22.164900
20
53.333500
11
26.133300
21
53.333500
0
LINE
8
Shape2DView
10
26.133300
20
53.333500
11
27.200000
21
53.333500
0
LINE
8
Shape2DView
10
27.200000
20
53.333500
11
34.959200
21
53.333500
0
LINE
8
Shape2DView
10
34.959200
20
53.333500
11
35.022200
21
53.333500
0
LINE
8
Shape2DView
10
35.555500
20
53.333500
11
35.022200
21
53.333500
0
LINE
8
Shape2DView
10
35.555500
20
52.800200
11
35.555500
21
53.333500
0
LINE
8
Shape2DView
10
35.555500
20
52.141000
11
35.555500
21
52.800200
0
LINE
8
Shape2DView
10
35.555500
20
39.942900
11
35.555500
21
52.141000
0
LINE
8
Shape2DView
10
35.555500
20
36.089100
11
35.555500
21
39.942900
0
LINE
8
Shape2DView
10
35.555500
20
35.022400
11
35.555500
21
36.089100
0
LINE
8
Shape2DView
10
35.555500
20
27.200200
11
35.555500
21
35.022400
0
LINE
8
Shape2DView
10
35.555500
20
26.133600
11
35.555500
21
27.200200
0
LINE
8
Shape2DView
10
35.555500
20
18.970600
11
35.555500
21
26.133600
0
LINE
8
Shape2DView
10
35.555500
20
18.970600
11
35.555500
21
18.311400
0
LINE
8
Shape2DView
10
35.555500
20
18.311400
11
35.555500
21
17.244700
0
LINE
8
Shape2DView
10
35.555500
20
17.244700
11
35.555500
21
16.585400
0
LINE
8
Shape2DView
10
35.555500
20
4.501950
11
35.555500
21
16.585400
0
LINE
8
Shape2DView
10
35.555500
20
0.533582
11
35.555500
21
4.501950
0
LINE
8
Shape2DView
10
35.555500
20
0.533582
11
35.555500
21
-0.533084
0
LINE
8
Shape2DView
10
35.555500
20
-4.501450
11
35.555500
21
-0.533084
0
LINE
8
Shape2DView
10
35.555500
20
-17.244200
11
35.555500
21
-4.501450
0
LINE
8
Shape2DView
10
35.555500
20
-17.244200
11
35.555500
21
-18.310900
0
LINE
8
Shape2DView
10
35.555500
20
-26.133100
11
35.555500
21
-18.310900
0
LINE
8
Shape2DView
10
35.555500
20
-26.133100
11
35.555500
21
-27.199700
0
LINE
8
Shape2DView
10
35.555500
20
-35.021900
11
35.555500
21
-27.199700
0
LINE
8
Shape2DView
10
35.555500
20
-35.021900
11
35.555500
21
-36.088600
0
LINE
8
Shape2DView
10
35.555500
20
-39.942400
11
35.555500
21
-36.088600
0
LINE
8
Shape2DView
10
35.555500
20
-52.140500
11
35.555500
21
-39.942400
0
LINE
8
Shape2DView
10
35.555500
20
-52.799700
11
35.555500
21
-52.140500
0
LINE
8
Shape2DView
10
35.555500
20
-53.333000
11
35.555500
21
-52.799700
0
LINE
8
Shape2DView
10
35.022200
20
-53.333000
11
35.555500
21
-53.333000
0
LINE
8
Shape2DView
10
34.959200
20
-53.333000
11
35.022200
21
-53.333000
0
LINE
8
Shape2DView
10
22.164900
20
-53.333000
11
34.959200
21
-53.333000
0
LINE
8
Shape2DView
10
18.374100
20
-53.333000
11
22.164900
21
-53.333000
0
LINE
8
Shape2DView
10
18.311100
20
-53.333000
11
18.374100
21
-53.333000
0
LINE
8
Shape2DView
10
17.244500
20
-53.333000
11
18.311100
21
-53.333000
0
LINE
8
Shape2DView
10
17.181400
20
-53.333000
11
17.244500
21
-53.333000
0
LINE
8
Shape2DView
10
9.422210
20
-53.333000
11
17.181400
21
-53.333000
0
LINE
8
Shape2DView
10
8.355550
20
-53.333000
11
9.422210
21
-53.333000
0
LINE
8
Shape2DView
10
0.596284
20
-53.333000
11
8.355550
21
-53.333000
0
LINE
8
Shape2DView
10
-0.596284
20
-53.333000
11
0.596284
21
-53.333000
0
LINE
8
Shape2DView
10
-8.355550
20
-53.333000
11
-0.596284
21
-53.333000
0
LINE
8
Shape2DView
10
-8.355550
20
-53.333000
11
-9.422210
21
-53.333000
0
LINE
8
Shape2DView
10
-17.181400
20
-53.333000
11
-9.422210
21
-53.333000
0
LINE
8
Shape2DView
10
-17.244500
20
-53.333000
11
-17.181400
21
-53.333000
0
LINE
8
Shape2DView
10
-17.244500
20
-53.333000
11
-18.311100
21
-53.333000
0
LINE
8
Shape2DView
10
-18.374100
20
-53.333000
11
-18.311100
21
-53.333000
0
LINE
8
Shape2DView
10
-22.164900
20
-53.333000
11
-18.374100
21
-53.333000
0
LINE
8
Shape2DView
10
-34.959200
20
-53.333000
11
-22.164900
21
-53.333000
0
LINE
8
Shape2DView
10
-35.022200
20
-53.333000
11
-34.959200
21
-53.333000
0
LINE
8
Shape2DView
10
-35.022200
20
-53.333000
11
-35.555500
21
-53.333000
0
LINE
8
Shape2DView
10
-35.555500
20
-53.333000
11
-35.555500
21
-52.799700
0
LINE
8
Shape2DView
10
-35.555500
20
-52.799700
11
-35.555500
21
-52.140500
0
LINE
8
Shape2DView
10
-35.022100
20
41.714200
11
-35.555500
21
39.942900
0
LINE
8
Shape2DView
10
-35.022200
20
51.074300
11
-35.022200
21
41.714100
0
LINE
8
Shape2DView
10
-34.692600
20
52.800200
11
-31.899000
21
47.212900
0
LINE
8
Shape2DView
10
-32.622900
20
46.275700
11
-35.022200
21
51.074300
0
LINE
8
Shape2DView
10
-31.898900
20
47.212900
11
-32.622800
21
46.275800
0
LINE
8
Shape2DView
10
-23.936200
20
52.800200
11
-34.692600
21
52.800200
0
LINE
8
Shape2DView
10
-22.164900
20
53.333500
11
-23.936100
21
52.800200
0
LINE
8
Shape2DView
10
-35.022200
20
-51.073800
11
-35.555500
21
-52.140500
0
LINE
8
Shape2DView
10
-35.022200
20
-41.713600
11
-35.022200
21
-51.073800
0
LINE
8
Shape2DView
10
-35.555500
20
-39.942500
11
-35.022200
21
-41.713600
0
LINE
8
Shape2DView
10
-35.087000
20
-36.088600
11
-35.555500
21
-36.088600
0
LINE
8
Shape2DView
10
-35.087000
20
-36.088600
11
-35.555500
21
-39.942400
0
LINE
8
Shape2DView
10
-35.555500
20
-35.021900
11
-35.022200
21
-35.021900
0
LINE
8
Shape2DView
10
-35.022200
20
-35.555200
11
-35.087000
21
-36.088600
0
LINE
8
Shape2DView
10
-35.022200
20
-35.021900
11
-35.022200
21
-35.555200
0
LINE
8
Shape2DView
10
-35.022200
20
-27.199700
11
-35.022200
21
-35.021900
0
LINE
8
Shape2DView
10
-35.555500
20
-27.199700
11
-35.022200
21
-27.199700
0
LINE
8
Shape2DView
10
-35.022200
20
-26.133100
11
-35.022200
21
-27.199700
0
LINE
8
Shape2DView
10
-35.022200
20
-26.133100
11
-35.555500
21
-26.133100
0
LINE
8
Shape2DView
10
-35.022200
20
-17.903400
11
-35.022200
21
-26.133100
0
LINE
8
Shape2DView
10
-35.022200
20
-17.903400
11
-35.555500
21
-18.970100
0
LINE
8
Shape2DView
10
-35.022200
20
-15.518200
11
-35.022200
21
-17.903400
0
LINE
8
Shape2DView
10
-35.555500
20
-16.584900
11
-35.022200
21
-15.518200
0
LINE
8
Shape2DView
10
-35.022200
20
-9.421960
11
-35.022200
21
-15.518200
0
LINE
8
Shape2DView
10
-35.022200
20
-9.421960
11
-35.555500
21
-9.421960
0
LINE
8
Shape2DView
10
-35.022200
20
-8.888630
11
-35.022200
21
-9.421960
0
LINE
8
Shape2DView
10
-35.087000
20
-8.355300
11
-35.022200
21
-8.888630
0
LINE
8
Shape2DView
10
-35.555500
20
-8.355300
11
-35.087000
21
-8.355300
0
LINE
8
Shape2DView
10
-35.555500
20
-4.501450
11
-35.087000
21
-8.355300
0
LINE
8
Shape2DView
10
-35.022200
20
-2.730150
11
-35.555600
21
-4.501510
0
LINE
8
Shape2DView
10
-35.022200
20
2.730730
11
-35.022200
21
-2.730230
0
LINE
8
Shape2DView
10
-35.555600
20
4.501910
11
-35.022300
21
2.730730
0
LINE
8
Shape2DView
10
-35.555500
20
16.585400
11
-35.022200
21
15.518700
0
LINE
8
Shape2DView
10
-35.555500
20
4.501950
11
-35.022200
21
8.889130
0
LINE
8
Shape2DView
10
-35.022200
20
15.518700
11
-35.022200
21
8.889130
0
LINE
8
Shape2DView
10
-35.022200
20
17.244700
11
-35.555500
21
17.244700
0
LINE
8
Shape2DView
10
-35.022200
20
17.244700
11
-35.022200
21
15.518700
0
LINE
8
Shape2DView
10
-35.022200
20
17.903900
11
-35.225900
21
18.311400
0
LINE
8
Shape2DView
10
-35.555500
20
18.311400
11
-35.225900
21
18.311400
0
LINE
8
Shape2DView
10
-35.022200
20
17.903900
11
-35.022200
21
17.244700
0
LINE
8
Shape2DView
10
-35.225900
20
18.311400
11
-35.555500
21
18.970600
0
LINE
8
Shape2DView
10
-35.022200
20
26.133600
11
-35.555500
21
26.133600
0
LINE
8
Shape2DView
10
-35.225900
20
18.311400
11
-35.022200
21
18.311400
0
LINE
8
Shape2DView
10
-35.022200
20
26.133600
11
-35.022200
21
18.311400
0
LINE
8
Shape2DView
10
-35.022200
20
27.200200
11
-35.022200
21
26.133600
0
LINE
8
Shape2DView
10
-35.555500
20
27.200200
11
-35.022200
21
27.200200
0
LINE
8
Shape2DView
10
-35.022200
20
35.022400
11
-35.022200
21
27.200200
0
LINE
8
Shape2DView
10
-35.555500
20
35.022400
11
-35.022200
21
35.022400
0
LINE
8
Shape2DView
10
-35.087000
20
36.089100
11
-35.555500
21
36.089100
0
LINE
8
Shape2DView
10
-35.022200
20
35.555700
11
-35.022200
21
35.022400
0
LINE
8
Shape2DView
10
-35.022200
20
35.555700
11
-35.087000
21
36.089100
0
LINE
8
Shape2DView
10
-35.087000
20
36.089100
11
-35.555500
21
39.942900
0
LINE
8
Shape2DView
10
-22.164900
20
53.333500
11
-18.311100
21
52.865100
0
LINE
8
Shape2DView
10
-18.311100
20
52.865100
11
-18.311100
21
53.207700
0
LINE
8
Shape2DView
10
-18.374100
20
53.333500
11
-18.311100
21
53.207700
0
LINE
8
Shape2DView
10
-18.311100
20
53.207700
11
-18.311100
21
53.333500
0
LINE
8
Shape2DView
10
-18.311100
20
53.207700
11
-18.128700
21
52.842900
0
LINE
8
Shape2DView
10
-18.128700
20
52.842900
11
-17.777800
21
52.800200
0
LINE
8
Shape2DView
10
-17.244500
20
52.800200
11
-17.777800
21
52.800200
0
LINE
8
Shape2DView
10
-17.244500
20
53.333500
11
-17.244500
21
52.800200
0
LINE
8
Shape2DView
10
-16.914800
20
52.800200
11
-17.244500
21
52.800200
0
LINE
8
Shape2DView
10
-17.181400
20
53.333500
11
-16.914800
21
52.800200
0
LINE
8
Shape2DView
10
-9.430470
20
52.800200
11
-16.914800
21
52.800200
0
LINE
8
Shape2DView
10
-9.430460
20
52.800100
11
-9.422210
21
53.333600
0
LINE
8
Shape2DView
10
-8.363320
20
52.800200
11
-9.422210
21
52.800200
0
LINE
8
Shape2DView
10
-8.363280
20
52.800300
11
-8.355510
21
53.333600
0
LINE
8
Shape2DView
10
-9.422210
20
52.800200
11
-9.422210
21
53.333500
0
LINE
8
Shape2DView
10
-8.355550
20
53.333500
11
-8.355550
21
52.800200
0
LINE
8
Shape2DView
10
-0.862951
20
52.800200
11
-8.355550
21
52.800200
0
LINE
8
Shape2DView
10
-0.862951
20
52.800200
11
-0.596284
21
53.333500
0
LINE
8
Shape2DView
10
0.329618
20
52.800200
11
-0.862951
21
52.800200
0
LINE
8
Shape2DView
10
0.596284
20
53.333500
11
0.329618
21
52.800200
0
LINE
8
Shape2DView
10
8.355550
20
52.800200
11
0.329618
21
52.800200
0
LINE
8
Shape2DView
10
8.355550
20
53.333500
11
8.355550
21
52.800200
0
LINE
8
Shape2DView
10
9.422210
20
52.800200
11
8.355550
21
52.800200
0
LINE
8
Shape2DView
10
9.422210
20
52.800200
11
9.422210
21
53.333500
0
LINE
8
Shape2DView
10
17.181400
20
53.333500
11
16.914800
21
52.800200
0
LINE
8
Shape2DView
10
16.914800
20
52.800200
11
9.422210
21
52.800200
0
LINE
8
Shape2DView
10
17.244500
20
53.333500
11
17.244500
21
52.800200
0
LINE
8
Shape2DView
10
17.244500
20
52.800200
11
16.914800
21
52.800200
0
LINE
8
Shape2DView
10
18.128700
20
52.842900
11
18.311100
21
53.207700
0
LINE
8
Shape2DView
10
18.311100
20
53.207700
11
18.311100
21
53.333500
0
LINE
8
Shape2DView
10
17.777800
20
52.800200
11
17.244500
21
52.800200
0
LINE
8
Shape2DView
10
17.777800
20
52.800200
11
18.128700
21
52.842900
0
LINE
8
Shape2DView
10
18.311100
20
53.207700
11
18.374100
21
53.333500
0
LINE
8
Shape2DView
10
18.311100
20
52.865100
11
18.311100
21
53.207700
0
LINE
8
Shape2DView
10
18.311100
20
52.865100
11
22.164900
21
53.333500
0
LINE
8
Shape2DView
10
23.936100
20
52.800200
11
22.164900
21
53.333500
0
LINE
8
Shape2DView
10
26.133300
20
52.800200
11
23.936100
21
52.800200
0
LINE
8
Shape2DView
10
26.133300
20
52.800200
11
26.133300
21
53.333500
0
LINE
8
Shape2DView
10
27.200000
20
52.800200
11
26.133300
21
52.800200
0
LINE
8
Shape2DView
10
27.200000
20
53.333500
11
27.200000
21
52.800200
0
LINE
8
Shape2DView
10
34.692600
20
52.800200
11
27.200000
21
52.800200
0
LINE
8
Shape2DView
10
34.692600
20
52.800200
11
34.959200
21
53.333500
0
LINE
8
Shape2DView
10
35.022200
20
52.800200
11
34.692600
21
52.800200
0
LINE
8
Shape2DView
10
35.022200
20
53.333500
11
35.022200
21
52.800200
0
LINE
8
Shape2DView
10
35.555500
20
52.800200
11
35.022200
21
52.800200
0
LINE
8
Shape2DView
10
35.555500
20
52.141000
11
35.022200
21
51.074300
0
LINE
8
Shape2DView
10
35.022200
20
52.800200
11
35.022200
21
51.074300
0
LINE
8
Shape2DView
10
35.555500
20
39.942900
11
35.022100
21
41.714200
0
LINE
8
Shape2DView
10
35.022200
20
51.074300
11
35.022200
21
41.714100
0
LINE
8
Shape2DView
10
35.555500
20
36.089100
11
35.087000
21
36.089100
0
LINE
8
Shape2DView
10
35.087000
20
36.089100
11
35.555500
21
39.942900
0
LINE
8
Shape2DView
10
35.022200
20
35.555700
11
35.087000
21
36.089100
0
LINE
8
Shape2DView
10
35.022200
20
35.022400
11
35.555500
21
35.022400
0
LINE
8
Shape2DView
10
35.022200
20
35.555700
11
35.022200
21
35.022400
0
LINE
8
Shape2DView
10
35.555500
20
27.200200
11
35.022200
21
27.200200
0
LINE
8
Shape2DView
10
35.022200
20
35.022400
11
35.022200
21
27.200200
0
LINE
8
Shape2DView
10
35.022200
20
26.133600
11
35.555500
21
26.133600
0
LINE
8
Shape2DView
10
35.022200
20
27.200200
11
35.022200
21
26.133600
0
LINE
8
Shape2DView
10
35.225900
20
18.311400
11
35.555500
21
18.970600
0
LINE
8
Shape2DView
10
35.022200
20
18.311400
11
35.225900
21
18.311400
0
LINE
8
Shape2DView
10
35.022200
20
26.133600
11
35.022200
21
18.311400
0
LINE
8
Shape2DView
10
35.225900
20
18.311400
11
35.555500
21
18.311400
0
LINE
8
Shape2DView
10
35.022200
20
17.903900
11
35.225900
21
18.311400
0
LINE
8
Shape2DView
10
35.555500
20
17.244700
11
35.022200
21
17.244700
0
LINE
8
Shape2DView
10
35.022200
20
17.903900
11
35.022200
21
17.244700
0
LINE
8
Shape2DView
10
35.555500
20
16.585400
11
35.022200
21
15.518700
0
LINE
8
Shape2DView
10
35.022200
20
17.244700
11
35.022200
21
15.518700
0
LINE
8
Shape2DView
10
35.022200
20
8.889130
11
35.555500
21
4.501950
0
LINE
8
Shape2DView
10
35.022200
20
15.518700
11
35.022200
21
8.889130
0
LINE
8
Shape2DView
10
35.022200
20
2.730730
11
35.022200
21
0.533582
0
LINE
8
Shape2DView
10
35.022300
20
2.730730
11
35.555600
21
4.501920
0
LINE
8
Shape2DView
10
35.022200
20
0.533582
11
35.555500
21
0.533582
0
LINE
8
Shape2DView
10
35.022200
20
0.533582
11
35.022200
21
-0.533084
0
LINE
8
Shape2DView
10
35.555500
20
-0.533084
11
35.022200
21
-0.533084
0
LINE
8
Shape2DView
10
35.022200
20
-0.533084
11
35.022200
21
-2.730230
0
LINE
8
Shape2DView
10
35.555600
20
-4.501490
11
35.022200
21
-2.730130
0
LINE
8
Shape2DView
10
35.022200
20
-8.888630
11
35.022200
21
-17.244200
0
LINE
8
Shape2DView
10
35.022200
20
-8.888630
11
35.555500
21
-4.501450
0
LINE
8
Shape2DView
10
35.022200
20
-17.244200
11
35.555500
21
-17.244200
0
LINE
8
Shape2DView
10
35.022200
20
-17.244200
11
35.022200
21
-18.310900
0
LINE
8
Shape2DView
10
35.555500
20
-18.310900
11
35.022200
21
-18.310900
0
LINE
8
Shape2DView
10
35.022200
20
-18.310900
11
35.022200
21
-26.133100
0
LINE
8
Shape2DView
10
35.022200
20
-26.133100
11
35.555500
21
-26.133100
0
LINE
8
Shape2DView
10
35.555500
20
-27.199700
11
35.022200
21
-27.199700
0
LINE
8
Shape2DView
10
35.022200
20
-26.133100
11
35.022200
21
-27.199700
0
LINE
8
Shape2DView
10
35.022200
20
-35.021900
11
35.555500
21
-35.021900
0
LINE
8
Shape2DView
10
35.022200
20
-27.199700
11
35.022200
21
-35.021900
0
LINE
8
Shape2DView
10
35.555500
20
-36.088600
11
35.087000
21
-36.088600
0
LINE
8
Shape2DView
10
35.022200
20
-35.555200
11
35.087000
21
-36.088600
0
LINE
8
Shape2DView
10
35.022200
20
-35.021900
11
35.022200
21
-35.555200
0
LINE
8
Shape2DView
10
35.087000
20
-36.088600
11
35.555500
21
-39.942400
0
LINE
8
Shape2DView
10
35.022200
20
-51.073800
11
35.555500
21
-52.140500
0
LINE
8
Shape2DView
10
35.022200
20
-41.713600
11
35.022200
21
-51.073800
0
LINE
8
Shape2DView
10
35.022200
20
-41.713600
11
35.555500
21
-39.942500
0
LINE
8
Shape2DView
10
35.555500
20
-52.799700
11
35.022200
21
-52.799700
0
LINE
8
Shape2DView
10
35.022200
20
-51.073800
11
35.022200
21
-52.799700
0
LINE
8
Shape2DView
10
35.022200
20
-52.799700
11
35.022200
21
-53.333000
0
LINE
8
Shape2DView
10
34.692600
20
-52.799700
11
34.959200
21
-53.333000
0
LINE
8
Shape2DView
10
35.022200
20
-52.799700
11
34.692600
21
-52.799700
0
LINE
8
Shape2DView
10
22.165000
20
-53.333000
11
23.936100
21
-52.799700
0
LINE
8
Shape2DView
10
34.692600
20
-52.799700
11
23.936100
21
-52.799700
0
LINE
8
Shape2DView
10
18.311100
20
-53.207200
11
18.374100
21
-53.333000
0
LINE
8
Shape2DView
10
18.311100
20
-53.207200
11
18.311100
21
-52.864600
0
LINE
8
Shape2DView
10
18.311100
20
-52.864600
11
22.164900
21
-53.333000
0
LINE
8
Shape2DView
10
18.311100
20
-53.333000
11
18.311100
21
-53.207200
0
LINE
8
Shape2DView
10
17.244500
20
-52.799700
11
17.244500
21
-53.333000
0
LINE
8
Shape2DView
10
17.777800
20
-52.799700
11
17.244500
21
-52.799700
0
LINE
8
Shape2DView
10
17.777800
20
-52.799700
11
18.128700
21
-52.842400
0
LINE
8
Shape2DView
10
18.128700
20
-52.842400
11
18.311100
21
-53.207200
0
LINE
8
Shape2DView
10
17.181400
20
-53.333000
11
16.914800
21
-52.799700
0
LINE
8
Shape2DView
10
17.244500
20
-52.799700
11
16.914800
21
-52.799700
0
LINE
8
Shape2DView
10
9.422210
20
-53.333000
11
9.422210
21
-52.799700
0
LINE
8
Shape2DView
10
16.914800
20
-52.799700
11
9.422210
21
-52.799700
0
LINE
8
Shape2DView
10
8.355550
20
-52.799700
11
8.355550
21
-53.333000
0
LINE
8
Shape2DView
10
9.422210
20
-52.799700
11
8.355550
21
-52.799700
0
LINE
8
Shape2DView
10
0.862951
20
-52.799700
11
0.596284
21
-53.333000
0
LINE
8
Shape2DView
10
8.355550
20
-52.799700
11
0.862951
21
-52.799700
0
LINE
8
Shape2DView
10
-0.596284
20
-53.333000
11
-0.329618
21
-52.799700
0
LINE
8
Shape2DView
10
0.329618
20
-52.799700
11
-0.329618
21
-52.799700
0
LINE
8
Shape2DView
10
0.596284
20
-53.333000
11
0.329618
21
-52.799700
0
LINE
8
Shape2DView
10
-0.862951
20
-52.799700
11
-0.596284
21
-53.333000
0
LINE
8
Shape2DView
10
-8.355550
20
-52.799700
11
-8.355550
21
-53.333000
0
LINE
8
Shape2DView
10
-0.862951
20
-52.799700
11
-8.355550
21
-52.799700
0
LINE
8
Shape2DView
10
-9.422210
20
-53.333000
11
-9.422210
21
-52.799700
0
LINE
8
Shape2DView
10
-8.355550
20
-52.799700
11
-9.422210
21
-52.799700
0
LINE
8
Shape2DView
10
-16.914800
20
-52.799700
11
-17.181400
21
-53.333000
0
LINE
8
Shape2DView
10
-9.422210
20
-52.799700
11
-16.914800
21
-52.799700
0
LINE
8
Shape2DView
10
-17.244500
20
-52.799700
11
-17.244500
21
-53.333000
0
LINE
8
Shape2DView
10
-16.914800
20
-52.799700
11
-17.244500
21
-52.799700
0
LINE
8
Shape2DView
10
-18.311100
20
-53.333000
11
-18.311100
21
-53.207200
0
LINE
8
Shape2DView
10
-18.311100
20
-53.207200
11
-18.128700
21
-52.842400
0
LINE
8
Shape2DView
10
-18.128700
20
-52.842400
11
-17.777800
21
-52.799700
0
LINE
8
Shape2DView
10
-17.244500
20
-52.799700
11
-17.777800
21
-52.799700
0
LINE
8
Shape2DView
10
-18.374100
20
-53.333000
11
-18.311100
21
-53.207200
0
LINE
8
Shape2DView
10
-22.164900
20
-53.333000
11
-18.311100
21
-52.864600
0
LINE
8
Shape2DView
10
-18.311100
20
-53.207200
11
-18.311100
21
-52.864600
0
LINE
8
Shape2DView
10
-34.959200
20
-53.333000
11
-34.692600
21
-52.799700
0
LINE
8
Shape2DView
10
-23.936200
20
-52.799700
11
-34.692600
21
-52.799700
0
LINE
8
Shape2DView
10
-23.936200
20
-52.799700
11
-22.164800
21
-53.333100
0
LINE
8
Shape2DView
10
-35.022200
20
-52.799700
11
-35.022200
21
-53.333000
0
LINE
8
Shape2DView
10
-34.692600
20
-52.799700
11
-35.022200
21
-52.799700
0
LINE
8
Shape2DView
10
-35.022200
20
-52.799700
11
-35.555500
21
-52.799700
0
LINE
8
Shape2DView
10
-35.022200
20
-51.073800
11
-35.022200
21
-52.799700
0
LINE
8
Shape2DView
10
-35.022200
20
36.089100
11
-35.087000
21
36.089100
0
LINE
8
Shape2DView
10
-35.022200
20
41.714100
11
-35.022200
21
36.089100
0
LINE
8
Shape2DView
10
-31.899000
20
47.212900
11
-31.373900
21
46.163000
0
LINE
8
Shape2DView
10
-32.080000
20
45.189900
11
-32.622900
21
46.275700
0
LINE
8
Shape2DView
10
-31.374000
20
46.162900
11
-32.080000
21
45.189800
0
LINE
8
Shape2DView
10
-18.311100
20
52.800200
11
-23.936200
21
52.800200
0
LINE
8
Shape2DView
10
-18.311100
20
52.800200
11
-18.311100
21
52.865100
0
LINE
8
Shape2DView
10
-35.022200
20
-36.088600
11
-35.087000
21
-36.088600
0
LINE
8
Shape2DView
10
-35.022200
20
-36.088600
11
-35.022200
21
-41.713600
0
LINE
8
Shape2DView
10
-35.022200
20
-35.555200
11
-35.022200
21
-36.088600
0
LINE
8
Shape2DView
10
-35.022100
20
-35.555300
11
-35.013900
21
-36.088600
0
LINE
8
Shape2DView
10
-27.529600
20
-36.088600
11
-35.013900
21
-36.088600
0
LINE
8
Shape2DView
10
-26.996200
20
-35.021900
11
-27.529600
21
-36.088600
0
LINE
8
Shape2DView
10
-35.022200
20
-35.021900
11
-26.996200
21
-35.021900
0
LINE
8
Shape2DView
10
-35.022200
20
-27.199700
11
-23.085200
21
-27.199700
0
LINE
8
Shape2DView
10
-22.551900
20
-26.133100
11
-35.022200
21
-26.133100
0
LINE
8
Shape2DView
10
-22.551900
20
-26.133100
11
-23.085200
21
-27.199700
0
LINE
8
Shape2DView
10
-30.781400
20
-9.421960
11
-35.022200
21
-17.903400
0
LINE
8
Shape2DView
10
-30.781400
20
-9.421960
11
-31.974100
21
-9.421960
0
LINE
8
Shape2DView
10
-35.022200
20
-15.518200
11
-31.974100
21
-9.421960
0
LINE
8
Shape2DView
10
-31.974100
20
-9.421960
11
-35.022200
21
-9.421960
0
LINE
8
Shape2DView
10
-31.974100
20
-9.421960
11
-31.440700
21
-8.355300
0
LINE
8
Shape2DView
10
-35.013900
20
-8.355300
11
-31.440700
21
-8.355300
0
LINE
8
Shape2DView
10
-35.014000
20
-8.355320
11
-35.022200
21
-8.888600
0
LINE
8
Shape2DView
10
-35.022200
20
-8.355300
11
-35.022200
21
-8.888630
0
LINE
8
Shape2DView
10
-35.087000
20
-8.355300
11
-35.022200
21
-8.355300
0
LINE
8
Shape2DView
10
-35.022200
20
-2.730230
11
-35.022200
21
-8.355300
0
LINE
8
Shape2DView
10
-35.022200
20
8.889130
11
-35.022200
21
2.730730
0
LINE
8
Shape2DView
10
-34.692600
20
17.244700
11
-35.022200
21
17.244700
0
LINE
8
Shape2DView
10
-28.899300
20
5.658110
11
-34.692600
21
17.244700
0
LINE
8
Shape2DView
10
-28.899400
20
5.658090
11
-29.747300
21
4.968850
0
LINE
8
Shape2DView
10
-35.022200
20
15.518700
11
-29.747200
21
4.968810
0
LINE
8
Shape2DView
10
-35.022200
20
18.311400
11
-35.022200
21
17.903900
0
LINE
8
Shape2DView
10
-34.692600
20
17.244700
11
-35.022200
21
17.903900
0
LINE
8
Shape2DView
10
-22.551900
20
26.133600
11
-35.022200
21
26.133600
0
LINE
8
Shape2DView
10
-22.551900
20
26.133600
11
-23.085200
21
27.200200
0
LINE
8
Shape2DView
10
-35.022200
20
27.200200
11
-23.085200
21
27.200200
0
LINE
8
Shape2DView
10
-26.996200
20
35.022400
11
-27.529600
21
36.089100
0
LINE
8
Shape2DView
10
-35.022200
20
35.022400
11
-26.996200
21
35.022400
0
LINE
8
Shape2DView
10
-35.013900
20
36.089100
11
-35.022100
21
35.555800
0
LINE
8
Shape2DView
10
-27.529600
20
36.089100
11
-35.013900
21
36.089100
0
LINE
8
Shape2DView
10
-35.022200
20
36.089100
11
-35.022200
21
35.555700
0
LINE
8
Shape2DView
10
-18.311100
20
52.865100
11
-18.128700
21
52.842900
0
LINE
8
Shape2DView
10
-18.128700
20
52.842900
11
-18.107400
21
52.800200
0
LINE
8
Shape2DView
10
-17.777800
20
52.800200
11
-18.107400
21
52.800200
0
LINE
8
Shape2DView
10
-17.777800
20
52.800200
11
-18.105700
21
52.797100
0
LINE
8
Shape2DView
10
-18.105800
20
52.797100
11
-17.244500
21
51.074300
0
LINE
8
Shape2DView
10
-17.244500
20
52.800200
11
-17.244500
21
51.074300
0
LINE
8
Shape2DView
10
-17.244500
20
51.074300
11
-13.070400
21
42.726300
0
LINE
8
Shape2DView
10
-13.070400
20
42.726300
11
-12.364400
21
43.699400
0
LINE
8
Shape2DView
10
-16.914800
20
52.800200
11
-12.364400
21
43.699400
0
LINE
8
Shape2DView
10
-9.422210
20
52.800200
11
-9.430470
21
52.800200
0
LINE
8
Shape2DView
10
-9.422210
20
47.175100
11
-9.422210
21
52.800200
0
LINE
8
Shape2DView
10
-9.422170
20
47.175100
11
-8.671563
21
49.946068
0
LINE
8
Shape2DView
10
-8.671563
20
49.946068
11
-8.363280
21
52.800300
0
LINE
8
Shape2DView
10
-8.355550
20
52.800200
11
-8.363320
21
52.800200
0
LINE
8
Shape2DView
10
-8.355550
20
37.815000
11
-8.355550
21
36.089100
0
LINE
8
Shape2DView
10
-8.025940
20
36.089100
11
-8.355550
21
36.089100
0
LINE
8
Shape2DView
10
0.329618
20
52.800200
11
-8.025940
21
36.089100
0
LINE
8
Shape2DView
10
-8.355550
20
37.815000
11
-0.862951
21
52.800200
0
LINE
8
Shape2DView
10
9.422210
20
37.815000
11
9.422210
21
52.800200
0
LINE
8
Shape2DView
10
9.422210
20
37.815000
11
8.559270
21
36.089100
0
LINE
8
Shape2DView
10
8.559270
20
36.089100
11
8.355550
21
36.089100
0
LINE
8
Shape2DView
10
8.355550
20
52.800200
11
8.355550
21
36.089100
0
LINE
8
Shape2DView
10
17.244500
20
52.800200
11
17.244500
21
51.074300
0
LINE
8
Shape2DView
10
9.751830
20
36.089100
11
17.244500
21
51.074300
0
LINE
8
Shape2DView
10
9.751830
20
36.089100
11
9.422210
21
36.089100
0
LINE
8
Shape2DView
10
9.422210
20
36.089100
11
9.422210
21
37.815000
0
LINE
8
Shape2DView
10
16.914800
20
52.800200
11
9.422210
21
37.815000
0
LINE
8
Shape2DView
10
18.128700
20
52.842900
11
18.311100
21
52.865100
0
LINE
8
Shape2DView
10
18.105800
20
52.797100
11
17.777800
21
52.800200
0
LINE
8
Shape2DView
10
17.244500
20
51.074300
11
18.105800
21
52.797100
0
LINE
8
Shape2DView
10
18.107400
20
52.800200
11
18.128700
21
52.842900
0
LINE
8
Shape2DView
10
18.107400
20
52.800200
11
17.777800
21
52.800200
0
LINE
8
Shape2DView
10
18.311100
20
52.800200
11
18.311100
21
52.865100
0
LINE
8
Shape2DView
10
23.936100
20
52.800200
11
18.311100
21
52.800200
0
LINE
8
Shape2DView
10
27.200000
20
52.800200
11
27.200000
21
51.256600
0
LINE
8
Shape2DView
10
26.133300
20
51.849400
11
26.133300
21
52.800200
0
LINE
8
Shape2DView
10
27.199900
20
51.256700
11
26.133300
21
51.849400
0
LINE
8
Shape2DView
10
31.899000
20
47.212900
11
34.692600
21
52.800200
0
LINE
8
Shape2DView
10
32.622800
20
46.275800
11
31.898900
21
47.212900
0
LINE
8
Shape2DView
10
35.022200
20
51.074300
11
32.622900
21
46.275700
0
LINE
8
Shape2DView
10
35.087000
20
36.089100
11
35.022200
21
36.089100
0
LINE
8
Shape2DView
10
35.022200
20
41.714100
11
35.022200
21
36.089100
0
LINE
8
Shape2DView
10
35.022200
20
36.089100
11
35.022200
21
35.555700
0
LINE
8
Shape2DView
10
35.022100
20
35.555800
11
35.013900
21
36.089000
0
LINE
8
Shape2DView
10
27.200000
20
35.022400
11
35.022200
21
35.022400
0
LINE
8
Shape2DView
10
27.200000
20
35.429900
11
27.200000
21
35.022400
0
LINE
8
Shape2DView
10
27.529600
20
36.089100
11
27.200000
21
35.429900
0
LINE
8
Shape2DView
10
35.013900
20
36.089100
11
27.529600
21
36.089100
0
LINE
8
Shape2DView
10
35.022200
20
27.200200
11
27.200000
21
27.200200
0
LINE
8
Shape2DView
10
27.200000
20
26.133600
11
35.022200
21
26.133600
0
LINE
8
Shape2DView
10
27.200000
20
27.200200
11
27.200000
21
26.133600
0
LINE
8
Shape2DView
10
35.022200
20
18.311400
11
35.022200
21
17.903900
0
LINE
8
Shape2DView
10
35.022200
20
17.244700
11
34.692600
21
17.244700
0
LINE
8
Shape2DView
10
34.692600
20
17.244700
11
35.022200
21
17.903900
0
LINE
8
Shape2DView
10
29.747200
20
4.968860
11
28.899400
21
5.658100
0
LINE
8
Shape2DView
10
35.022200
20
15.518700
11
29.747200
21
4.968810
0
LINE
8
Shape2DView
10
28.899300
20
5.658110
11
34.692600
21
17.244700
0
LINE
8
Shape2DView
10
35.022200
20
8.889130
11
35.022200
21
2.730730
0
LINE
8
Shape2DView
10
33.786700
20
0.000174
11
34.071400
21
0.533537
0
LINE
8
Shape2DView
10
34.071400
20
-0.533106
11
33.786700
21
0.000258
0
LINE
8
Shape2DView
10
35.022200
20
-0.533084
11
34.071300
21
-0.533084
0
LINE
8
Shape2DView
10
34.071300
20
0.533582
11
35.022200
21
0.533582
0
LINE
8
Shape2DView
10
35.022200
20
-2.730230
11
35.022200
21
-8.888630
0
LINE
8
Shape2DView
10
18.374100
20
-17.777500
11
18.640700
21
-18.310900
0
LINE
8
Shape2DView
10
35.022200
20
-18.310900
11
18.640700
21
-18.310900
0
LINE
8
Shape2DView
10
27.200000
20
-17.244200
11
35.022200
21
-17.244200
0
LINE
8
Shape2DView
10
27.200000
20
-17.244200
11
27.200000
21
-17.777500
0
LINE
8
Shape2DView
10
27.200000
20
-17.777500
11
26.133300
21
-17.777500
0
LINE
8
Shape2DView
10
26.133300
20
-17.777500
11
26.133300
21
-17.244200
0
LINE
8
Shape2DView
10
18.640700
20
-17.244200
11
26.133300
21
-17.244200
0
LINE
8
Shape2DView
10
18.640700
20
-17.244200
11
18.374100
21
-17.777500
0
LINE
8
Shape2DView
10
35.022200
20
-27.199700
11
23.085200
21
-27.199700
0
LINE
8
Shape2DView
10
22.551900
20
-26.133100
11
35.022200
21
-26.133100
0
LINE
8
Shape2DView
10
22.551900
20
-26.133100
11
23.085200
21
-27.199700
0
LINE
8
Shape2DView
10
35.087000
20
-36.088600
11
35.022200
21
-36.088600
0
LINE
8
Shape2DView
10
35.022200
20
-35.555200
11
35.022200
21
-36.088600
0
LINE
8
Shape2DView
10
35.013900
20
-36.088700
11
35.022100
21
-35.555200
0
LINE
8
Shape2DView
10
26.996200
20
-35.021900
11
35.022200
21
-35.021900
0
LINE
8
Shape2DView
10
26.996200
20
-35.021900
11
27.529600
21
-36.088600
0
LINE
8
Shape2DView
10
35.013900
20
-36.088600
11
27.529600
21
-36.088600
0
LINE
8
Shape2DView
10
35.022200
20
-36.088600
11
35.022200
21
-41.713600
0
LINE
8
Shape2DView
10
31.899000
20
-47.212400
11
34.692600
21
-52.799700
0
LINE
8
Shape2DView
10
32.622900
20
-46.275200
11
35.022200
21
-51.073800
0
LINE
8
Shape2DView
10
31.898800
20
-47.212500
11
32.622900
21
-46.275200
0
LINE
8
Shape2DView
10
18.311100
20
-52.864600
11
18.311100
21
-52.799700
0
LINE
8
Shape2DView
10
23.936100
20
-52.799700
11
18.311100
21
-52.799700
0
LINE
8
Shape2DView
10
18.128700
20
-52.842400
11
18.311100
21
-52.864600
0
LINE
8
Shape2DView
10
17.244500
20
-51.073800
11
17.244500
21
-52.799700
0
LINE
8
Shape2DView
10
17.244500
20
-51.073800
11
18.105800
21
-52.796600
0
LINE
8
Shape2DView
10
17.777700
20
-52.799700
11
18.105800
21
-52.796600
0
LINE
8
Shape2DView
10
18.107400
20
-52.799700
11
17.777800
21
-52.799700
0
LINE
8
Shape2DView
10
18.107400
20
-52.799700
11
18.128700
21
-52.842400
0
LINE
8
Shape2DView
10
9.751830
20
-36.088600
11
17.244500
21
-51.073800
0
LINE
8
Shape2DView
10
9.751830
20
-36.088600
11
9.422210
21
-36.088600
0
LINE
8
Shape2DView
10
9.422210
20
-37.814500
11
9.422210
21
-36.088600
0
LINE
8
Shape2DView
10
16.914800
20
-52.799700
11
9.422210
21
-37.814500
0
LINE
8
Shape2DView
10
8.355550
20
-37.814500
11
8.355550
21
-52.799700
0
LINE
8
Shape2DView
10
8.888880
20
-36.747900
11
8.355550
21
-37.814500
0
LINE
8
Shape2DView
10
9.422210
20
-37.814500
11
8.888880
21
-36.747900
0
LINE
8
Shape2DView
10
9.422210
20
-52.799700
11
9.422210
21
-37.814500
0
LINE
8
Shape2DView
10
0.862951
20
-52.799700
11
0.329618
21
-52.799700
0
LINE
8
Shape2DView
10
-0.329618
20
-52.799700
11
-0.862951
21
-52.799700
0
LINE
8
Shape2DView
10
-0.329618
20
-52.799700
11
0.000000
21
-52.140500
0
LINE
8
Shape2DView
10
0.329618
20
-52.799700
11
0.000000
21
-52.140500
0
LINE
8
Shape2DView
10
-8.888880
20
-36.747900
11
-8.355550
21
-37.814500
0
LINE
8
Shape2DView
10
-8.888880
20
-36.747900
11
-9.422210
21
-37.814500
0
LINE
8
Shape2DView
10
-9.422210
20
-52.799700
11
-9.422210
21
-37.814500
0
LINE
8
Shape2DView
10
-8.355550
20
-37.814500
11
-8.355550
21
-52.799700
0
LINE
8
Shape2DView
10
-9.422210
20
-37.814500
11
-16.914800
21
-52.799700
0
LINE
8
Shape2DView
10
-9.422210
20
-37.814500
11
-9.422210
21
-36.088600
0
LINE
8
Shape2DView
10
-9.422210
20
-36.088600
11
-9.751830
21
-36.088600
0
LINE
8
Shape2DView
10
-17.244500
20
-51.073800
11
-9.751830
21
-36.088600
0
LINE
8
Shape2DView
10
-17.244500
20
-51.073800
11
-17.244500
21
-52.799700
0
LINE
8
Shape2DView
10
-18.311100
20
-52.864600
11
-18.128700
21
-52.842400
0
LINE
8
Shape2DView
10
-18.128700
20
-52.842400
11
-18.107400
21
-52.799700
0
LINE
8
Shape2DView
10
-17.777800
20
-52.799700
11
-18.107400
21
-52.799700
0
LINE
8
Shape2DView
10
-18.105800
20
-52.796600
11
-17.244500
21
-51.073800
0
LINE
8
Shape2DView
10
-18.105900
20
-52.796600
11
-17.777700
21
-52.799700
0
LINE
8
Shape2DView
10
-18.311100
20
-52.799700
11
-23.936200
21
-52.799700
0
LINE
8
Shape2DView
10
-18.311100
20
-52.864600
11
-18.311100
21
-52.799700
0
LINE
8
Shape2DView
10
-32.622900
20
-46.275200
11
-31.898900
21
-47.212500
0
LINE
8
Shape2DView
10
-34.692600
20
-52.799700
11
-31.899000
21
-47.212400
0
LINE
8
Shape2DView
10
-32.622900
20
-46.275200
11
-35.022200
21
-51.073800
0
LINE
8
Shape2DView
10
-32.080000
20
45.189800
11
-33.290524
21
43.087247
0
LINE
8
Shape2DView
10
-33.290524
20
43.087247
11
-34.190347
21
40.846870
0
LINE
8
Shape2DView
10
-34.190347
20
40.846870
11
-34.768472
21
38.502782
0
LINE
8
Shape2DView
10
-34.768472
20
38.502782
11
-35.013900
21
36.089100
0
LINE
8
Shape2DView
10
-32.622800
20
46.275800
11
-33.983749
21
44.079840
0
LINE
8
Shape2DView
10
-33.983749
20
44.079840
11
-35.022100
21
41.714200
0
LINE
8
Shape2DView
10
-35.013900
20
36.089100
11
-35.022200
21
36.089100
0
LINE
8
Shape2DView
10
-23.936100
20
52.800200
11
-26.196502
21
51.816781
0
LINE
8
Shape2DView
10
-26.196502
20
51.816781
11
-28.295307
21
50.544985
0
LINE
8
Shape2DView
10
-28.295307
20
50.544985
11
-30.205208
21
49.003971
0
LINE
8
Shape2DView
10
-30.205208
20
49.003971
11
-31.898900
21
47.212900
0
LINE
8
Shape2DView
10
-18.311100
20
52.791900
11
-20.213969
21
52.627299
0
LINE
8
Shape2DView
10
-20.213969
20
52.627299
11
-22.070123
21
52.257535
0
LINE
8
Shape2DView
10
-22.070123
20
52.257535
11
-23.864346
21
51.690329
0
LINE
8
Shape2DView
10
-23.864346
20
51.690329
11
-25.581424
21
50.933402
0
LINE
8
Shape2DView
10
-25.581424
20
50.933402
11
-27.206143
21
49.994475
0
LINE
8
Shape2DView
10
-27.206143
20
49.994475
11
-28.723288
21
48.881268
0
LINE
8
Shape2DView
10
-28.723288
20
48.881268
11
-30.117645
21
47.601503
0
LINE
8
Shape2DView
10
-30.117645
20
47.601503
11
-31.374000
21
46.162900
0
LINE
8
Shape2DView
10
-18.311100
20
52.792000
11
-18.311100
21
52.800200
0
LINE
8
Shape2DView
10
-27.529600
20
36.089100
11
-32.080000
21
45.189900
0
LINE
8
Shape2DView
10
-26.666600
20
36.089100
11
-27.529600
21
36.089100
0
LINE
8
Shape2DView
10
-26.666700
20
36.089100
11
-26.338500
21
36.092200
0
LINE
8
Shape2DView
10
-31.373900
20
46.163000
11
-26.338500
21
36.092300
0
LINE
8
Shape2DView
10
-18.107400
20
52.800200
11
-18.311100
21
52.800200
0
LINE
8
Shape2DView
10
-35.022200
20
-41.713600
11
-33.983849
21
-44.079240
0
LINE
8
Shape2DView
10
-33.983849
20
-44.079240
11
-32.622900
21
-46.275200
0
LINE
8
Shape2DView
10
-35.013900
20
-36.088600
11
-34.768459
21
-38.502314
0
LINE
8
Shape2DView
10
-34.768459
20
-38.502314
11
-34.190313
21
-40.846430
0
LINE
8
Shape2DView
10
-34.190313
20
-40.846430
11
-33.290461
21
-43.086830
0
LINE
8
Shape2DView
10
-33.290461
20
-43.086830
11
-32.079900
21
-45.189400
0
LINE
8
Shape2DView
10
-32.080000
20
-45.189400
11
-32.622900
21
-46.275200
0
LINE
8
Shape2DView
10
-35.013900
20
-36.088600
11
-35.022200
21
-36.088600
0
LINE
8
Shape2DView
10
-26.337000
20
-36.088600
11
-27.529600
21
-36.088600
0
LINE
8
Shape2DView
10
-26.337000
20
-36.088600
11
-25.803700
21
-35.021900
0
LINE
8
Shape2DView
10
-26.996200
20
-35.021900
11
-25.803700
21
-35.021900
0
LINE
8
Shape2DView
10
-23.085200
20
-27.199700
11
-21.892600
21
-27.199700
0
LINE
8
Shape2DView
10
-21.359200
20
-26.133100
11
-22.551900
21
-26.133100
0
LINE
8
Shape2DView
10
-21.892600
20
-27.199700
11
-21.359200
21
-26.133100
0
LINE
8
Shape2DView
10
-30.248100
20
-8.355300
11
-30.781400
21
-9.421960
0
LINE
8
Shape2DView
10
-31.440700
20
-8.355300
11
-30.248100
21
-8.355300
0
LINE
8
Shape2DView
10
-35.022200
20
-8.355300
11
-35.013900
21
-8.355300
0
LINE
8
Shape2DView
10
-33.786700
20
0.000240
11
-35.022200
21
-2.730150
0
LINE
8
Shape2DView
10
-33.786700
20
0.000166
11
-33.146100
21
-1.066440
0
LINE
8
Shape2DView
10
-33.146100
20
-1.066390
11
-33.912744
21
-2.802950
0
LINE
8
Shape2DView
10
-33.912744
20
-2.802950
11
-34.482456
21
-4.607732
0
LINE
8
Shape2DView
10
-34.482456
20
-4.607732
11
-34.850964
21
-6.464077
0
LINE
8
Shape2DView
10
-34.850964
20
-6.464077
11
-35.014000
21
-8.355320
0
LINE
8
Shape2DView
10
-35.022300
20
2.730730
11
-33.786700
21
0.000166
0
LINE
8
Shape2DView
10
-33.146000
20
1.067000
11
-33.786700
21
0.000240
0
LINE
8
Shape2DView
10
-35.022200
20
8.889200
11
-34.902499
21
6.860704
0
LINE
8
Shape2DView
10
-34.902499
20
6.860704
11
-34.546636
21
4.867161
0
LINE
8
Shape2DView
10
-34.546636
20
4.867161
11
-33.959530
21
2.929081
0
LINE
8
Shape2DView
10
-33.959530
20
2.929081
11
-33.146100
21
1.066970
0
LINE
8
Shape2DView
10
-29.747200
20
4.968810
11
-29.254100
21
3.982480
0
LINE
8
Shape2DView
10
-28.413100
20
4.685640
11
-28.899300
21
5.658110
0
LINE
8
Shape2DView
10
-28.413100
20
4.685620
11
-29.254100
21
3.982450
0
LINE
8
Shape2DView
10
-18.640700
20
17.244700
11
-34.692600
21
17.244700
0
LINE
8
Shape2DView
10
-18.640700
20
17.244700
11
-18.374100
21
17.778000
0
LINE
8
Shape2DView
10
-18.374100
20
17.778000
11
-18.640700
21
18.311400
0
LINE
8
Shape2DView
10
-35.022200
20
18.311400
11
-18.640700
21
18.311400
0
LINE
8
Shape2DView
10
-21.359200
20
26.133600
11
-22.551900
21
26.133600
0
LINE
8
Shape2DView
10
-21.892600
20
27.200200
11
-21.359200
21
26.133600
0
LINE
8
Shape2DView
10
-23.085200
20
27.200200
11
-21.892600
21
27.200200
0
LINE
8
Shape2DView
10
-26.666600
20
36.089100
11
-26.666600
21
35.022400
0
LINE
8
Shape2DView
10
-26.996200
20
35.022400
11
-26.666600
21
35.022400
0
LINE
8
Shape2DView
10
-18.107400
20
52.800200
11
-18.105800
21
52.797100
0
LINE
8
Shape2DView
10
-18.105700
20
52.797100
11
-18.311100
21
52.791900
0
LINE
8
Shape2DView
10
-18.311100
20
38.248600
11
-18.311100
21
52.792000
0
LINE
8
Shape2DView
10
-18.311100
20
38.248600
11
-17.244400
21
38.890800
0
LINE
8
Shape2DView
10
-17.244500
20
51.074300
11
-17.244500
21
38.890800
0
LINE
8
Shape2DView
10
-13.070400
20
42.726300
11
-12.545500
21
41.676400
0
LINE
8
Shape2DView
10
-12.545500
20
41.676300
11
-11.821400
21
42.613600
0
LINE
8
Shape2DView
10
-12.364400
20
43.699400
11
-11.821500
21
42.613500
0
LINE
8
Shape2DView
10
-12.364400
20
43.699400
11
-11.153865
21
45.801950
0
LINE
8
Shape2DView
10
-11.153865
20
45.801950
11
-10.254032
21
48.042327
0
LINE
8
Shape2DView
10
-10.254032
20
48.042327
11
-9.675897
21
50.386415
0
LINE
8
Shape2DView
10
-9.675897
20
50.386415
11
-9.430460
21
52.800100
0
LINE
8
Shape2DView
10
-11.821400
20
42.613600
11
-10.460493
21
44.809515
0
LINE
8
Shape2DView
10
-10.460493
20
44.809515
11
-9.422170
21
47.175100
0
LINE
8
Shape2DView
10
-9.422210
20
37.815000
11
-9.422210
21
47.175100
0
LINE
8
Shape2DView
10
-9.422210
20
37.815000
11
-8.888880
21
36.748400
0
LINE
8
Shape2DView
10
-8.888880
20
36.748400
11
-8.355550
21
37.815000
0
LINE
8
Shape2DView
10
-8.355550
20
52.800200
11
-8.355550
21
37.815000
0
LINE
8
Shape2DView
10
-8.888880
20
36.748400
11
-8.559270
21
36.089100
0
LINE
8
Shape2DView
10
-8.355550
20
36.089100
11
-8.559270
21
36.089100
0
LINE
8
Shape2DView
10
-8.025940
20
36.089100
11
-8.292600
21
35.555700
0
LINE
8
Shape2DView
10
-8.355550
20
35.681700
11
-8.292600
21
35.555700
0
LINE
8
Shape2DView
10
-8.355550
20
36.089100
11
-8.355550
21
35.681700
0
LINE
8
Shape2DView
10
9.422210
20
36.089100
11
8.559270
21
36.089100
0
LINE
8
Shape2DView
10
8.559270
20
36.089100
11
8.355550
21
35.681700
0
LINE
8
Shape2DView
10
8.355550
20
36.089100
11
8.355550
21
35.681700
0
LINE
8
Shape2DView
10
9.422210
20
35.429900
11
9.422210
21
36.089100
0
LINE
8
Shape2DView
10
9.422210
20
35.429900
11
9.751830
21
36.089100
0
LINE
8
Shape2DView
10
18.311100
20
52.800200
11
18.107400
21
52.800200
0
LINE
8
Shape2DView
10
18.105800
20
52.797100
11
18.107400
21
52.800200
0
LINE
8
Shape2DView
10
18.311100
20
52.791900
11
18.105800
21
52.797100
0
LINE
8
Shape2DView
10
18.311100
20
36.089100
11
18.311100
21
52.792000
0
LINE
8
Shape2DView
10
18.311100
20
36.089100
11
17.244500
21
36.089100
0
LINE
8
Shape2DView
10
17.244500
20
51.074300
11
17.244500
21
36.089100
0
LINE
8
Shape2DView
10
18.311100
20
52.792000
11
18.311100
21
52.800200
0
LINE
8
Shape2DView
10
26.133300
20
51.849400
11
23.936100
21
52.800200
0
LINE
8
Shape2DView
10
26.133300
20
50.640700
11
26.133300
21
51.849400
0
LINE
8
Shape2DView
10
26.133300
20
50.640700
11
24.284412
21
51.525534
0
LINE
8
Shape2DView
10
24.284412
20
51.525534
11
22.350504
21
52.182839
0
LINE
8
Shape2DView
10
22.350504
20
52.182839
11
20.352443
21
52.606874
0
LINE
8
Shape2DView
10
20.352443
20
52.606874
11
18.311100
21
52.791900
0
LINE
8
Shape2DView
10
27.200000
20
51.256600
11
27.200000
21
49.998500
0
LINE
8
Shape2DView
10
27.200000
20
49.998400
11
26.133300
21
50.640700
0
LINE
8
Shape2DView
10
31.373900
20
46.163000
11
31.899000
21
47.212900
0
LINE
8
Shape2DView
10
32.080000
20
45.189800
11
31.373900
21
46.163000
0
LINE
8
Shape2DView
10
32.622900
20
46.275700
11
32.080000
21
45.189900
0
LINE
8
Shape2DView
10
35.022100
20
41.714200
11
33.983749
21
44.079840
0
LINE
8
Shape2DView
10
33.983749
20
44.079840
11
32.622800
21
46.275800
0
LINE
8
Shape2DView
10
35.022200
20
36.089100
11
35.013900
21
36.089100
0
LINE
8
Shape2DView
10
35.013900
20
36.089000
11
34.768482
21
38.502708
0
LINE
8
Shape2DView
10
34.768482
20
38.502708
11
34.190361
21
40.846822
0
LINE
8
Shape2DView
10
34.190361
20
40.846822
11
33.290534
21
43.087224
0
LINE
8
Shape2DView
10
33.290534
20
43.087224
11
32.080000
21
45.189800
0
LINE
8
Shape2DView
10
26.996200
20
35.022400
11
27.200000
21
35.022400
0
LINE
8
Shape2DView
10
27.200000
20
35.429900
11
26.996200
21
35.022400
0
LINE
8
Shape2DView
10
27.529600
20
36.089100
11
27.200000
21
36.089100
0
LINE
8
Shape2DView
10
27.200000
20
36.089100
11
27.200000
21
35.429900
0
LINE
8
Shape2DView
10
27.200000
20
27.200200
11
26.133300
21
27.200200
0
LINE
8
Shape2DView
10
26.133300
20
26.133600
11
27.200000
21
26.133600
0
LINE
8
Shape2DView
10
26.133300
20
26.133600
11
26.133300
21
27.200200
0
LINE
8
Shape2DView
10
27.200000
20
18.311400
11
27.200000
21
17.244700
0
LINE
8
Shape2DView
10
34.692600
20
17.244700
11
27.200000
21
17.244700
0
LINE
8
Shape2DView
10
27.200000
20
18.311400
11
35.022200
21
18.311400
0
LINE
8
Shape2DView
10
28.413100
20
4.685640
11
28.899300
21
5.658110
0
LINE
8
Shape2DView
10
29.747200
20
4.968810
11
29.254100
21
3.982480
0
LINE
8
Shape2DView
10
29.254100
20
3.982450
11
28.413100
21
4.685620
0
LINE
8
Shape2DView
10
34.071400
20
0.533537
11
35.022300
21
2.730730
0
LINE
8
Shape2DView
10
33.146100
20
1.066960
11
33.959529
21
2.929068
0
LINE
8
Shape2DView
10
33.959529
20
2.929068
11
34.546635
21
4.867146
0
LINE
8
Shape2DView
10
34.546635
20
4.867146
11
34.902498
21
6.860686
0
LINE
8
Shape2DView
10
34.902498
20
6.860686
11
35.022200
21
8.889180
0
LINE
8
Shape2DView
10
33.478700
20
0.533667
11
33.146000
21
1.067020
0
LINE
8
Shape2DView
10
33.478700
20
0.533582
11
34.071300
21
0.533582
0
LINE
8
Shape2DView
10
33.786700
20
0.000258
11
33.478700
21
0.533667
0
LINE
8
Shape2DView
10
33.478700
20
-0.533077
11
33.786700
21
0.000174
0
LINE
8
Shape2DView
10
34.071300
20
-0.533084
11
33.478700
21
-0.533084
0
LINE
8
Shape2DView
10
35.022200
20
-2.730130
11
34.071400
21
-0.533106
0
LINE
8
Shape2DView
10
33.146100
20
-1.066430
11
33.478700
21
-0.533077
0
LINE
8
Shape2DView
10
35.022200
20
-8.888610
11
34.902498
21
-6.860116
0
LINE
8
Shape2DView
10
34.902498
20
-6.860116
11
34.546635
21
-4.866576
0
LINE
8
Shape2DView
10
34.546635
20
-4.866576
11
33.959529
21
-2.928498
0
LINE
8
Shape2DView
10
33.959529
20
-2.928498
11
33.146100
21
-1.066390
0
LINE
8
Shape2DView
10
18.374100
20
-17.777500
11
18.311100
21
-17.903400
0
LINE
8
Shape2DView
10
18.311100
20
-18.310900
11
18.311100
21
-17.903400
0
LINE
8
Shape2DView
10
18.640700
20
-18.310900
11
18.311100
21
-18.310900
0
LINE
8
Shape2DView
10
26.133300
20
-17.244200
11
27.200000
21
-17.244200
0
LINE
8
Shape2DView
10
18.311100
20
-17.651600
11
18.374100
21
-17.777500
0
LINE
8
Shape2DView
10
18.311100
20
-17.244200
11
18.640700
21
-17.244200
0
LINE
8
Shape2DView
10
18.311100
20
-17.651600
11
18.311100
21
-17.244200
0
LINE
8
Shape2DView
10
23.085200
20
-27.199700
11
21.892600
21
-27.199700
0
LINE
8
Shape2DView
10
21.359200
20
-26.133100
11
22.551900
21
-26.133100
0
LINE
8
Shape2DView
10
21.359200
20
-26.133100
11
21.892600
21
-27.199700
0
LINE
8
Shape2DView
10
35.022200
20
-36.088600
11
35.013900
21
-36.088600
0
LINE
8
Shape2DView
10
25.803700
20
-35.021900
11
26.996200
21
-35.021900
0
LINE
8
Shape2DView
10
25.803700
20
-35.021900
11
26.337000
21
-36.088600
0
LINE
8
Shape2DView
10
27.529600
20
-36.088600
11
26.337000
21
-36.088600
0
LINE
8
Shape2DView
10
32.080000
20
-45.189400
11
32.622900
21
-46.275200
0
LINE
8
Shape2DView
10
32.622900
20
-46.275200
11
33.983849
21
-44.079240
0
LINE
8
Shape2DView
10
33.983849
20
-44.079240
11
35.022200
21
-41.713600
0
LINE
8
Shape2DView
10
32.079900
20
-45.189400
11
33.290450
21
-43.086853
0
LINE
8
Shape2DView
10
33.290450
20
-43.086853
11
34.190300
21
-40.846477
0
LINE
8
Shape2DView
10
34.190300
20
-40.846477
11
34.768449
21
-38.502388
0
LINE
8
Shape2DView
10
34.768449
20
-38.502388
11
35.013900
21
-36.088700
0
LINE
8
Shape2DView
10
31.373900
20
-46.162500
11
31.899000
21
-47.212400
0
LINE
8
Shape2DView
10
31.373900
20
-46.162500
11
32.079900
21
-45.189400
0
LINE
8
Shape2DView
10
18.311100
20
-52.799700
11
18.107400
21
-52.799700
0
LINE
8
Shape2DView
10
23.936100
20
-52.799700
11
26.196468
21
-51.816295
0
LINE
8
Shape2DView
10
26.196468
20
-51.816295
11
28.295244
21
-50.544520
0
LINE
8
Shape2DView
10
28.295244
20
-50.544520
11
30.205123
21
-49.003536
0
LINE
8
Shape2DView
10
30.205123
20
-49.003536
11
31.898800
21
-47.212500
0
LINE
8
Shape2DView
10
18.311000
20
-52.791400
11
20.213864
21
-52.626808
0
LINE
8
Shape2DView
10
20.213864
20
-52.626808
11
22.070013
21
-52.257055
0
LINE
8
Shape2DView
10
22.070013
20
-52.257055
11
23.864233
21
-51.689861
0
LINE
8
Shape2DView
10
23.864233
20
-51.689861
11
25.581310
21
-50.932947
0
LINE
8
Shape2DView
10
25.581310
20
-50.932947
11
27.206030
21
-49.994033
0
LINE
8
Shape2DView
10
27.206030
20
-49.994033
11
28.723177
21
-48.880840
0
LINE
8
Shape2DView
10
28.723177
20
-48.880840
11
30.117539
21
-47.601089
0
LINE
8
Shape2DView
10
30.117539
20
-47.601089
11
31.373900
21
-46.162500
0
LINE
8
Shape2DView
10
18.311100
20
-52.799700
11
18.311100
21
-52.791500
0
LINE
8
Shape2DView
10
18.105800
20
-52.796600
11
18.311000
21
-52.791400
0
LINE
8
Shape2DView
10
17.244500
20
-36.088600
11
17.244500
21
-51.073800
0
LINE
8
Shape2DView
10
18.311100
20
-36.088600
11
17.244500
21
-36.088600
0
LINE
8
Shape2DView
10
18.311100
20
-52.791500
11
18.311100
21
-36.088600
0
LINE
8
Shape2DView
10
18.105800
20
-52.796600
11
18.107400
21
-52.799700
0
LINE
8
Shape2DView
10
9.485170
20
-35.555200
11
9.751830
21
-36.088600
0
LINE
8
Shape2DView
10
9.485170
20
-35.555200
11
9.422210
21
-35.681200
0
LINE
8
Shape2DView
10
9.422210
20
-36.088600
11
9.422210
21
-35.681200
0
LINE
8
Shape2DView
10
9.218500
20
-36.088600
11
8.888880
21
-36.747900
0
LINE
8
Shape2DView
10
9.422210
20
-36.088600
11
9.218500
21
-36.088600
0
LINE
8
Shape2DView
10
8.355550
20
-36.088600
11
8.355550
21
-37.814500
0
LINE
8
Shape2DView
10
8.559270
20
-36.088600
11
8.355550
21
-36.088600
0
LINE
8
Shape2DView
10
8.888880
20
-36.747900
11
8.559270
21
-36.088600
0
LINE
8
Shape2DView
10
8.355550
20
-37.814500
11
0.862951
21
-52.799700
0
LINE
8
Shape2DView
10
8.355550
20
-36.088600
11
8.025940
21
-36.088600
0
LINE
8
Shape2DView
10
0.000000
20
-52.140500
11
8.025940
21
-36.088600
0
LINE
8
Shape2DView
10
-8.355550
20
-37.814500
11
-0.862951
21
-52.799700
0
LINE
8
Shape2DView
10
-8.355550
20
-36.088600
11
-8.355550
21
-37.814500
0
LINE
8
Shape2DView
10
-8.025940
20
-36.088600
11
-8.355550
21
-36.088600
0
LINE
8
Shape2DView
10
0.000000
20
-52.140500
11
-8.025940
21
-36.088600
0
LINE
8
Shape2DView
10
-8.355550
20
-36.088600
11
-8.559270
21
-36.088600
0
LINE
8
Shape2DView
10
-8.559270
20
-36.088600
11
-8.888880
21
-36.747900
0
LINE
8
Shape2DView
10
-9.218500
20
-36.088600
11
-8.888880
21
-36.747900
0
LINE
8
Shape2DView
10
-9.218500
20
-36.088600
11
-9.422210
21
-36.088600
0
LINE
8
Shape2DView
10
-9.422210
20
-36.088600
11
-9.422210
21
-35.681200
0
LINE
8
Shape2DView
10
-9.485170
20
-35.555200
11
-9.422210
21
-35.681200
0
LINE
8
Shape2DView
10
-9.751830
20
-36.088600
11
-9.485170
21
-35.555200
0
LINE
8
Shape2DView
10
-18.107400
20
-52.799700
11
-18.311100
21
-52.799700
0
LINE
8
Shape2DView
10
-18.107400
20
-52.799700
11
-18.105800
21
-52.796600
0
LINE
8
Shape2DView
10
-17.244500
20
-36.088600
11
-18.311100
21
-36.088600
0
LINE
8
Shape2DView
10
-18.311100
20
-52.791500
11
-18.311100
21
-36.088600
0
LINE
8
Shape2DView
10
-18.311000
20
-52.791400
11
-18.105900
21
-52.796600
0
LINE
8
Shape2DView
10
-17.244500
20
-36.088600
11
-17.244500
21
-51.073800
0
LINE
8
Shape2DView
10
-31.373900
20
-46.162500
11
-30.117539
21
-47.601089
0
LINE
8
Shape2DView
10
-30.117539
20
-47.601089
11
-28.723177
21
-48.880840
0
LINE
8
Shape2DView
10
-28.723177
20
-48.880840
11
-27.206030
21
-49.994033
0
LINE
8
Shape2DView
10
-27.206030
20
-49.994033
11
-25.581310
21
-50.932947
0
LINE
8
Shape2DView
10
-25.581310
20
-50.932947
11
-23.864233
21
-51.689861
0
LINE
8
Shape2DView
10
-23.864233
20
-51.689861
11
-22.070013
21
-52.257055
0
LINE
8
Shape2DView
10
-22.070013
20
-52.257055
11
-20.213864
21
-52.626808
0
LINE
8
Shape2DView
10
-20.213864
20
-52.626808
11
-18.311000
21
-52.791400
0
LINE
8
Shape2DView
10
-18.311100
20
-52.799700
11
-18.311100
21
-52.791500
0
LINE
8
Shape2DView
10
-31.898900
20
-47.212500
11
-30.205223
21
-49.003536
0
LINE
8
Shape2DView
10
-30.205223
20
-49.003536
11
-28.295344
21
-50.544520
0
LINE
8
Shape2DView
10
-28.295344
20
-50.544520
11
-26.196568
21
-51.816295
0
LINE
8
Shape2DView
10
-26.196568
20
-51.816295
11
-23.936200
21
-52.799700
0
LINE
8
Shape2DView
10
-31.899000
20
-47.212400
11
-31.373900
21
-46.162500
0
LINE
8
Shape2DView
10
-32.079900
20
-45.189400
11
-31.373900
21
-46.162500
0
LINE
8
Shape2DView
10
-26.337000
20
36.089100
11
-26.666600
21
36.089100
0
LINE
8
Shape2DView
10
-26.338500
20
36.092300
11
-26.337000
21
36.089100
0
LINE
8
Shape2DView
10
-27.529600
20
-36.088600
11
-32.080000
21
-45.189400
0
LINE
8
Shape2DView
10
-31.373900
20
-46.162500
11
-26.337000
21
-36.088600
0
LINE
8
Shape2DView
10
-18.311100
20
-36.088600
11
-26.337000
21
-36.088600
0
LINE
8
Shape2DView
10
-18.311100
20
-36.088600
11
-18.311100
21
-35.021900
0
LINE
8
Shape2DView
10
-25.803700
20
-35.021900
11
-18.311100
21
-35.021900
0
LINE
8
Shape2DView
10
-25.803700
20
-35.021900
11
-21.892600
21
-27.199700
0
LINE
8
Shape2DView
10
-23.085200
20
-27.199700
11
-26.996200
21
-35.021900
0
LINE
8
Shape2DView
10
-18.374100
20
-17.777500
11
-22.551900
21
-26.133100
0
LINE
8
Shape2DView
10
-21.359200
20
-26.133100
11
-18.311100
21
-20.036700
0
LINE
8
Shape2DView
10
-18.374100
20
-17.777500
11
-18.311100
21
-17.903400
0
LINE
8
Shape2DView
10
-18.311100
20
-20.036700
11
-18.311100
21
-17.903400
0
LINE
8
Shape2DView
10
-21.892600
20
-27.199700
11
-18.311100
21
-27.199700
0
LINE
8
Shape2DView
10
-18.311100
20
-26.133100
11
-21.359200
21
-26.133100
0
LINE
8
Shape2DView
10
-18.311100
20
-27.199700
11
-18.311100
21
-26.133100
0
LINE
8
Shape2DView
10
-22.551900
20
-9.421960
11
-30.781400
21
-9.421960
0
LINE
8
Shape2DView
10
-22.920300
20
-8.685010
11
-22.551900
21
-9.421960
0
LINE
8
Shape2DView
10
-23.936300
20
-8.355320
11
-22.920300
21
-8.685070
0
LINE
8
Shape2DView
10
-30.248100
20
-8.355300
11
-23.936200
21
-8.355300
0
LINE
8
Shape2DView
10
-28.899300
20
-5.657610
11
-30.248100
21
-8.355300
0
LINE
8
Shape2DView
10
-29.747300
20
-4.968300
11
-28.899300
21
-5.657660
0
LINE
8
Shape2DView
10
-31.440700
20
-8.355300
11
-29.747200
21
-4.968310
0
LINE
8
Shape2DView
10
-32.554700
20
0.000293
11
-33.146100
21
-1.066390
0
LINE
8
Shape2DView
10
-33.146100
20
1.066970
11
-32.554800
21
0.000287
0
LINE
8
Shape2DView
10
-29.747300
20
4.968850
11
-31.585172
21
3.138585
0
LINE
8
Shape2DView
10
-31.585172
20
3.138585
11
-33.146000
21
1.067000
0
LINE
8
Shape2DView
10
-22.920400
20
8.685540
11
-24.515140
21
8.137993
0
LINE
8
Shape2DView
10
-24.515140
20
8.137993
11
-26.049584
21
7.447680
0
LINE
8
Shape2DView
10
-26.049584
20
7.447680
11
-27.514186
21
6.619435
0
LINE
8
Shape2DView
10
-27.514186
20
6.619435
11
-28.899400
21
5.658090
0
LINE
8
Shape2DView
10
-29.254100
20
3.982450
11
-31.054547
21
2.115820
0
LINE
8
Shape2DView
10
-31.054547
20
2.115820
11
-32.554700
21
0.000293
0
LINE
8
Shape2DView
10
-23.589600
20
7.346910
11
-22.920300
21
8.685510
0
LINE
8
Shape2DView
10
-23.589600
20
7.346940
11
-26.108311
21
6.210142
0
LINE
8
Shape2DView
10
-26.108311
20
6.210142
11
-28.413100
21
4.685620
0
LINE
8
Shape2DView
10
-26.666600
20
1.192810
11
-28.413100
21
4.685640
0
LINE
8
Shape2DView
10
-27.262900
20
0.000249
11
-26.666600
21
1.192810
0
LINE
8
Shape2DView
10
-29.254100
20
3.982480
11
-27.262900
21
0.000249
0
LINE
8
Shape2DView
10
-18.311100
20
17.244700
11
-18.640700
21
17.244700
0
LINE
8
Shape2DView
10
-18.311100
20
17.244700
11
-18.311100
21
17.652100
0
LINE
8
Shape2DView
10
-18.311100
20
17.652100
11
-18.374100
21
17.778000
0
LINE
8
Shape2DView
10
-18.311100
20
17.903900
11
-18.311100
21
18.311400
0
LINE
8
Shape2DView
10
-18.640700
20
18.311400
11
-18.311100
21
18.311400
0
LINE
8
Shape2DView
10
-18.374100
20
17.778000
11
-18.311100
21
17.903900
0
LINE
8
Shape2DView
10
-18.640700
20
18.311400
11
-22.551900
21
26.133600
0
LINE
8
Shape2DView
10
-18.311100
20
18.311400
11
-18.311100
21
20.037200
0
LINE
8
Shape2DView
10
-21.359200
20
26.133600
11
-18.311100
21
20.037200
0
LINE
8
Shape2DView
10
-18.311100
20
26.133600
11
-21.359200
21
26.133600
0
LINE
8
Shape2DView
10
-18.311100
20
26.133600
11
-18.311100
21
27.200200
0
LINE
8
Shape2DView
10
-21.892600
20
27.200200
11
-18.311100
21
27.200200
0
LINE
8
Shape2DView
10
-25.803700
20
35.022400
11
-21.892600
21
27.200200
0
LINE
8
Shape2DView
10
-26.666600
20
35.022400
11
-25.803700
21
35.022400
0
LINE
8
Shape2DView
10
-23.085200
20
27.200200
11
-26.996200
21
35.022400
0
LINE
8
Shape2DView
10
-26.337000
20
36.089100
11
-25.813600
21
35.042400
0
LINE
8
Shape2DView
10
-26.666600
20
35.022400
11
-25.813700
21
35.042300
0
LINE
8
Shape2DView
10
-18.311100
20
37.039900
11
-18.311100
21
38.248600
0
LINE
8
Shape2DView
10
-18.311000
20
37.040000
11
-17.244400
21
37.632600
0
LINE
8
Shape2DView
10
-17.244500
20
38.890800
11
-17.244500
21
37.632600
0
LINE
8
Shape2DView
10
-17.244400
20
38.890800
11
-14.998719
21
40.635865
0
LINE
8
Shape2DView
10
-14.998719
20
40.635865
11
-13.070400
21
42.726300
0
LINE
8
Shape2DView
10
-17.244400
20
37.632600
11
-14.722580
21
39.454151
0
LINE
8
Shape2DView
10
-14.722580
20
39.454151
11
-12.545500
21
41.676300
0
LINE
8
Shape2DView
10
-12.545500
20
41.676400
11
-9.751830
21
36.089100
0
LINE
8
Shape2DView
10
-9.422210
20
36.089100
11
-9.751830
21
36.089100
0
LINE
8
Shape2DView
10
-9.422210
20
36.089100
11
-9.422210
21
37.815000
0
LINE
8
Shape2DView
10
-11.821500
20
42.613500
11
-9.422210
21
37.815000
0
LINE
8
Shape2DView
10
-9.218500
20
36.089100
11
-9.422210
21
36.089100
0
LINE
8
Shape2DView
10
-9.218500
20
36.089100
11
-8.888880
21
36.748400
0
LINE
8
Shape2DView
10
-8.559270
20
36.089100
11
-9.218500
21
36.089100
0
LINE
8
Shape2DView
10
-8.559270
20
36.089100
11
-8.355550
21
35.681700
0
LINE
8
Shape2DView
10
8.355550
20
35.681700
11
8.025940
21
35.022400
0
LINE
8
Shape2DView
10
-8.025940
20
35.022400
11
8.025940
21
35.022400
0
LINE
8
Shape2DView
10
-8.292600
20
35.555700
11
-8.025940
21
35.022400
0
LINE
8
Shape2DView
10
8.355550
20
36.089100
11
-8.025940
21
36.089100
0
LINE
8
Shape2DView
10
-8.292600
20
35.555700
11
-8.355550
21
35.429900
0
LINE
8
Shape2DView
10
-8.355550
20
35.681700
11
-8.355550
21
35.429900
0
LINE
8
Shape2DView
10
9.218500
20
35.022400
11
9.422210
21
35.429900
0
LINE
8
Shape2DView
10
8.355550
20
35.022400
11
9.218500
21
35.022400
0
LINE
8
Shape2DView
10
8.355550
20
35.681700
11
8.355550
21
35.022400
0
LINE
8
Shape2DView
10
17.244500
20
36.089100
11
9.751830
21
36.089100
0
LINE
8
Shape2DView
10
9.422210
20
35.022400
11
9.422210
21
35.429900
0
LINE
8
Shape2DView
10
17.244500
20
36.089100
11
17.244500
21
35.022400
0
LINE
8
Shape2DView
10
9.422210
20
35.022400
11
17.244500
21
35.022400
0
LINE
8
Shape2DView
10
18.311100
20
35.022400
11
18.311100
21
36.089100
0
LINE
8
Shape2DView
10
17.244500
20
35.022400
11
18.311100
21
35.022400
0
LINE
8
Shape2DView
10
31.898900
20
47.212900
11
29.721778
21
49.435108
0
LINE
8
Shape2DView
10
29.721778
20
49.435108
11
27.199900
21
51.256700
0
LINE
8
Shape2DView
10
31.373900
20
46.163000
11
29.445623
21
48.253377
0
LINE
8
Shape2DView
10
29.445623
20
48.253377
11
27.200000
21
49.998400
0
LINE
8
Shape2DView
10
27.200000
20
49.998500
11
27.200000
21
37.815000
0
LINE
8
Shape2DView
10
26.133300
20
36.089100
11
26.133300
21
50.640700
0
LINE
8
Shape2DView
10
26.337000
20
36.089100
11
26.133300
21
36.089100
0
LINE
8
Shape2DView
10
26.337000
20
36.089100
11
27.200000
21
37.815000
0
LINE
8
Shape2DView
10
27.200000
20
37.815000
11
31.373900
21
46.163000
0
LINE
8
Shape2DView
10
27.200000
20
37.815000
11
27.200000
21
36.089100
0
LINE
8
Shape2DView
10
32.080000
20
45.189900
11
27.529600
21
36.089100
0
LINE
8
Shape2DView
10
27.200000
20
35.022400
11
27.200000
21
27.200200
0
LINE
8
Shape2DView
10
26.996200
20
35.022400
11
26.133300
21
33.296500
0
LINE
8
Shape2DView
10
26.133300
20
27.200200
11
26.133300
21
33.296500
0
LINE
8
Shape2DView
10
26.133300
20
35.681700
11
26.337000
21
36.089100
0
LINE
8
Shape2DView
10
27.200000
20
36.089100
11
26.337000
21
36.089100
0
LINE
8
Shape2DView
10
26.133300
20
35.022400
11
26.996200
21
35.022400
0
LINE
8
Shape2DView
10
26.133300
20
35.022400
11
26.133300
21
35.681700
0
LINE
8
Shape2DView
10
27.200000
20
26.133600
11
27.200000
21
18.311400
0
LINE
8
Shape2DView
10
26.133300
20
18.311400
11
26.133300
21
26.133600
0
LINE
8
Shape2DView
10
26.133300
20
18.311400
11
27.200000
21
18.311400
0
LINE
8
Shape2DView
10
26.133300
20
27.200200
11
23.085200
21
27.200200
0
LINE
8
Shape2DView
10
22.551900
20
26.133600
11
26.133300
21
26.133600
0
LINE
8
Shape2DView
10
23.085200
20
27.200200
11
22.551900
21
26.133600
0
LINE
8
Shape2DView
10
26.133300
20
17.244700
11
26.133300
21
18.311400
0
LINE
8
Shape2DView
10
27.200000
20
17.244700
11
26.133300
21
17.244700
0
LINE
8
Shape2DView
10
27.200000
20
6.812270
11
27.200000
21
5.554090
0
LINE
8
Shape2DView
10
28.899400
20
5.658100
11
27.200000
21
6.812340
0
LINE
8
Shape2DView
10
28.413100
20
4.685620
11
27.199900
21
5.554150
0
LINE
8
Shape2DView
10
33.146000
20
1.067020
11
31.585124
21
3.138605
0
LINE
8
Shape2DView
10
31.585124
20
3.138605
11
29.747200
21
4.968860
0
LINE
8
Shape2DView
10
32.862700
20
0.533516
11
33.146100
21
1.066960
0
LINE
8
Shape2DView
10
32.220500
20
0.533582
11
32.862700
21
0.533582
0
LINE
8
Shape2DView
10
32.220500
20
0.533608
11
30.851524
21
2.356275
0
LINE
8
Shape2DView
10
30.851524
20
2.356275
11
29.254100
21
3.982450
0
LINE
8
Shape2DView
10
27.200000
20
0.533582
11
27.529600
21
0.533582
0
LINE
8
Shape2DView
10
29.254100
20
3.982480
11
27.529600
21
0.533582
0
LINE
8
Shape2DView
10
27.200000
20
2.259480
11
28.413100
21
4.685640
0
LINE
8
Shape2DView
10
27.200000
20
2.259480
11
27.200000
21
0.533582
0
LINE
8
Shape2DView
10
32.862700
20
0.533582
11
33.478700
21
0.533582
0
LINE
8
Shape2DView
10
32.554800
20
0.000275
11
32.862700
21
0.533516
0
LINE
8
Shape2DView
10
32.862800
20
-0.533100
11
32.554700
21
0.000290
0
LINE
8
Shape2DView
10
33.478700
20
-0.533084
11
32.862700
21
-0.533084
0
LINE
8
Shape2DView
10
33.146100
20
-1.066390
11
32.862800
21
-0.533100
0
LINE
8
Shape2DView
10
27.200000
20
-6.811770
11
27.200000
21
-17.244200
0
LINE
8
Shape2DView
10
27.200100
20
-6.811780
11
28.925703
21
-5.637486
0
LINE
8
Shape2DView
10
28.925703
20
-5.637486
11
30.501625
21
-4.279104
0
LINE
8
Shape2DView
10
30.501625
20
-4.279104
11
31.913285
21
-2.750722
0
LINE
8
Shape2DView
10
31.913285
20
-2.750722
11
33.146100
21
-1.066430
0
LINE
8
Shape2DView
10
18.311100
20
-17.903400
11
18.311100
21
-17.651600
0
LINE
8
Shape2DView
10
18.311100
20
-18.310900
11
18.107400
21
-18.310900
0
LINE
8
Shape2DView
10
18.311100
20
-17.903400
11
18.107400
21
-18.310900
0
LINE
8
Shape2DView
10
18.311100
20
-20.036700
11
21.359200
21
-26.133100
0
LINE
8
Shape2DView
10
18.640700
20
-18.310900
11
22.551900
21
-26.133100
0
LINE
8
Shape2DView
10
18.311100
20
-20.036700
11
18.311100
21
-18.310900
0
LINE
8
Shape2DView
10
26.133500
20
-7.404450
11
27.200100
21
-6.811780
0
LINE
8
Shape2DView
10
26.133300
20
-17.244200
11
26.133300
21
-7.404460
0
LINE
8
Shape2DView
10
22.920300
20
-8.685010
11
18.640700
21
-17.244200
0
LINE
8
Shape2DView
10
18.311100
20
-17.244200
11
18.311100
21
-15.518200
0
LINE
8
Shape2DView
10
21.556400
20
-9.027890
11
22.920300
21
-8.685060
0
LINE
8
Shape2DView
10
18.311100
20
-15.518200
11
21.556200
21
-9.027870
0
LINE
8
Shape2DView
10
18.107400
20
-17.244200
11
18.311100
21
-17.244200
0
LINE
8
Shape2DView
10
18.107400
20
-17.244200
11
18.311100
21
-17.651600
0
LINE
8
Shape2DView
10
23.085200
20
-27.199700
11
26.996200
21
-35.021900
0
LINE
8
Shape2DView
10
21.892600
20
-27.199700
11
25.803700
21
-35.021900
0
LINE
8
Shape2DView
10
21.892600
20
-27.199700
11
18.311100
21
-27.199700
0
LINE
8
Shape2DView
10
18.311100
20
-26.133100
11
21.359200
21
-26.133100
0
LINE
8
Shape2DView
10
18.311100
20
-27.199700
11
18.311100
21
-26.133100
0
LINE
8
Shape2DView
10
18.311100
20
-35.021900
11
25.803700
21
-35.021900
0
LINE
8
Shape2DView
10
18.311100
20
-36.088600
11
18.311100
21
-35.021900
0
LINE
8
Shape2DView
10
26.337000
20
-36.088600
11
18.311100
21
-36.088600
0
LINE
8
Shape2DView
10
26.337000
20
-36.088600
11
31.373900
21
-46.162500
0
LINE
8
Shape2DView
10
27.529600
20
-36.088600
11
32.080000
21
-45.189400
0
LINE
8
Shape2DView
10
17.244500
20
-35.021900
11
17.244500
21
-36.088600
0
LINE
8
Shape2DView
10
17.244500
20
-35.021900
11
18.311100
21
-35.021900
0
LINE
8
Shape2DView
10
17.244500
20
-36.088600
11
9.751830
21
-36.088600
0
LINE
8
Shape2DView
10
9.751830
20
-35.021900
11
17.244500
21
-35.021900
0
LINE
8
Shape2DView
10
9.751830
20
-35.021900
11
9.485170
21
-35.555200
0
LINE
8
Shape2DView
10
9.422210
20
-35.429400
11
9.485170
21
-35.555200
0
LINE
8
Shape2DView
10
9.422210
20
-35.681200
11
9.422210
21
-35.429400
0
LINE
8
Shape2DView
10
9.422210
20
-35.681200
11
9.218500
21
-36.088600
0
LINE
8
Shape2DView
10
9.218500
20
-36.088600
11
8.559270
21
-36.088600
0
LINE
8
Shape2DView
10
8.355550
20
-35.681200
11
8.355550
21
-36.088600
0
LINE
8
Shape2DView
10
8.559270
20
-36.088600
11
8.355550
21
-35.681200
0
LINE
8
Shape2DView
10
8.355550
20
-35.681200
11
8.292600
21
-35.555200
0
LINE
8
Shape2DView
10
8.025940
20
-36.088600
11
8.292600
21
-35.555200
0
LINE
8
Shape2DView
10
-8.355550
20
-35.681200
11
-8.355550
21
-36.088600
0
LINE
8
Shape2DView
10
-8.025940
20
-36.088600
11
-8.292600
21
-35.555200
0
LINE
8
Shape2DView
10
-8.292600
20
-35.555200
11
-8.355550
21
-35.681200
0
LINE
8
Shape2DView
10
-8.355550
20
-35.681200
11
-8.559270
21
-36.088600
0
LINE
8
Shape2DView
10
-8.559270
20
-36.088600
11
-9.218500
21
-36.088600
0
LINE
8
Shape2DView
10
-9.422210
20
-35.681200
11
-9.218500
21
-36.088600
0
LINE
8
Shape2DView
10
-9.422210
20
-35.681200
11
-9.422210
21
-35.429400
0
LINE
8
Shape2DView
10
-9.485170
20
-35.555200
11
-9.422210
21
-35.429400
0
LINE
8
Shape2DView
10
-17.244500
20
-35.021900
11
-17.244500
21
-36.088600
0
LINE
8
Shape2DView
10
-9.751830
20
-36.088600
11
-17.244500
21
-36.088600
0
LINE
8
Shape2DView
10
-9.751830
20
-35.021900
11
-9.485170
21
-35.555200
0
LINE
8
Shape2DView
10
-17.244500
20
-35.021900
11
-9.751830
21
-35.021900
0
LINE
8
Shape2DView
10
-18.311100
20
-35.021900
11
-17.244500
21
-35.021900
0
LINE
8
Shape2DView
10
-20.508300
20
36.089100
11
-26.337000
21
36.089100
0
LINE
8
Shape2DView
10
-20.508200
20
36.089100
11
-18.311000
21
37.040000
0
LINE
8
Shape2DView
10
-26.338500
20
36.092200
11
-24.244005
21
36.260103
0
LINE
8
Shape2DView
10
-24.244005
20
36.260103
11
-22.192930
21
36.679503
0
LINE
8
Shape2DView
10
-22.192930
20
36.679503
11
-20.207790
21
37.344351
0
LINE
8
Shape2DView
10
-20.207790
20
37.344351
11
-18.311100
21
38.248600
0
LINE
8
Shape2DView
10
-22.551900
20
-9.421960
11
-18.374100
21
-17.777500
0
LINE
8
Shape2DView
10
-18.311100
20
-17.651600
11
-18.374100
21
-17.777500
0
LINE
8
Shape2DView
10
-18.311100
20
-17.903400
11
-18.311100
21
-17.651600
0
LINE
8
Shape2DView
10
-18.311100
20
-17.903400
11
-17.777800
21
-18.970100
0
LINE
8
Shape2DView
10
-18.311100
20
-20.036700
11
-17.777800
21
-18.970100
0
LINE
8
Shape2DView
10
-18.311100
20
-27.199700
11
-17.777800
21
-27.199700
0
LINE
8
Shape2DView
10
-17.777800
20
-27.199700
11
-17.777800
21
-26.133100
0
LINE
8
Shape2DView
10
-17.777800
20
-26.133100
11
-18.311100
21
-26.133100
0
LINE
8
Shape2DView
10
-22.920300
20
-8.685070
11
-21.556400
21
-9.027900
0
LINE
8
Shape2DView
10
-21.359200
20
-9.421960
11
-21.556200
21
-9.027870
0
LINE
8
Shape2DView
10
-21.359200
20
-9.421960
11
-22.551900
21
-9.421960
0
LINE
8
Shape2DView
10
-23.085200
20
-8.355300
11
-22.920300
21
-8.685010
0
LINE
8
Shape2DView
10
-23.936200
20
-8.355300
11
-23.085200
21
-8.355300
0
LINE
8
Shape2DView
10
-28.413100
20
-4.685140
11
-28.899300
21
-5.657610
0
LINE
8
Shape2DView
10
-29.254100
20
-3.982000
11
-28.413100
21
-4.685170
0
LINE
8
Shape2DView
10
-29.747200
20
-4.968310
11
-29.254100
21
-3.981980
0
LINE
8
Shape2DView
10
-33.146100
20
-1.066440
11
-31.585225
21
-3.138035
0
LINE
8
Shape2DView
10
-31.585225
20
-3.138035
11
-29.747300
21
-4.968300
0
LINE
8
Shape2DView
10
-32.554800
20
0.000287
11
-31.054607
21
-2.115314
0
LINE
8
Shape2DView
10
-31.054607
20
-2.115314
11
-29.254100
21
-3.982000
0
LINE
8
Shape2DView
10
-22.920300
20
8.685510
11
-18.640700
21
17.244700
0
LINE
8
Shape2DView
10
-21.556300
20
9.028410
11
-22.920400
21
8.685540
0
LINE
8
Shape2DView
10
-21.556200
20
9.028370
11
-22.178000
21
7.784950
0
LINE
8
Shape2DView
10
-22.178100
20
7.784950
11
-23.589600
21
7.346940
0
LINE
8
Shape2DView
10
-26.070400
20
0.000249
11
-26.666600
21
1.192810
0
LINE
8
Shape2DView
10
-26.070400
20
0.000249
11
-26.666600
21
-1.192310
0
LINE
8
Shape2DView
10
-27.262900
20
0.000249
11
-26.666600
21
-1.192310
0
LINE
8
Shape2DView
10
-18.311100
20
15.518700
11
-21.556200
21
9.028370
0
LINE
8
Shape2DView
10
-18.311100
20
15.518700
11
-18.311100
21
17.244700
0
LINE
8
Shape2DView
10
-18.107400
20
17.244700
11
-18.311100
21
17.652100
0
LINE
8
Shape2DView
10
-18.107400
20
17.244700
11
-18.311100
21
17.244700
0
LINE
8
Shape2DView
10
-18.311100
20
17.652100
11
-18.311100
21
17.903900
0
LINE
8
Shape2DView
10
-18.311100
20
17.903900
11
-18.107400
21
18.311400
0
LINE
8
Shape2DView
10
-18.311100
20
18.311400
11
-18.107400
21
18.311400
0
LINE
8
Shape2DView
10
-18.107400
20
18.311400
11
-17.777800
21
18.970600
0
LINE
8
Shape2DView
10
-18.311100
20
20.037200
11
-17.777800
21
18.970600
0
LINE
8
Shape2DView
10
-17.777800
20
26.133600
11
-18.311100
21
26.133600
0
LINE
8
Shape2DView
10
-17.777800
20
27.200200
11
-17.777800
21
26.133600
0
LINE
8
Shape2DView
10
-18.311100
20
27.200200
11
-17.777800
21
27.200200
0
LINE
8
Shape2DView
10
-25.813600
20
35.042400
11
-25.803700
21
35.022400
0
LINE
8
Shape2DView
10
-25.813700
20
35.042300
11
-23.122093
21
35.368763
0
LINE
8
Shape2DView
10
-23.122093
20
35.368763
11
-20.508200
21
36.089100
0
LINE
8
Shape2DView
10
-18.311100
20
36.089100
11
-18.311100
21
37.039900
0
LINE
8
Shape2DView
10
-17.244500
20
36.089100
11
-18.311100
21
36.089100
0
LINE
8
Shape2DView
10
-17.244500
20
37.632600
11
-17.244500
21
36.089100
0
LINE
8
Shape2DView
10
-9.422210
20
35.681700
11
-9.422210
21
36.089100
0
LINE
8
Shape2DView
10
-9.485170
20
35.555700
11
-9.422210
21
35.681700
0
LINE
8
Shape2DView
10
-9.751830
20
36.089100
11
-9.485170
21
35.555700
0
LINE
8
Shape2DView
10
-9.422210
20
35.681700
11
-9.218500
21
36.089100
0
LINE
8
Shape2DView
10
-9.218500
20
35.022400
11
-8.559270
21
35.022400
0
LINE
8
Shape2DView
10
-8.355550
20
35.429900
11
-8.559270
21
35.022400
0
LINE
8
Shape2DView
10
-9.422210
20
35.429900
11
-9.422210
21
35.681700
0
LINE
8
Shape2DView
10
-9.422210
20
35.429900
11
-9.218500
21
35.022400
0
LINE
8
Shape2DView
10
8.025940
20
35.022400
11
8.355550
21
35.022400
0
LINE
8
Shape2DView
10
-8.355550
20
35.022400
11
-8.025940
21
35.022400
0
LINE
8
Shape2DView
10
-8.355550
20
35.429900
11
-8.355550
21
35.022400
0
LINE
8
Shape2DView
10
9.218500
20
35.022400
11
9.422210
21
35.022400
0
LINE
8
Shape2DView
10
8.355550
20
33.296500
11
9.218500
21
35.022400
0
LINE
8
Shape2DView
10
8.355550
20
35.022400
11
8.355550
21
33.296500
0
LINE
8
Shape2DView
10
26.133300
20
36.089100
11
18.311100
21
36.089100
0
LINE
8
Shape2DView
10
26.133300
20
35.681700
11
26.133300
21
36.089100
0
LINE
8
Shape2DView
10
25.803700
20
35.022400
11
26.133300
21
35.681700
0
LINE
8
Shape2DView
10
18.311100
20
35.022400
11
25.803700
21
35.022400
0
LINE
8
Shape2DView
10
18.311100
20
27.200200
11
18.311100
21
35.022400
0
LINE
8
Shape2DView
10
18.311100
20
27.200200
11
17.777800
21
27.200200
0
LINE
8
Shape2DView
10
17.777800
20
27.200200
11
17.777800
21
26.133600
0
LINE
8
Shape2DView
10
17.777800
20
26.133600
11
18.311100
21
26.133600
0
LINE
8
Shape2DView
10
18.311100
20
20.037200
11
18.311100
21
26.133600
0
LINE
8
Shape2DView
10
17.448100
20
18.311400
11
18.311100
21
20.037200
0
LINE
8
Shape2DView
10
17.244500
20
18.311400
11
17.448100
21
18.311400
0
LINE
8
Shape2DView
10
17.244500
20
35.022400
11
17.244500
21
18.311400
0
LINE
8
Shape2DView
10
26.133300
20
33.296500
11
26.133300
21
35.022400
0
LINE
8
Shape2DView
10
25.803700
20
35.022400
11
26.133300
21
35.022400
0
LINE
8
Shape2DView
10
21.359200
20
26.133600
11
21.892600
21
27.200200
0
LINE
8
Shape2DView
10
23.085200
20
27.200200
11
21.892600
21
27.200200
0
LINE
8
Shape2DView
10
21.359200
20
26.133600
11
22.551900
21
26.133600
0
LINE
8
Shape2DView
10
18.640700
20
18.311400
11
18.311100
21
17.652100
0
LINE
8
Shape2DView
10
18.311100
20
17.244700
11
18.311100
21
17.652100
0
LINE
8
Shape2DView
10
26.133300
20
17.244700
11
18.311100
21
17.244700
0
LINE
8
Shape2DView
10
18.640700
20
18.311400
11
26.133300
21
18.311400
0
LINE
8
Shape2DView
10
26.133300
20
7.404960
11
26.133300
21
17.244700
0
LINE
8
Shape2DView
10
27.200000
20
6.812340
11
26.133400
21
7.405000
0
LINE
8
Shape2DView
10
27.200000
20
17.244700
11
27.200000
21
6.812270
0
LINE
8
Shape2DView
10
26.133300
20
6.196300
11
26.133300
21
7.404960
0
LINE
8
Shape2DView
10
27.199900
20
5.554150
11
26.133400
21
6.196290
0
LINE
8
Shape2DView
10
32.554700
20
0.000290
11
32.220500
21
0.533608
0
LINE
8
Shape2DView
10
27.529600
20
0.533582
11
27.200000
21
-0.125653
0
LINE
8
Shape2DView
10
27.200000
20
0.533582
11
27.200000
21
-0.125653
0
LINE
8
Shape2DView
10
26.337000
20
0.533582
11
27.200000
21
0.533582
0
LINE
8
Shape2DView
10
26.337000
20
0.533582
11
27.200000
21
2.259480
0
LINE
8
Shape2DView
10
32.220600
20
-0.533044
11
32.554800
21
0.000275
0
LINE
8
Shape2DView
10
32.862700
20
-0.533084
11
32.220500
21
-0.533084
0
LINE
8
Shape2DView
10
27.200000
20
-5.553600
11
28.645948
21
-4.499452
0
LINE
8
Shape2DView
10
28.645948
20
-4.499452
11
29.971491
21
-3.304516
0
LINE
8
Shape2DView
10
29.971491
20
-3.304516
11
31.166439
21
-1.978983
0
LINE
8
Shape2DView
10
31.166439
20
-1.978983
11
32.220600
21
-0.533044
0
LINE
8
Shape2DView
10
27.200000
20
-5.553590
11
27.200000
21
-6.811770
0
LINE
8
Shape2DView
10
18.107400
20
-18.310900
11
17.448100
21
-18.310900
0
LINE
8
Shape2DView
10
17.244500
20
-17.903400
11
17.448100
21
-18.310900
0
LINE
8
Shape2DView
10
17.244500
20
-17.651600
11
17.244500
21
-17.903400
0
LINE
8
Shape2DView
10
17.244500
20
-17.651600
11
17.448100
21
-17.244200
0
LINE
8
Shape2DView
10
17.448100
20
-17.244200
11
18.107400
21
-17.244200
0
LINE
8
Shape2DView
10
18.107400
20
-18.310900
11
17.777800
21
-18.970100
0
LINE
8
Shape2DView
10
17.777800
20
-18.970100
11
18.311100
21
-20.036700
0
LINE
8
Shape2DView
10
26.133300
20
-6.195840
11
27.200000
21
-5.553600
0
LINE
8
Shape2DView
10
26.133300
20
-7.404460
11
26.133300
21
-6.195800
0
LINE
8
Shape2DView
10
22.920300
20
-8.685060
11
24.557206
21
-8.120797
0
LINE
8
Shape2DView
10
24.557206
20
-8.120797
11
26.133500
21
-7.404450
0
LINE
8
Shape2DView
10
17.777800
20
-16.584900
11
18.311100
21
-15.518200
0
LINE
8
Shape2DView
10
17.777800
20
-16.584900
11
18.107400
21
-17.244200
0
LINE
8
Shape2DView
10
23.589600
20
-7.346410
11
22.920300
21
-8.685010
0
LINE
8
Shape2DView
10
22.178000
20
-7.784470
11
23.589700
21
-7.346410
0
LINE
8
Shape2DView
10
21.556200
20
-9.027870
11
22.178000
21
-7.784450
0
LINE
8
Shape2DView
10
18.311100
20
-27.199700
11
17.777800
21
-27.199700
0
LINE
8
Shape2DView
10
17.777800
20
-27.199700
11
17.777800
21
-26.133100
0
LINE
8
Shape2DView
10
17.777800
20
-26.133100
11
18.311100
21
-26.133100
0
LINE
8
Shape2DView
10
18.311100
20
-35.021900
11
18.311100
21
-27.199700
0
LINE
8
Shape2DView
10
17.244500
20
-20.036700
11
17.244500
21
-35.021900
0
LINE
8
Shape2DView
10
17.777800
20
-18.970100
11
17.244500
21
-20.036700
0
LINE
8
Shape2DView
10
18.311100
20
-26.133100
11
18.311100
21
-20.036700
0
LINE
8
Shape2DView
10
9.422210
20
-35.021900
11
9.751830
21
-35.021900
0
LINE
8
Shape2DView
10
9.422210
20
-35.429400
11
9.422210
21
-35.021900
0
LINE
8
Shape2DView
10
8.355550
20
-35.429400
11
8.355550
21
-35.681200
0
LINE
8
Shape2DView
10
8.355550
20
-35.429400
11
8.559270
21
-35.021900
0
LINE
8
Shape2DView
10
8.559270
20
-35.021900
11
9.218500
21
-35.021900
0
LINE
8
Shape2DView
10
9.218500
20
-35.021900
11
9.422210
21
-35.429400
0
LINE
8
Shape2DView
10
8.292600
20
-35.555200
11
8.355550
21
-35.429400
0
LINE
8
Shape2DView
10
8.292600
20
-35.555200
11
8.025940
21
-35.021900
0
LINE
8
Shape2DView
10
-8.025940
20
-35.021900
11
8.025940
21
-35.021900
0
LINE
8
Shape2DView
10
-8.025940
20
-35.021900
11
-8.292600
21
-35.555200
0
LINE
8
Shape2DView
10
8.025940
20
-36.088600
11
-8.025940
21
-36.088600
0
LINE
8
Shape2DView
10
-8.355550
20
-35.429400
11
-8.355550
21
-35.681200
0
LINE
8
Shape2DView
10
-8.292600
20
-35.555200
11
-8.355550
21
-35.429400
0
LINE
8
Shape2DView
10
-8.355550
20
-35.429400
11
-8.559270
21
-35.021900
0
LINE
8
Shape2DView
10
-9.218500
20
-35.021900
11
-8.559270
21
-35.021900
0
LINE
8
Shape2DView
10
-9.422210
20
-35.429400
11
-9.218500
21
-35.021900
0
LINE
8
Shape2DView
10
-9.422210
20
-35.429400
11
-9.422210
21
-35.021900
0
LINE
8
Shape2DView
10
-9.751830
20
-35.021900
11
-9.422210
21
-35.021900
0
LINE
8
Shape2DView
10
-17.244500
20
-20.036700
11
-17.244500
21
-35.021900
0
LINE
8
Shape2DView
10
-17.777800
20
-18.970100
11
-17.244500
21
-20.036700
0
LINE
8
Shape2DView
10
-18.311100
20
-26.133100
11
-18.311100
21
-20.036700
0
LINE
8
Shape2DView
10
-18.311100
20
-35.021900
11
-18.311100
21
-27.199700
0
LINE
8
Shape2DView
10
-18.311100
20
-15.518200
11
-21.359200
21
-9.421960
0
LINE
8
Shape2DView
10
-18.311100
20
-17.651600
11
-18.311100
21
-15.518200
0
LINE
8
Shape2DView
10
-17.448100
20
-17.244200
11
-17.777800
21
-16.584900
0
LINE
8
Shape2DView
10
-17.777800
20
-16.584900
11
-18.311100
21
-17.651600
0
LINE
8
Shape2DView
10
-17.777800
20
-18.970100
11
-17.448100
21
-18.310900
0
LINE
8
Shape2DView
10
-17.448100
20
-18.310900
11
-17.777800
21
-18.310900
0
LINE
8
Shape2DView
10
-17.777800
20
-18.310900
11
-17.777800
21
-17.244200
0
LINE
8
Shape2DView
10
-17.777800
20
-17.244200
11
-17.448100
21
-17.244200
0
LINE
8
Shape2DView
10
-23.085200
20
-8.355300
11
-21.892600
21
-8.355300
0
LINE
8
Shape2DView
10
-21.556200
20
-9.027870
11
-21.892600
21
-8.355300
0
LINE
8
Shape2DView
10
-18.311100
20
-9.421960
11
-21.359200
21
-9.421960
0
LINE
8
Shape2DView
10
-18.311100
20
-9.421960
11
-18.311100
21
-9.414200
0
LINE
8
Shape2DView
10
-21.556400
20
-9.027900
11
-18.311100
21
-9.414240
0
LINE
8
Shape2DView
10
-28.899300
20
-5.657660
11
-26.522451
21
-7.199021
0
LINE
8
Shape2DView
10
-26.522451
20
-7.199021
11
-23.936300
21
-8.355320
0
LINE
8
Shape2DView
10
-23.589600
20
-7.346410
11
-23.085200
21
-8.355300
0
LINE
8
Shape2DView
10
-28.413100
20
-4.685170
11
-26.108356
21
-6.209643
0
LINE
8
Shape2DView
10
-26.108356
20
-6.209643
11
-23.589700
21
-7.346410
0
LINE
8
Shape2DView
10
-26.666600
20
-1.192310
11
-28.413100
21
-4.685140
0
LINE
8
Shape2DView
10
-29.254100
20
-3.981980
11
-27.262900
21
0.000249
0
LINE
8
Shape2DView
10
-18.311200
20
9.414740
11
-21.556300
21
9.028410
0
LINE
8
Shape2DView
10
-18.311100
20
8.347550
11
-18.311100
21
9.414700
0
LINE
8
Shape2DView
10
-18.311200
20
8.347560
11
-20.260638
21
8.176140
0
LINE
8
Shape2DView
10
-20.260638
20
8.176140
11
-22.178100
21
7.784950
0
LINE
8
Shape2DView
10
-22.178000
20
7.784950
11
-26.070400
21
0.000249
0
LINE
8
Shape2DView
10
-26.666600
20
1.192810
11
-23.589600
21
7.346910
0
LINE
8
Shape2DView
10
-22.178000
20
-7.784450
11
-26.070400
21
0.000249
0
LINE
8
Shape2DView
10
-23.589700
20
-7.346410
11
-22.178000
21
-7.784470
0
LINE
8
Shape2DView
10
-26.666600
20
-1.192310
11
-23.589600
21
-7.346410
0
LINE
8
Shape2DView
10
-17.777800
20
16.585400
11
-18.107400
21
17.244700
0
LINE
8
Shape2DView
10
-17.777800
20
16.585400
11
-18.311100
21
15.518700
0
LINE
8
Shape2DView
10
-17.448100
20
17.244700
11
-18.107400
21
17.244700
0
LINE
8
Shape2DView
10
-17.244500
20
17.652100
11
-17.448100
21
17.244700
0
LINE
8
Shape2DView
10
-17.244500
20
17.903900
11
-17.244500
21
17.652100
0
LINE
8
Shape2DView
10
-17.448100
20
18.311400
11
-17.244500
21
17.903900
0
LINE
8
Shape2DView
10
-18.107400
20
18.311400
11
-17.448100
21
18.311400
0
LINE
8
Shape2DView
10
-17.777800
20
18.970600
11
-17.448100
21
18.311400
0
LINE
8
Shape2DView
10
-18.311100
20
20.037200
11
-18.311100
21
26.133600
0
LINE
8
Shape2DView
10
-17.777800
20
18.970600
11
-17.244500
21
20.037200
0
LINE
8
Shape2DView
10
-17.244500
20
35.022400
11
-17.244500
21
20.037200
0
LINE
8
Shape2DView
10
-18.311100
20
35.022400
11
-17.244500
21
35.022400
0
LINE
8
Shape2DView
10
-18.311100
20
27.200200
11
-18.311100
21
35.022400
0
LINE
8
Shape2DView
10
-25.803700
20
35.022400
11
-18.311100
21
35.022400
0
LINE
8
Shape2DView
10
-18.311100
20
35.022400
11
-18.311100
21
36.089100
0
LINE
8
Shape2DView
10
-18.311100
20
36.089100
11
-20.508300
21
36.089100
0
LINE
8
Shape2DView
10
-17.244500
20
36.089100
11
-17.244500
21
35.022400
0
LINE
8
Shape2DView
10
-9.751830
20
36.089100
11
-17.244500
21
36.089100
0
LINE
8
Shape2DView
10
-9.485170
20
35.555700
11
-9.422210
21
35.429900
0
LINE
8
Shape2DView
10
-9.751830
20
35.022400
11
-9.485170
21
35.555700
0
LINE
8
Shape2DView
10
-17.244500
20
35.022400
11
-9.751830
21
35.022400
0
LINE
8
Shape2DView
10
-9.218500
20
35.022400
11
-8.888880
21
34.363200
0
LINE
8
Shape2DView
10
-8.559270
20
35.022400
11
-8.888880
21
34.363200
0
LINE
8
Shape2DView
10
-8.559270
20
35.022400
11
-8.355550
21
35.022400
0
LINE
8
Shape2DView
10
-9.422210
20
35.022400
11
-9.218500
21
35.022400
0
LINE
8
Shape2DView
10
-9.422210
20
35.022400
11
-9.422210
21
35.429900
0
LINE
8
Shape2DView
10
0.862951
20
18.311400
11
8.355550
21
33.296500
0
LINE
8
Shape2DView
10
0.329618
20
18.311400
11
0.862951
21
18.311400
0
LINE
8
Shape2DView
10
0.000000
20
18.970600
11
0.329618
21
18.311400
0
LINE
8
Shape2DView
10
8.025940
20
35.022400
11
0.000000
21
18.970600
0
LINE
8
Shape2DView
10
-8.025940
20
35.022400
11
0.000000
21
18.970600
0
LINE
8
Shape2DView
10
-8.355550
20
33.296500
11
-0.862951
21
18.311400
0
LINE
8
Shape2DView
10
-0.862951
20
18.311400
11
-0.329618
21
18.311400
0
LINE
8
Shape2DView
10
0.000000
20
18.970600
11
-0.329618
21
18.311400
0
LINE
8
Shape2DView
10
-8.355550
20
35.022400
11
-8.355550
21
33.296500
0
LINE
8
Shape2DView
10
9.422210
20
18.311400
11
9.422210
21
35.022400
0
LINE
8
Shape2DView
10
8.355550
20
18.311400
11
9.422210
21
18.311400
0
LINE
8
Shape2DView
10
8.355550
20
33.296500
11
8.355550
21
18.311400
0
LINE
8
Shape2DView
10
18.311100
20
26.133600
11
18.311100
21
27.200200
0
LINE
8
Shape2DView
10
18.311100
20
18.311400
11
18.311100
21
20.037200
0
LINE
8
Shape2DView
10
17.448100
20
18.311400
11
18.311100
21
18.311400
0
LINE
8
Shape2DView
10
17.244500
20
17.903900
11
17.448100
21
18.311400
0
LINE
8
Shape2DView
10
17.244500
20
18.311400
11
17.244500
21
17.903900
0
LINE
8
Shape2DView
10
21.892600
20
27.200200
11
25.803700
21
35.022400
0
LINE
8
Shape2DView
10
26.133300
20
33.296500
11
23.085200
21
27.200200
0
LINE
8
Shape2DView
10
22.551900
20
26.133600
11
18.640700
21
18.311400
0
LINE
8
Shape2DView
10
21.892600
20
27.200200
11
18.311100
21
27.200200
0
LINE
8
Shape2DView
10
18.311100
20
26.133600
11
21.359200
21
26.133600
0
LINE
8
Shape2DView
10
18.311100
20
20.037200
11
21.359200
21
26.133600
0
LINE
8
Shape2DView
10
18.311100
20
18.311400
11
18.640700
21
18.311400
0
LINE
8
Shape2DView
10
18.311100
20
17.652100
11
18.311100
21
18.311400
0
LINE
8
Shape2DView
10
18.311100
20
17.244700
11
18.107400
21
17.244700
0
LINE
8
Shape2DView
10
18.311100
20
17.652100
11
18.107400
21
17.244700
0
LINE
8
Shape2DView
10
18.311100
20
8.347550
11
18.311100
21
9.414700
0
LINE
8
Shape2DView
10
26.133400
20
7.405000
11
24.271126
21
8.232559
0
LINE
8
Shape2DView
10
24.271126
20
8.232559
11
22.334482
21
8.846500
0
LINE
8
Shape2DView
10
22.334482
20
8.846500
11
20.341747
21
9.242126
0
LINE
8
Shape2DView
10
20.341747
20
9.242126
11
18.311200
21
9.414740
0
LINE
8
Shape2DView
10
26.133400
20
6.196290
11
24.284516
21
7.081143
0
LINE
8
Shape2DView
10
24.284516
20
7.081143
11
22.350608
21
7.738465
0
LINE
8
Shape2DView
10
22.350608
20
7.738465
11
20.352547
21
8.162517
0
LINE
8
Shape2DView
10
20.352547
20
8.162517
11
18.311200
21
8.347560
0
LINE
8
Shape2DView
10
27.200000
20
5.554090
11
27.200000
21
2.259480
0
LINE
8
Shape2DView
10
26.133300
20
0.533582
11
26.133300
21
6.196300
0
LINE
8
Shape2DView
10
26.133300
20
0.533582
11
26.337000
21
0.533582
0
LINE
8
Shape2DView
10
27.529600
20
0.533582
11
32.220500
21
0.533582
0
LINE
8
Shape2DView
10
27.200000
20
-0.125653
11
27.200000
21
-0.533084
0
LINE
8
Shape2DView
10
32.220500
20
-0.533084
11
27.200000
21
-0.533084
0
LINE
8
Shape2DView
10
27.200000
20
-0.125653
11
26.996200
21
-0.533084
0
LINE
8
Shape2DView
10
26.133300
20
0.126152
11
26.337000
21
0.533582
0
LINE
8
Shape2DView
10
26.133300
20
-0.533084
11
26.133300
21
0.126152
0
LINE
8
Shape2DView
10
26.996200
20
-0.533084
11
26.133300
21
-0.533084
0
LINE
8
Shape2DView
10
17.448100
20
-18.310900
11
17.777800
21
-18.970100
0
LINE
8
Shape2DView
10
17.448100
20
-18.310900
11
17.244500
21
-18.310900
0
LINE
8
Shape2DView
10
17.244500
20
-17.903400
11
17.244500
21
-18.310900
0
LINE
8
Shape2DView
10
17.181400
20
-17.777500
11
17.244500
21
-17.903400
0
LINE
8
Shape2DView
10
17.181400
20
-17.777500
11
17.244500
21
-17.651600
0
LINE
8
Shape2DView
10
17.244500
20
-17.244200
11
17.244500
21
-17.651600
0
LINE
8
Shape2DView
10
17.244500
20
-17.244200
11
17.448100
21
-17.244200
0
LINE
8
Shape2DView
10
17.448100
20
-17.244200
11
17.777800
21
-16.584900
0
LINE
8
Shape2DView
10
27.200000
20
-0.533084
11
27.200000
21
-5.553590
0
LINE
8
Shape2DView
10
27.200000
20
-0.533084
11
26.996200
21
-0.533084
0
LINE
8
Shape2DView
10
26.996200
20
-0.533084
11
26.133300
21
-2.258980
0
LINE
8
Shape2DView
10
26.133300
20
-6.195800
11
26.133300
21
-2.258980
0
LINE
8
Shape2DView
10
23.589700
20
-7.346410
11
26.133300
21
-6.195840
0
LINE
8
Shape2DView
10
17.244500
20
-9.421960
11
17.777800
21
-9.421960
0
LINE
8
Shape2DView
10
17.777800
20
-9.422010
11
18.311100
21
-9.414240
0
LINE
8
Shape2DView
10
18.311100
20
-15.518200
11
18.311100
21
-9.414200
0
LINE
8
Shape2DView
10
17.244500
20
-15.518200
11
17.777800
21
-16.584900
0
LINE
8
Shape2DView
10
17.244500
20
-9.421960
11
17.244500
21
-15.518200
0
LINE
8
Shape2DView
10
26.133300
20
-2.258980
11
23.589600
21
-7.346410
0
LINE
8
Shape2DView
10
26.133300
20
-2.258980
11
26.133300
21
-0.533084
0
LINE
8
Shape2DView
10
26.133300
20
-0.533084
11
25.803700
21
-0.533084
0
LINE
8
Shape2DView
10
22.178000
20
-7.784450
11
25.803700
21
-0.533084
0
LINE
8
Shape2DView
10
18.311100
20
-9.414240
11
21.556400
21
-9.027890
0
LINE
8
Shape2DView
10
18.311100
20
-8.347060
11
20.260537
21
-8.175650
0
LINE
8
Shape2DView
10
20.260537
20
-8.175650
11
22.178000
21
-7.784470
0
LINE
8
Shape2DView
10
18.311100
20
-9.414200
11
18.311100
21
-8.347050
0
LINE
8
Shape2DView
10
17.244500
20
-18.310900
11
17.244500
21
-20.036700
0
LINE
8
Shape2DView
10
17.244500
20
-20.036700
11
9.751830
21
-35.021900
0
LINE
8
Shape2DView
10
9.422210
20
-35.021900
11
9.422210
21
-33.296000
0
LINE
8
Shape2DView
10
17.244500
20
-18.310900
11
16.914800
21
-18.310900
0
LINE
8
Shape2DView
10
9.422210
20
-33.296000
11
16.914800
21
-18.310900
0
LINE
8
Shape2DView
10
9.218500
20
-35.021900
11
9.422210
21
-35.021900
0
LINE
8
Shape2DView
10
8.355550
20
-35.021900
11
8.355550
21
-35.429400
0
LINE
8
Shape2DView
10
8.355550
20
-35.021900
11
8.559270
21
-35.021900
0
LINE
8
Shape2DView
10
8.888880
20
-34.362700
11
9.218500
21
-35.021900
0
LINE
8
Shape2DView
10
8.559270
20
-35.021900
11
8.888880
21
-34.362700
0
LINE
8
Shape2DView
10
8.025940
20
-35.021900
11
8.355550
21
-35.021900
0
LINE
8
Shape2DView
10
-8.355550
20
-35.021900
11
-8.355550
21
-35.429400
0
LINE
8
Shape2DView
10
-8.355550
20
-35.021900
11
-8.025940
21
-35.021900
0
LINE
8
Shape2DView
10
-8.559270
20
-35.021900
11
-8.355550
21
-35.021900
0
LINE
8
Shape2DView
10
-8.559270
20
-35.021900
11
-8.888880
21
-34.362700
0
LINE
8
Shape2DView
10
-9.218500
20
-35.021900
11
-8.888880
21
-34.362700
0
LINE
8
Shape2DView
10
-9.422210
20
-35.021900
11
-9.218500
21
-35.021900
0
LINE
8
Shape2DView
10
-17.244500
20
-20.036700
11
-9.751830
21
-35.021900
0
LINE
8
Shape2DView
10
-17.244500
20
-18.310900
11
-17.244500
21
-20.036700
0
LINE
8
Shape2DView
10
-16.914800
20
-18.310900
11
-17.244500
21
-18.310900
0
LINE
8
Shape2DView
10
-9.422210
20
-33.296000
11
-16.914800
21
-18.310900
0
LINE
8
Shape2DView
10
-9.422210
20
-35.021900
11
-9.422210
21
-33.296000
0
LINE
8
Shape2DView
10
-17.244500
20
-18.310900
11
-17.448100
21
-18.310900
0
LINE
8
Shape2DView
10
-17.777800
20
-16.584900
11
-18.311100
21
-15.518200
0
LINE
8
Shape2DView
10
-17.244500
20
-15.518200
11
-17.777800
21
-16.584900
0
LINE
8
Shape2DView
10
-17.448100
20
-17.244200
11
-17.244500
21
-17.244200
0
LINE
8
Shape2DView
10
-17.244500
20
-15.518200
11
-17.244500
21
-17.244200
0
LINE
8
Shape2DView
10
-17.244500
20
-17.651600
11
-17.448100
21
-17.244200
0
LINE
8
Shape2DView
10
-17.448100
20
-18.310900
11
-17.244500
21
-17.903400
0
LINE
8
Shape2DView
10
-17.244500
20
-17.651600
11
-17.244500
21
-17.903400
0
LINE
8
Shape2DView
10
-21.892600
20
-8.355300
11
-22.178000
21
-7.784450
0
LINE
8
Shape2DView
10
-18.311100
20
-9.414200
11
-18.311100
21
-8.355300
0
LINE
8
Shape2DView
10
-21.892600
20
-8.355300
11
-18.311100
21
-8.355300
0
LINE
8
Shape2DView
10
-18.311100
20
-9.414240
11
-17.777800
21
-9.422010
0
LINE
8
Shape2DView
10
-17.777800
20
-9.421960
11
-18.311100
21
-9.421960
0
LINE
8
Shape2DView
10
-17.777800
20
9.422460
11
-17.244500
21
9.422460
0
LINE
8
Shape2DView
10
-17.777900
20
9.422510
11
-18.311200
21
9.414740
0
LINE
8
Shape2DView
10
-17.777900
20
8.355810
11
-18.311200
21
8.347560
0
LINE
8
Shape2DView
10
-17.777800
20
8.355790
11
-17.244500
21
8.355790
0
LINE
8
Shape2DView
10
-17.244500
20
9.422460
11
-17.244500
21
8.355790
0
LINE
8
Shape2DView
10
-18.311100
20
9.414700
11
-18.311100
21
15.518700
0
LINE
8
Shape2DView
10
-17.448100
20
17.244700
11
-17.777800
21
16.585400
0
LINE
8
Shape2DView
10
-17.244500
20
15.518700
11
-17.777800
21
16.585400
0
LINE
8
Shape2DView
10
-17.244500
20
15.518700
11
-17.244500
21
9.422460
0
LINE
8
Shape2DView
10
-17.244500
20
17.244700
11
-17.448100
21
17.244700
0
LINE
8
Shape2DView
10
-17.244500
20
17.652100
11
-17.244500
21
17.244700
0
LINE
8
Shape2DView
10
-17.244500
20
17.903900
11
-17.181400
21
17.778000
0
LINE
8
Shape2DView
10
-17.181400
20
17.778000
11
-17.244500
21
17.652100
0
LINE
8
Shape2DView
10
-17.244500
20
18.311400
11
-17.244500
21
17.903900
0
LINE
8
Shape2DView
10
-17.448100
20
18.311400
11
-17.244500
21
18.311400
0
LINE
8
Shape2DView
10
-17.244500
20
20.037200
11
-17.244500
21
18.311400
0
LINE
8
Shape2DView
10
-9.751830
20
35.022400
11
-9.422210
21
35.022400
0
LINE
8
Shape2DView
10
-9.422210
20
33.296500
11
-9.422210
21
35.022400
0
LINE
8
Shape2DView
10
-8.888880
20
34.363200
11
-9.422210
21
33.296500
0
LINE
8
Shape2DView
10
-8.888880
20
34.363200
11
-8.355550
21
33.296500
0
LINE
8
Shape2DView
10
0.596284
20
17.778000
11
0.862951
21
18.311400
0
LINE
8
Shape2DView
10
0.329618
20
18.311400
11
0.596284
21
17.778000
0
LINE
8
Shape2DView
10
-0.329618
20
18.311400
11
0.329618
21
18.311400
0
LINE
8
Shape2DView
10
-0.862951
20
18.311400
11
-0.596284
21
17.778000
0
LINE
8
Shape2DView
10
-0.329618
20
18.311400
11
-0.596284
21
17.778000
0
LINE
8
Shape2DView
10
9.422210
20
17.244700
11
9.422210
21
18.311400
0
LINE
8
Shape2DView
10
9.422210
20
17.244700
11
8.355550
21
17.244700
0
LINE
8
Shape2DView
10
8.355550
20
18.311400
11
8.355550
21
17.244700
0
LINE
8
Shape2DView
10
9.422210
20
18.311400
11
17.244500
21
18.311400
0
LINE
8
Shape2DView
10
18.107400
20
17.244700
11
17.244500
21
17.244700
0
LINE
8
Shape2DView
10
17.244500
20
17.903900
11
17.244500
21
17.244700
0
LINE
8
Shape2DView
10
16.914800
20
17.244700
11
9.422210
21
17.244700
0
LINE
8
Shape2DView
10
16.914800
20
17.244700
11
17.244500
21
17.903900
0
LINE
8
Shape2DView
10
17.244500
20
9.422460
11
17.777800
21
9.422460
0
LINE
8
Shape2DView
10
17.244500
20
15.518700
11
17.244500
21
9.422460
0
LINE
8
Shape2DView
10
18.107400
20
17.244700
11
17.244500
21
15.518700
0
LINE
8
Shape2DView
10
18.311100
20
9.414700
11
18.311100
21
17.244700
0
LINE
8
Shape2DView
10
18.311200
20
9.414740
11
17.777700
21
9.422510
0
LINE
8
Shape2DView
10
18.311200
20
8.347560
11
17.777700
21
8.355810
0
LINE
8
Shape2DView
10
17.244500
20
8.355790
11
17.777700
21
8.355790
0
LINE
8
Shape2DView
10
17.244500
20
9.422460
11
17.244500
21
8.355790
0
LINE
8
Shape2DView
10
26.133300
20
0.126152
11
26.133300
21
0.533582
0
LINE
8
Shape2DView
10
25.803700
20
-0.533084
11
26.133300
21
0.126152
0
LINE
8
Shape2DView
10
16.914800
20
-18.310900
11
17.181400
21
-17.777500
0
LINE
8
Shape2DView
10
16.914800
20
-17.244200
11
17.181400
21
-17.777500
0
LINE
8
Shape2DView
10
16.914800
20
-17.244200
11
17.244500
21
-17.244200
0
LINE
8
Shape2DView
10
17.244500
20
-15.518200
11
17.244500
21
-17.244200
0
LINE
8
Shape2DView
10
17.244500
20
-8.355300
11
17.244500
21
-9.421960
0
LINE
8
Shape2DView
10
17.244500
20
-8.355300
11
17.777700
21
-8.355300
0
LINE
8
Shape2DView
10
17.777800
20
-8.355310
11
18.311100
21
-8.347060
0
LINE
8
Shape2DView
10
8.888880
20
-34.362700
11
9.422210
21
-33.296000
0
LINE
8
Shape2DView
10
8.355550
20
-33.296000
11
8.888880
21
-34.362700
0
LINE
8
Shape2DView
10
8.355550
20
-33.296000
11
8.355550
21
-35.021900
0
LINE
8
Shape2DView
10
0.862951
20
-18.310900
11
8.355550
21
-33.296000
0
LINE
8
Shape2DView
10
0.862951
20
-18.310900
11
0.329618
21
-18.310900
0
LINE
8
Shape2DView
10
0.329618
20
-18.310900
11
0.000000
21
-18.970100
0
LINE
8
Shape2DView
10
8.025940
20
-35.021900
11
0.000000
21
-18.970100
0
LINE
8
Shape2DView
10
0.000000
20
-18.970100
11
-8.025940
21
-35.021900
0
LINE
8
Shape2DView
10
0.000000
20
-18.970100
11
-0.329618
21
-18.310900
0
LINE
8
Shape2DView
10
-0.329618
20
-18.310900
11
-0.862951
21
-18.310900
0
LINE
8
Shape2DView
10
-8.355550
20
-33.296000
11
-0.862951
21
-18.310900
0
LINE
8
Shape2DView
10
-8.355550
20
-33.296000
11
-8.355550
21
-35.021900
0
LINE
8
Shape2DView
10
-8.888880
20
-34.362700
11
-8.355550
21
-33.296000
0
LINE
8
Shape2DView
10
-8.888880
20
-34.362700
11
-9.422210
21
-33.296000
0
LINE
8
Shape2DView
10
-17.244500
20
-17.903400
11
-17.244500
21
-18.310900
0
LINE
8
Shape2DView
10
-17.244500
20
-17.903400
11
-17.181400
21
-17.777500
0
LINE
8
Shape2DView
10
-16.914800
20
-18.310900
11
-17.181400
21
-17.777500
0
LINE
8
Shape2DView
10
-18.311100
20
-15.518200
11
-18.311100
21
-9.421960
0
LINE
8
Shape2DView
10
-17.244500
20
-9.421960
11
-17.244500
21
-15.518200
0
LINE
8
Shape2DView
10
-17.777800
20
-9.421960
11
-17.244500
21
-9.421960
0
LINE
8
Shape2DView
10
-17.244500
20
-17.244200
11
-17.244500
21
-17.651600
0
LINE
8
Shape2DView
10
-17.244500
20
-17.244200
11
-16.914800
21
-17.244200
0
LINE
8
Shape2DView
10
-14.196300
20
-9.421960
11
-17.244500
21
-15.518200
0
LINE
8
Shape2DView
10
-14.196300
20
-9.421960
11
-13.003700
21
-9.421960
0
LINE
8
Shape2DView
10
-16.914800
20
-17.244200
11
-13.003700
21
-9.421960
0
LINE
8
Shape2DView
10
-17.181400
20
-17.777500
11
-17.244500
21
-17.651600
0
LINE
8
Shape2DView
10
-18.311100
20
-8.355300
11
-18.311100
21
-8.347050
0
LINE
8
Shape2DView
10
-22.178000
20
-7.784470
11
-20.260537
21
-8.175650
0
LINE
8
Shape2DView
10
-20.260537
20
-8.175650
11
-18.311100
21
-8.347060
0
LINE
8
Shape2DView
10
-18.311100
20
-8.355300
11
-17.777800
21
-8.355300
0
LINE
8
Shape2DView
10
-17.777800
20
-8.355300
11
-17.777800
21
-9.421960
0
LINE
8
Shape2DView
10
-18.311100
20
-8.347050
11
-18.311100
21
8.347550
0
LINE
8
Shape2DView
10
-18.311100
20
-8.347060
11
-17.777800
21
-8.355310
0
LINE
8
Shape2DView
10
-17.777800
20
-8.355300
11
-17.244500
21
-8.355300
0
LINE
8
Shape2DView
10
-17.244500
20
-0.533084
11
-17.244500
21
-8.355300
0
LINE
8
Shape2DView
10
-17.244500
20
-0.533084
11
-17.777800
21
-0.533084
0
LINE
8
Shape2DView
10
-17.777800
20
-0.533084
11
-17.777800
21
0.533582
0
LINE
8
Shape2DView
10
-17.777800
20
0.533582
11
-17.244500
21
0.533582
0
LINE
8
Shape2DView
10
-17.244500
20
8.355790
11
-17.244500
21
0.533582
0
LINE
8
Shape2DView
10
-17.244500
20
9.422460
11
-14.196300
21
9.422460
0
LINE
8
Shape2DView
10
-13.662900
20
8.355790
11
-14.196300
21
9.422460
0
LINE
8
Shape2DView
10
-17.244500
20
8.355790
11
-13.662900
21
8.355790
0
LINE
8
Shape2DView
10
-17.244500
20
17.244700
11
-17.244500
21
15.518700
0
LINE
8
Shape2DView
10
-17.181400
20
17.778000
11
-16.914800
21
17.244700
0
LINE
8
Shape2DView
10
-16.914800
20
17.244700
11
-17.244500
21
17.244700
0
LINE
8
Shape2DView
10
-16.914800
20
18.311400
11
-17.181400
21
17.778000
0
LINE
8
Shape2DView
10
-17.244500
20
18.311400
11
-16.914800
21
18.311400
0
LINE
8
Shape2DView
10
-9.422210
20
33.296500
11
-16.914800
21
18.311400
0
LINE
8
Shape2DView
10
-17.244500
20
20.037200
11
-9.751830
21
35.022400
0
LINE
8
Shape2DView
10
-9.422210
20
18.311400
11
-8.355550
21
18.311400
0
LINE
8
Shape2DView
10
-8.355550
20
33.296500
11
-8.355550
21
18.311400
0
LINE
8
Shape2DView
10
-9.422210
20
18.311400
11
-9.422210
21
33.296500
0
LINE
8
Shape2DView
10
0.862951
20
18.311400
11
8.355550
21
18.311400
0
LINE
8
Shape2DView
10
0.596284
20
17.778000
11
0.862951
21
17.244700
0
LINE
8
Shape2DView
10
8.355550
20
17.244700
11
0.862951
21
17.244700
0
LINE
8
Shape2DView
10
0.329618
20
17.244700
11
0.596284
21
17.778000
0
LINE
8
Shape2DView
10
0.329618
20
17.244700
11
-0.329618
21
17.244700
0
LINE
8
Shape2DView
10
-0.596284
20
17.778000
11
-0.329618
21
17.244700
0
LINE
8
Shape2DView
10
-8.355550
20
18.311400
11
-0.862951
21
18.311400
0
LINE
8
Shape2DView
10
-8.355550
20
18.311400
11
-8.355550
21
17.244700
0
LINE
8
Shape2DView
10
-0.862951
20
17.244700
11
-8.355550
21
17.244700
0
LINE
8
Shape2DView
10
-0.596284
20
17.778000
11
-0.862951
21
17.244700
0
LINE
8
Shape2DView
10
9.422210
20
9.422460
11
9.422210
21
17.244700
0
LINE
8
Shape2DView
10
8.355550
20
9.422460
11
9.422210
21
9.422460
0
LINE
8
Shape2DView
10
8.355550
20
17.244700
11
8.355550
21
9.422460
0
LINE
8
Shape2DView
10
17.244500
20
17.244700
11
17.244500
21
15.518700
0
LINE
8
Shape2DView
10
17.244500
20
17.244700
11
16.914800
21
17.244700
0
LINE
8
Shape2DView
10
17.244500
20
8.355790
11
17.244500
21
0.533582
0
LINE
8
Shape2DView
10
18.311100
20
0.533582
11
18.311100
21
8.347550
0
LINE
8
Shape2DView
10
17.244500
20
0.533582
11
18.311100
21
0.533582
0
LINE
8
Shape2DView
10
14.196300
20
9.422460
11
13.662900
21
8.355790
0
LINE
8
Shape2DView
10
14.196300
20
9.422460
11
17.244500
21
9.422460
0
LINE
8
Shape2DView
10
13.662900
20
8.355790
11
17.244500
21
8.355790
0
LINE
8
Shape2DView
10
18.311100
20
0.533582
11
26.133300
21
0.533582
0
LINE
8
Shape2DView
10
18.311100
20
-0.533084
11
18.311100
21
0.533582
0
LINE
8
Shape2DView
10
25.803700
20
-0.533084
11
18.311100
21
-0.533084
0
LINE
8
Shape2DView
10
16.914800
20
-18.310900
11
9.422210
21
-18.310900
0
LINE
8
Shape2DView
10
9.422210
20
-17.244200
11
16.914800
21
-17.244200
0
LINE
8
Shape2DView
10
9.422210
20
-18.310900
11
9.422210
21
-17.244200
0
LINE
8
Shape2DView
10
13.003700
20
-9.421960
11
16.914800
21
-17.244200
0
LINE
8
Shape2DView
10
14.196300
20
-9.421960
11
17.244500
21
-15.518200
0
LINE
8
Shape2DView
10
13.003700
20
-9.421960
11
14.196300
21
-9.421960
0
LINE
8
Shape2DView
10
13.662900
20
-8.355300
11
14.196300
21
-9.421960
0
LINE
8
Shape2DView
10
14.196300
20
-9.421960
11
17.244500
21
-9.421960
0
LINE
8
Shape2DView
10
13.662900
20
-8.355300
11
17.244500
21
-8.355300
0
LINE
8
Shape2DView
10
17.244500
20
-0.533084
11
17.244500
21
-8.355300
0
LINE
8
Shape2DView
10
18.311100
20
-0.533084
11
17.244500
21
-0.533084
0
LINE
8
Shape2DView
10
18.311100
20
-8.347050
11
18.311100
21
-0.533084
0
LINE
8
Shape2DView
10
9.422210
20
-18.310900
11
8.355550
21
-18.310900
0
LINE
8
Shape2DView
10
9.422210
20
-33.296000
11
9.422210
21
-18.310900
0
LINE
8
Shape2DView
10
8.355550
20
-18.310900
11
8.355550
21
-33.296000
0
LINE
8
Shape2DView
10
0.596284
20
-17.777500
11
0.862951
21
-18.310900
0
LINE
8
Shape2DView
10
0.596284
20
-17.777500
11
0.329618
21
-18.310900
0
LINE
8
Shape2DView
10
0.329618
20
-18.310900
11
-0.329618
21
-18.310900
0
LINE
8
Shape2DView
10
-0.329618
20
-18.310900
11
-0.596284
21
-17.777500
0
LINE
8
Shape2DView
10
-0.862951
20
-18.310900
11
-0.596284
21
-17.777500
0
LINE
8
Shape2DView
10
-8.355550
20
-18.310900
11
-8.355550
21
-33.296000
0
LINE
8
Shape2DView
10
-8.355550
20
-18.310900
11
-9.422210
21
-18.310900
0
LINE
8
Shape2DView
10
-9.422210
20
-33.296000
11
-9.422210
21
-18.310900
0
LINE
8
Shape2DView
10
-17.181400
20
-17.777500
11
-16.914800
21
-17.244200
0
LINE
8
Shape2DView
10
-9.422210
20
-18.310900
11
-16.914800
21
-18.310900
0
LINE
8
Shape2DView
10
-9.422210
20
-18.310900
11
-9.422210
21
-17.244200
0
LINE
8
Shape2DView
10
-16.914800
20
-17.244200
11
-9.422210
21
-17.244200
0
LINE
8
Shape2DView
10
-17.244500
20
-8.355300
11
-17.244500
21
-9.421960
0
LINE
8
Shape2DView
10
-13.662900
20
-8.355300
11
-14.196300
21
-9.421960
0
LINE
8
Shape2DView
10
-13.662900
20
-8.355300
11
-12.470400
21
-8.355300
0
LINE
8
Shape2DView
10
-13.003700
20
-9.421960
11
-12.470400
21
-8.355300
0
LINE
8
Shape2DView
10
-17.244500
20
0.533582
11
-17.244500
21
-0.533084
0
LINE
8
Shape2DView
10
-13.662900
20
8.355790
11
-12.470400
21
8.355790
0
LINE
8
Shape2DView
10
-13.003700
20
9.422460
11
-12.470400
21
8.355790
0
LINE
8
Shape2DView
10
-14.196300
20
9.422460
11
-13.003700
21
9.422460
0
LINE
8
Shape2DView
10
-16.914800
20
17.244700
11
-13.003700
21
9.422460
0
LINE
8
Shape2DView
10
-14.196300
20
9.422460
11
-17.244500
21
15.518700
0
LINE
8
Shape2DView
10
-9.422210
20
17.244700
11
-16.914800
21
17.244700
0
LINE
8
Shape2DView
10
-9.422210
20
17.244700
11
-9.422210
21
18.311400
0
LINE
8
Shape2DView
10
-16.914800
20
18.311400
11
-9.422210
21
18.311400
0
LINE
8
Shape2DView
10
-8.355550
20
17.244700
11
-9.422210
21
17.244700
0
LINE
8
Shape2DView
10
0.862951
20
17.244700
11
0.329618
21
17.244700
0
LINE
8
Shape2DView
10
0.000000
20
16.585400
11
0.329618
21
17.244700
0
LINE
8
Shape2DView
10
-0.329618
20
17.244700
11
0.000000
21
16.585400
0
LINE
8
Shape2DView
10
-0.329618
20
17.244700
11
-0.862951
21
17.244700
0
LINE
8
Shape2DView
10
9.422210
20
8.355790
11
9.422210
21
9.422460
0
LINE
8
Shape2DView
10
8.355550
20
8.355790
11
9.422210
21
8.355790
0
LINE
8
Shape2DView
10
8.355550
20
9.422460
11
8.355550
21
8.355790
0
LINE
8
Shape2DView
10
13.003700
20
9.422460
11
14.196300
21
9.422460
0
LINE
8
Shape2DView
10
17.244500
20
15.518700
11
14.196300
21
9.422460
0
LINE
8
Shape2DView
10
13.003700
20
9.422460
11
16.914800
21
17.244700
0
LINE
8
Shape2DView
10
17.244500
20
0.533582
11
17.244500
21
-0.533084
0
LINE
8
Shape2DView
10
12.470400
20
8.355790
11
13.003700
21
9.422460
0
LINE
8
Shape2DView
10
12.470400
20
8.355790
11
13.662900
21
8.355790
0
LINE
8
Shape2DView
10
8.355550
20
-17.244200
11
8.355550
21
-18.310900
0
LINE
8
Shape2DView
10
8.355550
20
-17.244200
11
9.422210
21
-17.244200
0
LINE
8
Shape2DView
10
12.470400
20
-8.355300
11
13.003700
21
-9.421960
0
LINE
8
Shape2DView
10
12.470400
20
-8.355300
11
13.662900
21
-8.355300
0
LINE
8
Shape2DView
10
8.355550
20
-18.310900
11
0.862951
21
-18.310900
0
LINE
8
Shape2DView
10
0.862951
20
-17.244200
11
0.596284
21
-17.777500
0
LINE
8
Shape2DView
10
0.862951
20
-17.244200
11
8.355550
21
-17.244200
0
LINE
8
Shape2DView
10
-0.329618
20
-17.244200
11
0.329618
21
-17.244200
0
LINE
8
Shape2DView
10
-0.596284
20
-17.777500
11
-0.329618
21
-17.244200
0
LINE
8
Shape2DView
10
0.329618
20
-17.244200
11
0.596284
21
-17.777500
0
LINE
8
Shape2DView
10
-8.355550
20
-17.244200
11
-8.355550
21
-18.310900
0
LINE
8
Shape2DView
10
-0.862951
20
-18.310900
11
-8.355550
21
-18.310900
0
LINE
8
Shape2DView
10
-0.596284
20
-17.777500
11
-0.862951
21
-17.244200
0
LINE
8
Shape2DView
10
-8.355550
20
-17.244200
11
-0.862951
21
-17.244200
0
LINE
8
Shape2DView
10
-9.422210
20
-17.244200
11
-8.355550
21
-17.244200
0
LINE
8
Shape2DView
10
-17.244500
20
-9.421960
11
-14.196300
21
-9.421960
0
LINE
8
Shape2DView
10
-17.244500
20
-8.355300
11
-13.662900
21
-8.355300
0
LINE
8
Shape2DView
10
-9.751830
20
-0.533084
11
-13.662900
21
-8.355300
0
LINE
8
Shape2DView
10
-9.422210
20
-0.533084
11
-9.751830
21
-0.533084
0
LINE
8
Shape2DView
10
-9.422210
20
-2.258980
11
-9.422210
21
-0.533084
0
LINE
8
Shape2DView
10
-12.470400
20
-8.355300
11
-9.422210
21
-2.258980
0
LINE
8
Shape2DView
10
-13.003700
20
-9.421960
11
-9.422210
21
-9.421960
0
LINE
8
Shape2DView
10
-9.422210
20
-9.421960
11
-9.422210
21
-8.355300
0
LINE
8
Shape2DView
10
-12.470400
20
-8.355300
11
-9.422210
21
-8.355300
0
LINE
8
Shape2DView
10
-9.751830
20
-0.533084
11
-17.244500
21
-0.533084
0
LINE
8
Shape2DView
10
-9.485170
20
0.000249
11
-9.751830
21
-0.533084
0
LINE
8
Shape2DView
10
-9.485170
20
0.000249
11
-9.751830
21
0.533582
0
LINE
8
Shape2DView
10
-17.244500
20
0.533582
11
-9.751830
21
0.533582
0
LINE
8
Shape2DView
10
-9.422210
20
0.533582
11
-9.422210
21
2.259480
0
LINE
8
Shape2DView
10
-12.470400
20
8.355790
11
-9.422210
21
2.259480
0
LINE
8
Shape2DView
10
-9.751830
20
0.533582
11
-13.662900
21
8.355790
0
LINE
8
Shape2DView
10
-9.751830
20
0.533582
11
-9.422210
21
0.533582
0
LINE
8
Shape2DView
10
-13.003700
20
9.422460
11
-9.422210
21
9.422460
0
LINE
8
Shape2DView
10
-9.422210
20
8.355790
11
-9.422210
21
9.422460
0
LINE
8
Shape2DView
10
-12.470400
20
8.355790
11
-9.422210
21
8.355790
0
LINE
8
Shape2DView
10
-9.422210
20
9.422460
11
-8.355550
21
9.422460
0
LINE
8
Shape2DView
10
-8.355550
20
17.244700
11
-8.355550
21
9.422460
0
LINE
8
Shape2DView
10
-9.422210
20
9.422460
11
-9.422210
21
17.244700
0
LINE
8
Shape2DView
10
0.000000
20
16.585400
11
3.581490
21
9.422460
0
LINE
8
Shape2DView
10
3.581490
20
9.422460
11
4.774050
21
9.422460
0
LINE
8
Shape2DView
10
0.862951
20
17.244700
11
4.774050
21
9.422460
0
LINE
8
Shape2DView
10
-3.581490
20
9.422460
11
0.000000
21
16.585400
0
LINE
8
Shape2DView
10
-4.774050
20
9.422460
11
-3.581490
21
9.422460
0
LINE
8
Shape2DView
10
-0.862951
20
17.244700
11
-4.774050
21
9.422460
0
LINE
8
Shape2DView
10
9.422210
20
9.422460
11
13.003700
21
9.422460
0
LINE
8
Shape2DView
10
9.422210
20
8.355790
11
12.470400
21
8.355790
0
LINE
8
Shape2DView
10
9.422210
20
2.259480
11
9.422210
21
8.355790
0
LINE
8
Shape2DView
10
8.888880
20
1.192810
11
9.422210
21
2.259480
0
LINE
8
Shape2DView
10
8.355550
20
2.259480
11
8.888880
21
1.192810
0
LINE
8
Shape2DView
10
8.355550
20
8.355790
11
8.355550
21
2.259480
0
LINE
8
Shape2DView
10
4.774050
20
9.422460
11
5.307390
21
8.355790
0
LINE
8
Shape2DView
10
4.774050
20
9.422460
11
8.355550
21
9.422460
0
LINE
8
Shape2DView
10
5.307390
20
8.355790
11
8.355550
21
8.355790
0
LINE
8
Shape2DView
10
9.751830
20
0.533582
11
17.244500
21
0.533582
0
LINE
8
Shape2DView
10
9.751830
20
0.533582
11
9.485170
21
0.000249
0
LINE
8
Shape2DView
10
9.485170
20
0.000249
11
9.751830
21
-0.533084
0
LINE
8
Shape2DView
10
17.244500
20
-0.533084
11
9.751830
21
-0.533084
0
LINE
8
Shape2DView
10
9.422210
20
0.533582
11
9.422210
21
2.259480
0
LINE
8
Shape2DView
10
9.422210
20
0.533582
11
9.751830
21
0.533582
0
LINE
8
Shape2DView
10
13.662900
20
8.355790
11
9.751830
21
0.533582
0
LINE
8
Shape2DView
10
9.422210
20
2.259480
11
12.470400
21
8.355790
0
LINE
8
Shape2DView
10
9.422210
20
-17.244200
11
9.422210
21
-9.421960
0
LINE
8
Shape2DView
10
8.355550
20
-9.421960
11
8.355550
21
-17.244200
0
LINE
8
Shape2DView
10
8.355550
20
-9.421960
11
9.422210
21
-9.421960
0
LINE
8
Shape2DView
10
9.422210
20
-9.421960
11
13.003700
21
-9.421960
0
LINE
8
Shape2DView
10
9.422210
20
-9.421960
11
9.422210
21
-8.355300
0
LINE
8
Shape2DView
10
9.422210
20
-8.355300
11
12.470400
21
-8.355300
0
LINE
8
Shape2DView
10
9.422210
20
-2.258980
11
12.470400
21
-8.355300
0
LINE
8
Shape2DView
10
9.751830
20
-0.533084
11
13.662900
21
-8.355300
0
LINE
8
Shape2DView
10
9.751830
20
-0.533084
11
9.422210
21
-0.533084
0
LINE
8
Shape2DView
10
9.422210
20
-2.258980
11
9.422210
21
-0.533084
0
LINE
8
Shape2DView
10
0.329618
20
-17.244200
11
0.862951
21
-17.244200
0
LINE
8
Shape2DView
10
-0.329618
20
-17.244200
11
0.000000
21
-16.584900
0
LINE
8
Shape2DView
10
0.000000
20
-16.584900
11
0.329618
21
-17.244200
0
LINE
8
Shape2DView
10
-0.862951
20
-17.244200
11
-0.329618
21
-17.244200
0
LINE
8
Shape2DView
10
-8.355550
20
-9.421960
11
-8.355550
21
-17.244200
0
LINE
8
Shape2DView
10
-9.422210
20
-9.421960
11
-8.355550
21
-9.421960
0
LINE
8
Shape2DView
10
-9.422210
20
-17.244200
11
-9.422210
21
-9.421960
0
LINE
8
Shape2DView
10
-9.422210
20
-0.125653
11
-9.485170
21
0.000249
0
LINE
8
Shape2DView
10
-9.422210
20
-0.533084
11
-9.422210
21
-0.125653
0
LINE
8
Shape2DView
10
-9.422210
20
-2.258980
11
-8.888880
21
-1.192310
0
LINE
8
Shape2DView
10
-8.888880
20
-1.192310
11
-9.218500
21
-0.533084
0
LINE
8
Shape2DView
10
-9.218500
20
-0.533084
11
-9.422210
21
-0.533084
0
LINE
8
Shape2DView
10
-8.355550
20
-8.355300
11
-8.355550
21
-9.421960
0
LINE
8
Shape2DView
10
-9.422210
20
-8.355300
11
-8.355550
21
-8.355300
0
LINE
8
Shape2DView
10
-9.422210
20
0.126152
11
-9.422210
21
0.533582
0
LINE
8
Shape2DView
10
-9.422210
20
0.126152
11
-9.485170
21
0.000249
0
LINE
8
Shape2DView
10
-9.422210
20
0.533582
11
-9.218500
21
0.533582
0
LINE
8
Shape2DView
10
-8.888880
20
1.192810
11
-9.218500
21
0.533582
0
LINE
8
Shape2DView
10
-9.422210
20
2.259480
11
-8.888880
21
1.192810
0
LINE
8
Shape2DView
10
-9.422210
20
8.355790
11
-8.355550
21
8.355790
0
LINE
8
Shape2DView
10
-8.355550
20
9.422460
11
-8.355550
21
8.355790
0
LINE
8
Shape2DView
10
3.581490
20
9.422460
11
4.114820
21
8.355790
0
LINE
8
Shape2DView
10
4.114820
20
8.355790
11
5.307390
21
8.355790
0
LINE
8
Shape2DView
10
-4.114820
20
8.355790
11
-3.581490
21
9.422460
0
LINE
8
Shape2DView
10
-5.307390
20
8.355790
11
-4.114820
21
8.355790
0
LINE
8
Shape2DView
10
-4.774050
20
9.422460
11
-5.307390
21
8.355790
0
LINE
8
Shape2DView
10
-8.355550
20
9.422460
11
-4.774050
21
9.422460
0
LINE
8
Shape2DView
10
9.218500
20
0.533582
11
9.422210
21
0.533582
0
LINE
8
Shape2DView
10
8.888880
20
1.192810
11
9.218500
21
0.533582
0
LINE
8
Shape2DView
10
8.559270
20
0.533582
11
8.888880
21
1.192810
0
LINE
8
Shape2DView
10
8.355550
20
0.533582
11
8.559270
21
0.533582
0
LINE
8
Shape2DView
10
8.355550
20
2.259480
11
8.355550
21
0.533582
0
LINE
8
Shape2DView
10
9.422210
20
0.126152
11
9.422210
21
0.533582
0
LINE
8
Shape2DView
10
9.422210
20
0.126152
11
9.485170
21
0.000249
0
LINE
8
Shape2DView
10
9.485170
20
0.000249
11
9.422210
21
-0.125653
0
LINE
8
Shape2DView
10
9.422210
20
-0.533084
11
9.422210
21
-0.125653
0
LINE
8
Shape2DView
10
8.355550
20
-8.355300
11
8.355550
21
-9.421960
0
LINE
8
Shape2DView
10
8.355550
20
-8.355300
11
9.422210
21
-8.355300
0
LINE
8
Shape2DView
10
9.218500
20
-0.533084
11
8.888880
21
-1.192310
0
LINE
8
Shape2DView
10
9.422210
20
-0.533084
11
9.218500
21
-0.533084
0
LINE
8
Shape2DView
10
8.888880
20
-1.192310
11
9.422210
21
-2.258980
0
LINE
8
Shape2DView
10
4.774050
20
-9.421960
11
0.862951
21
-17.244200
0
LINE
8
Shape2DView
10
3.581490
20
-9.421960
11
4.774050
21
-9.421960
0
LINE
8
Shape2DView
10
0.000000
20
-16.584900
11
3.581490
21
-9.421960
0
LINE
8
Shape2DView
10
-3.581490
20
-9.421960
11
0.000000
21
-16.584900
0
LINE
8
Shape2DView
10
-4.774050
20
-9.421960
11
-3.581490
21
-9.421960
0
LINE
8
Shape2DView
10
-0.862951
20
-17.244200
11
-4.774050
21
-9.421960
0
LINE
8
Shape2DView
10
-9.422210
20
-0.125653
11
-9.422210
21
0.126152
0
LINE
8
Shape2DView
10
-9.218500
20
-0.533084
11
-9.422210
21
-0.125653
0
LINE
8
Shape2DView
10
-8.355550
20
-2.258980
11
-8.355550
21
-8.355300
0
LINE
8
Shape2DView
10
-8.355550
20
-2.258980
11
-8.888880
21
-1.192310
0
LINE
8
Shape2DView
10
-9.422210
20
-8.355300
11
-9.422210
21
-2.258980
0
LINE
8
Shape2DView
10
-8.888880
20
-1.192310
11
-8.559270
21
-0.533084
0
LINE
8
Shape2DView
10
-8.559270
20
-0.533084
11
-9.218500
21
-0.533084
0
LINE
8
Shape2DView
10
-8.355550
20
-9.421960
11
-4.774050
21
-9.421960
0
LINE
8
Shape2DView
10
-4.774050
20
-9.421960
11
-5.307390
21
-8.355300
0
LINE
8
Shape2DView
10
-8.355550
20
-8.355300
11
-5.307390
21
-8.355300
0
LINE
8
Shape2DView
10
-9.218500
20
0.533582
11
-9.422210
21
0.126152
0
LINE
8
Shape2DView
10
-8.888880
20
1.192810
11
-8.559270
21
0.533582
0
LINE
8
Shape2DView
10
-9.218500
20
0.533582
11
-8.559270
21
0.533582
0
LINE
8
Shape2DView
10
-9.422210
20
2.259480
11
-9.422210
21
8.355790
0
LINE
8
Shape2DView
10
-8.355550
20
2.259480
11
-8.888880
21
1.192810
0
LINE
8
Shape2DView
10
-8.355550
20
8.355790
11
-8.355550
21
2.259480
0
LINE
8
Shape2DView
10
-8.355550
20
8.355790
11
-5.307390
21
8.355790
0
LINE
8
Shape2DView
10
-3.581490
20
9.422460
11
3.581490
21
9.422460
0
LINE
8
Shape2DView
10
-4.114820
20
8.355790
11
4.114820
21
8.355790
0
LINE
8
Shape2DView
10
4.114820
20
8.355790
11
8.025940
21
0.533582
0
LINE
8
Shape2DView
10
8.025940
20
0.533582
11
8.355550
21
0.533582
0
LINE
8
Shape2DView
10
5.307390
20
8.355790
11
8.355550
21
2.259480
0
LINE
8
Shape2DView
10
-8.025940
20
0.533582
11
-4.114820
21
8.355790
0
LINE
8
Shape2DView
10
-8.355550
20
0.533582
11
-8.025940
21
0.533582
0
LINE
8
Shape2DView
10
-8.355550
20
2.259480
11
-8.355550
21
0.533582
0
LINE
8
Shape2DView
10
-5.307390
20
8.355790
11
-8.355550
21
2.259480
0
LINE
8
Shape2DView
10
9.218500
20
0.533582
11
9.422210
21
0.126152
0
LINE
8
Shape2DView
10
8.559270
20
0.533582
11
9.218500
21
0.533582
0
LINE
8
Shape2DView
10
8.355550
20
0.126152
11
8.559270
21
0.533582
0
LINE
8
Shape2DView
10
8.355550
20
0.533582
11
8.355550
21
0.126152
0
LINE
8
Shape2DView
10
9.422210
20
-0.125653
11
9.422210
21
0.126152
0
LINE
8
Shape2DView
10
9.422210
20
-0.125653
11
9.218500
21
-0.533084
0
LINE
8
Shape2DView
10
4.774050
20
-9.421960
11
8.355550
21
-9.421960
0
LINE
8
Shape2DView
10
5.307390
20
-8.355300
11
4.774050
21
-9.421960
0
LINE
8
Shape2DView
10
5.307390
20
-8.355300
11
8.355550
21
-8.355300
0
LINE
8
Shape2DView
10
8.355550
20
-2.258980
11
8.355550
21
-8.355300
0
LINE
8
Shape2DView
10
8.888880
20
-1.192310
11
8.355550
21
-2.258980
0
LINE
8
Shape2DView
10
9.422210
20
-8.355300
11
9.422210
21
-2.258980
0
LINE
8
Shape2DView
10
9.218500
20
-0.533084
11
8.559270
21
-0.533084
0
LINE
8
Shape2DView
10
8.559270
20
-0.533084
11
8.888880
21
-1.192310
0
LINE
8
Shape2DView
10
3.581490
20
-9.421960
11
4.114820
21
-8.355300
0
LINE
8
Shape2DView
10
4.114820
20
-8.355300
11
5.307390
21
-8.355300
0
LINE
8
Shape2DView
10
-4.114820
20
-8.355300
11
-3.581490
21
-9.421960
0
LINE
8
Shape2DView
10
-5.307390
20
-8.355300
11
-4.114820
21
-8.355300
0
LINE
8
Shape2DView
10
-8.559270
20
-0.533084
11
-8.355550
21
-0.125653
0
LINE
8
Shape2DView
10
-8.355550
20
0.126152
11
-8.355550
21
-0.125653
0
LINE
8
Shape2DView
10
-8.559270
20
0.533582
11
-8.355550
21
0.126152
0
LINE
8
Shape2DView
10
-8.355550
20
-0.533084
11
-8.559270
21
-0.533084
0
LINE
8
Shape2DView
10
-8.355550
20
-0.533084
11
-8.355550
21
-2.258980
0
LINE
8
Shape2DView
10
-8.559270
20
0.533582
11
-8.355550
21
0.533582
0
LINE
8
Shape2DView
10
8.025940
20
0.533582
11
8.292600
21
0.000249
0
LINE
8
Shape2DView
10
8.292600
20
0.000249
11
8.355550
21
0.126152
0
LINE
8
Shape2DView
10
-8.292600
20
0.000249
11
-8.025940
21
0.533582
0
LINE
8
Shape2DView
10
-8.355550
20
0.126152
11
-8.292600
21
0.000249
0
LINE
8
Shape2DView
10
-8.355550
20
0.533582
11
-8.355550
21
0.126152
0
LINE
8
Shape2DView
10
8.355550
20
-0.125653
11
8.559270
21
-0.533084
0
LINE
8
Shape2DView
10
8.355550
20
0.126152
11
8.355550
21
-0.125653
0
LINE
8
Shape2DView
10
8.355550
20
-0.533084
11
8.355550
21
-2.258980
0
LINE
8
Shape2DView
10
8.559270
20
-0.533084
11
8.355550
21
-0.533084
0
LINE
8
Shape2DView
10
-3.581490
20
-9.421960
11
3.581490
21
-9.421960
0
LINE
8
Shape2DView
10
-4.114820
20
-8.355300
11
4.114820
21
-8.355300
0
LINE
8
Shape2DView
10
8.355550
20
-2.258980
11
5.307390
21
-8.355300
0
LINE
8
Shape2DView
10
8.355550
20
-0.533084
11
8.025940
21
-0.533084
0
LINE
8
Shape2DView
10
4.114820
20
-8.355300
11
8.025940
21
-0.533084
0
LINE
8
Shape2DView
10
-8.025940
20
-0.533084
11
-4.114820
21
-8.355300
0
LINE
8
Shape2DView
10
-8.025940
20
-0.533084
11
-8.355550
21
-0.533084
0
LINE
8
Shape2DView
10
-5.307390
20
-8.355300
11
-8.355550
21
-2.258980
0
LINE
8
Shape2DView
10
-8.355550
20
-0.125653
11
-8.355550
21
-0.533084
0
LINE
8
Shape2DView
10
-8.355550
20
-0.125653
11
-8.292600
21
0.000249
0
LINE
8
Shape2DView
10
-8.025940
20
0.533582
11
8.025940
21
0.533582
0
LINE
8
Shape2DView
10
-8.292600
20
0.000249
11
-8.025940
21
-0.533084
0
LINE
8
Shape2DView
10
8.025940
20
-0.533084
11
-8.025940
21
-0.533084
0
LINE
8
Shape2DView
10
8.025940
20
-0.533084
11
8.292600
21
0.000249
0
LINE
8
Shape2DView
10
8.292600
20
0.000249
11
8.355550
21
-0.125653
0
LINE
8
Shape2DView
10
8.355550
20
-0.125653
11
8.355550
21
-0.533084
 0 
ENDSEC
 0 
EOF