<?xml version="1.0" standalone="no"?>
<!DOCTYPE svg PUBLIC "-//W3C//DTD SVG 1.1//EN" "http://www.w3.org/Graphics/SVG/1.1/DTD/svg11.dtd">
<svg width="206mm" height="410mm" viewBox="-103 -205 206 410" xmlns="http://www.w3.org/2000/svg" version="1.1">
<title>OpenSCAD Model</title>
<path d="
M -102.6,-204.2 L -102.6,204.2 L 101.6,204.2 L 101.6,203.2 L 102.6,203.2 L 102.6,-204.2
 z
M -100.6,-202.2 L -64.7224,-202.2 L -66.8071,-201.665 L -72.8554,-199.27 L -78.5558,-196.136 L -83.8186,-192.313
 L -88.5606,-187.86 L -92.7071,-182.847 L -96.1927,-177.355 L -98.9624,-171.469 L -100.6,-166.429 z
M -49.8,-153.4 L -49.8,-202.2 L -26.4,-202.2 L -26.4,-153.4 z
M -24.4,-202.2 L 11.4776,-202.2 L 9.39291,-201.665 L 3.34462,-199.27 L -2.35582,-196.136 L -7.61856,-192.313
 L -12.3606,-187.86 L -16.5071,-182.847 L -19.9927,-177.355 L -22.7624,-171.469 L -24.4,-166.429 z
M 26.4,-153.4 L 26.4,-202.2 L 49.8,-202.2 L 49.8,-153.4 z
M 98.9624,-171.469 L 96.1927,-177.355 L 92.7071,-182.847 L 88.5606,-187.86 L 83.8186,-192.313 L 78.5558,-196.136
 L 72.8554,-199.27 L 66.8071,-201.665 L 64.7224,-202.2 L 100.6,-202.2 L 100.6,-166.429 z
M 51.8,-153.4 L 51.8,-202.102 L 53.927,-202.102 L 60.1316,-201.318 L 66.189,-199.763 L 72.0038,-197.46
 L 77.4842,-194.448 L 82.5437,-190.772 L 87.1026,-186.49 L 91.089,-181.672 L 94.4401,-176.391 L 97.1029,-170.733
 L 99.0354,-164.785 L 100.207,-158.642 L 100.537,-153.4 z
M 24.4,-153.4 L -24.3371,-153.4 L -24.0073,-158.642 L -22.8354,-164.785 L -20.9029,-170.733 L -18.2401,-176.391
 L -14.889,-181.672 L -10.9026,-186.49 L -6.3437,-190.772 L -1.28416,-194.448 L 4.19618,-197.46 L 10.0109,-199.763
 L 16.0684,-201.318 L 22.273,-202.102 L 24.4,-202.102 z
M -51.8,-153.4 L -100.537,-153.4 L -100.207,-158.642 L -99.0354,-164.785 L -97.1029,-170.733 L -94.4401,-176.391
 L -91.089,-181.672 L -87.1026,-186.49 L -82.5437,-190.772 L -77.4842,-194.448 L -72.0038,-197.46 L -66.189,-199.763
 L -60.1316,-201.318 L -53.927,-202.102 L -51.8,-202.102 z
M -75.582,-102.6 L -99.982,-151.4 L -51.8,-151.4 L -51.8,-102.6 z
M -49.182,-151.4 L -26.4,-151.4 L -26.4,-105.836 z
M -24.4,-151.4 L -1.61803,-151.4 L -24.4,-105.836 z
M -23.782,-102.6 L 0.618027,-151.4 L 24.4,-151.4 L 24.4,-102.6 z
M 26.4,-151.4 L 49.182,-151.4 L 26.4,-105.836 z
M 51.8,-102.6 L 51.8,-151.4 L 99.982,-151.4 L 75.582,-102.6 z
M -100.6,-102.6 L -100.6,-148.164 L -77.818,-102.6 z
M -49.8,-102.6 L -49.8,-148.164 L -27.018,-102.6 z
M 27.018,-102.6 L 49.8,-148.164 L 49.8,-102.6 z
M 77.818,-102.6 L 100.6,-148.164 L 100.6,-102.6 z
M -100.6,-100.6 L -86.146,-100.6 L -87.4406,-100.087 L -90.3458,-98.4902 L -93.028,-96.5415 L -95.4448,-94.272
 L -97.558,-91.7175 L -99.3345,-88.9183 L -100.6,-86.229 z
M -74.582,-100.6 L -51.8,-100.6 L -51.8,-55.036 z
M -49.8,-100.6 L -27.018,-100.6 L -49.8,-55.0361 z
M -23.782,-100.6 L 23.782,-100.6 L 0,-53.0361 z
M 26.4,-51.8 L 26.4,-100.6 L 49.8,-100.6 L 49.8,-51.8 z
M 51.8,-100.6 L 74.582,-100.6 L 51.8,-55.036 z
M 99.3345,-88.9183 L 97.558,-91.7175 L 95.4448,-94.272 L 93.028,-96.5415 L 90.3458,-98.4902 L 87.4406,-100.087
 L 86.146,-100.6 L 100.6,-100.6 L 100.6,-86.229 z
M 52.418,-51.8 L 76.794,-100.552 L 77.7321,-100.552 L 80.7721,-100.168 L 83.74,-99.4058 L 86.589,-98.2778
 L 89.2742,-96.8016 L 91.7531,-95.0005 L 93.9868,-92.9029 L 95.94,-90.542 L 97.5819,-87.9548 L 98.8865,-85.1822
 L 99.8334,-82.268 L 100.408,-79.2581 L 100.6,-76.2 L 100.6,-51.8 z
M -52.418,-51.8 L -100.6,-51.8 L -100.6,-76.2 L -100.408,-79.2581 L -99.8334,-82.268 L -98.8865,-85.1822
 L -97.5819,-87.9548 L -95.94,-90.542 L -93.9868,-92.9029 L -91.7531,-95.0005 L -89.2742,-96.8016 L -86.589,-98.2778
 L -83.74,-99.4058 L -80.7721,-100.168 L -77.7321,-100.552 L -76.794,-100.552 z
M -49.182,-51.8 L -26.4,-97.3639 L -26.4,-51.8 z
M -24.4,-51.8 L -24.4,-97.3639 L -1.61803,-51.8 z
M 1.61803,-51.8 L 24.4,-97.3639 L 24.4,-51.8 z
M -77.7321,-1.04814 L -80.7721,-1.43219 L -83.74,-2.19421 L -86.589,-3.32222 L -89.2742,-4.79839 L -91.7531,-6.59947
 L -93.9868,-8.69704 L -95.94,-11.058 L -97.5819,-13.6452 L -98.8865,-16.4178 L -99.8334,-19.332 L -100.408,-22.3419
 L -100.6,-25.4 L -100.6,-49.8 L -52.418,-49.8 L -76.794,-1.04814 z
M -49.182,-49.8 L -26.4,-49.8 L -26.4,-4.23605 z
M -24.4,-49.8 L -1.61804,-49.8 L -24.4,-4.23608 z
M 1.61804,-49.8 L 24.4,-49.8 L 24.4,-4.23608 z
M 26.4,-49.8 L 49.182,-49.8 L 26.4,-4.23605 z
M 99.8334,-19.332 L 98.8865,-16.4178 L 97.5819,-13.6452 L 95.94,-11.058 L 93.9868,-8.69704 L 91.7531,-6.59947
 L 89.2742,-4.79839 L 86.589,-3.32222 L 83.74,-2.19421 L 80.7721,-1.43219 L 77.7321,-1.04814 L 76.2,-1.04814
 L 76.2,-1 L 51.8,-1 L 51.8,-49.8 L 76.2,-49.8 L 76.2,-49.7518 L 77.7321,-49.7518
 L 80.7721,-49.3678 L 83.74,-48.6058 L 86.589,-47.4778 L 89.2742,-46.0016 L 91.7531,-44.2005 L 93.9868,-42.1029
 L 95.94,-39.742 L 97.5819,-37.1548 L 98.8865,-34.3822 L 99.8334,-31.468 L 100.408,-28.4581 L 100.6,-25.4
 L 100.408,-22.3419 z
M 99.3345,-38.1183 L 97.558,-40.9175 L 95.4448,-43.472 L 93.028,-45.7415 L 90.3458,-47.6902 L 87.4406,-49.2874
 L 86.146,-49.8 L 100.6,-49.8 L 100.6,-35.429 z
M -23.782,-1 L 0,-48.5639 L 23.782,-1 z
M -74.582,-1 L -51.8,-46.564 L -51.8,-1 z
M -49.8,-1 L -49.8,-46.5639 L -27.018,-1 z
M 27.018,-1 L 49.8,-46.5639 L 49.8,-1 z
M -100.6,-15.371 L -99.3345,-12.6817 L -97.558,-9.88246 L -95.4448,-7.32794 L -93.028,-5.05844 L -90.3458,-3.10974
 L -87.4406,-1.51256 L -84.358,-0.292099 L -83.2204,-0 L -84.358,0.292099 L -87.4406,1.51256 L -90.3458,3.10974
 L -93.028,5.05844 L -95.4448,7.32794 L -97.558,9.88246 L -99.3345,12.6817 L -100.6,15.371 z
M 99.3345,12.6817 L 97.558,9.88246 L 95.4448,7.32794 L 93.028,5.05844 L 90.3458,3.10974 L 87.4406,1.51256
 L 84.358,0.292099 L 83.2204,-0 L 84.358,-0.292099 L 87.4406,-1.51256 L 90.3458,-3.10974 L 93.028,-5.05844
 L 95.4448,-7.32794 L 97.558,-9.88246 L 99.3345,-12.6817 L 100.6,-15.371 L 100.6,15.371 z
M -74.582,1 L -51.8,1 L -51.8,46.564 z
M -49.8,1 L -27.018,1 L -49.8,46.5639 z
M -23.782,1 L 23.782,1 L 0,48.5639 z
M 27.018,1 L 49.8,1 L 49.8,46.5639 z
M 51.8,1 L 74.582,1 L 51.8,46.564 z
M 52.418,49.8 L 76.7939,1.04814 L 77.7321,1.04814 L 80.7721,1.43219 L 83.74,2.19421 L 86.589,3.32222
 L 89.2742,4.79839 L 91.7531,6.59947 L 93.9868,8.69704 L 95.94,11.058 L 97.5819,13.6452 L 98.8865,16.4178
 L 99.8334,19.332 L 100.408,22.3419 L 100.6,25.4 L 100.6,49.8 z
M -52.418,49.8 L -100.6,49.8 L -100.6,25.4 L -100.408,22.3419 L -99.8334,19.332 L -98.8865,16.4178
 L -97.5819,13.6452 L -95.94,11.058 L -93.9868,8.69704 L -91.7531,6.59947 L -89.2742,4.79839 L -86.589,3.32222
 L -83.74,2.19421 L -80.7721,1.43219 L -77.7321,1.04814 L -76.7939,1.04814 z
M -49.182,49.8 L -26.4,4.23605 L -26.4,49.8 z
M 26.4,49.8 L 26.4,4.23605 L 49.182,49.8 z
M -24.4,49.8 L -24.4,4.23608 L -1.61804,49.8 z
M 1.61804,49.8 L 24.4,4.23608 L 24.4,49.8 z
M -99.982,51.8 L -52.418,51.8 L -76.2,99.3639 z
M -49.182,51.8 L -26.4,51.8 L -26.4,97.3639 z
M -24.4,51.8 L -1.61803,51.8 L -24.4,97.3639 z
M 1.61803,51.8 L 24.4,51.8 L 24.4,97.3639 z
M 26.4,51.8 L 49.182,51.8 L 26.4,97.3639 z
M 52.418,51.8 L 99.982,51.8 L 76.2,99.3639 z
M -23.782,100.6 L 0,53.0361 L 23.782,100.6 z
M -74.582,100.6 L -51.8,55.036 L -51.8,100.6 z
M 51.8,100.6 L 51.8,55.036 L 74.582,100.6 z
M 77.818,100.6 L 100.6,55.0361 L 100.6,100.6 z
M -100.6,100.6 L -100.6,55.0361 L -77.818,100.6 z
M 27.018,100.6 L 49.8,55.0361 L 49.8,100.6 z
M -49.8,100.6 L -49.8,55.0361 L -27.018,100.6 z
M -100.6,102.6 L -77.818,102.6 L -100.6,148.164 z
M -74.582,102.6 L -51.8,102.6 L -51.8,148.164 z
M -49.8,102.6 L -27.018,102.6 L -49.8,148.164 z
M -24.4,151.4 L -24.4,102.6 L 24.4,102.6 L 24.4,151.4 z
M 27.018,102.6 L 49.8,102.6 L 49.8,148.164 z
M 51.8,102.6 L 74.582,102.6 L 51.8,148.164 z
M 77.818,102.6 L 100.6,102.6 L 100.6,148.164 z
M -99.982,151.4 L -76.2,103.836 L -52.418,151.4 z
M 52.418,151.4 L 76.2,103.836 L 99.982,151.4 z
M -49.182,151.4 L -26.4,105.836 L -26.4,151.4 z
M 26.4,151.4 L 26.4,105.836 L 49.182,151.4 z
M -53.927,202.102 L -60.1316,201.318 L -66.189,199.763 L -72.0038,197.46 L -77.4842,194.448 L -82.5437,190.772
 L -87.1026,186.49 L -91.089,181.672 L -94.4401,176.391 L -97.1029,170.733 L -99.0354,164.785 L -100.207,158.642
 L -100.537,153.4 L -51.8,153.4 L -51.8,202.102 z
M -49.182,153.4 L -26.4,153.4 L -26.4,198.964 z
M 22.273,202.102 L 16.0684,201.318 L 10.0109,199.763 L 4.19618,197.46 L -1.28416,194.448 L -6.3437,190.772
 L -10.9026,186.49 L -14.889,181.672 L -18.2401,176.391 L -20.9029,170.733 L -22.8354,164.785 L -24.0073,158.642
 L -24.3371,153.4 L 24.4,153.4 L 24.4,202.102 z
M 26.4,153.4 L 49.182,153.4 L 26.4,198.964 z
M 51.8,153.4 L 100.537,153.4 L 100.207,158.642 L 99.0354,164.785 L 97.1029,170.733 L 94.4401,176.391
 L 91.089,181.672 L 87.1026,186.49 L 82.5437,190.772 L 77.4842,194.448 L 72.0038,197.46 L 66.189,199.763
 L 60.1316,201.318 L 53.927,202.102 L 51.8,202.102 z
M -49.8,202.2 L -49.8,156.636 L -27.018,202.2 z
M 27.018,202.2 L 49.8,156.636 L 49.8,202.2 z
M -24.4,202.2 L -24.4,166.429 L -22.7624,171.469 L -19.9927,177.355 L -16.5071,182.847 L -12.3606,187.86
 L -7.61856,192.313 L -2.35582,196.136 L 3.34462,199.27 L 9.39291,201.665 L 11.4776,202.2 z
M -100.6,202.2 L -100.6,166.429 L -98.9624,171.469 L -96.1927,177.355 L -92.7071,182.847 L -88.5606,187.86
 L -83.8186,192.313 L -78.5558,196.136 L -72.8554,199.27 L -66.8071,201.665 L -64.7224,202.2 z
M 64.7224,202.2 L 66.8071,201.665 L 72.8554,199.27 L 78.5558,196.136 L 83.8186,192.313 L 88.5606,187.86
 L 92.7071,182.847 L 96.1927,177.355 L 98.9624,171.469 L 100.6,166.429 L 100.6,202.2 z
" stroke="black" fill="lightgray" stroke-width="0.5"/>
</svg>
