  0
SECTION
  2
HEADER
  9
$ACADVER
  1
AC1009
  9
$INSBASE
 10
0.0
 20
0.0
 30
0.0
  9
$EXTMIN
 10
0.0
 20
0.0
 30
0.0
  9
$EXTMAX
 10
0.0
 20
0.0
 30
0.0
  0
ENDSEC
  0
SECTION
  2
TABLES
  0
TABLE
  2
VPORT
 70
0
  0
ENDTAB
  0
TABLE
  2
LTYPE
 70
1
  0
LTYPE
  2
CONTINUOUS
 70
0
  3
Solid line
 72
65
 73
0
 40
0.0
  0
ENDTAB
  0
TABLE
  2
LAYER
 70
1
  0
LAYER
  2
0
 70
64
 62
7
  6
continuous
  0
ENDTAB
  0
TABLE
  2
STYLE
 70
1
  0
STYLE
  2
STANDARD
 70
0
 40
0
 41
1.0
 50
0.0
 71
0
 42
1
 3
ARIAL.TTF
 4

  0
ENDTAB
  0
TABLE
  2
VIEW
 70
0
  0
ENDTAB
  0
ENDSEC
  0
SECTION
  2
BLOCKS
  0
BLOCK
  8
0
  2
SKETCH
 70
0
 10
0.0
 20
0.0
 30
0.0
  3
SKETCH
  0
POLYLINE
  8
0
 62
7
 70
0
 66
1
 10
0.0
 20
0.0
 30
0.0
  0
VERTEX
  8
0
 10
-16.666666666666806
 20
49.99999999999993
 30
0.0
  0
VERTEX
  8
0
 10
-16.666666666666675
 20
-49.999999999999986
 30
0.0
  0
VERTEX
  8
0
 10
33.33333333333333
 20
50.000000000000014
 30
0.0
  0
VERTEX
  8
0
 10
-33.33333333333334
 20
50.00000000000002
 30
0.0
  0
VERTEX
  8
0
 10
16.666666666666668
 20
-49.999999999999986
 30
0.0
  0
VERTEX
  8
0
 10
16.66666666666667
 20
49.99999999999998
 30
0.0
  0
VERTEX
  8
0
 10
-33.33333333333333
 20
-49.99999999999999
 30
0.0
  0
VERTEX
  8
0
 10
33.33333333333333
 20
-49.99999999999999
 30
0.0
  0
VERTEX
  8
0
 10
-16.666666666666806
 20
49.99999999999993
 30
0.0
 42
0.4142136148081395
  0
VERTEX
  8
0
 10
-33.333333333333265
 20
33.33333333333348
 30
0.0
  0
VERTEX
  8
0
 10
33.33333333333333
 20
33.33333333333336
 30
0.0
 42
0.4142135556424368
  0
VERTEX
  8
0
 10
16.66666666666667
 20
49.999999999999986
 30
0.0
  0
SEQEND
  8
0
  0
POLYLINE
  8
0
 62
7
 70
0
 66
1
 10
0.0
 20
0.0
 30
0.0
  0
VERTEX
  8
0
 10
8.333333333333334
 20
49.99999999999999
 30
0.0
  0
VERTEX
  8
0
 10
8.333333333333334
 20
-49.99999999999999
 30
0.0
  0
SEQEND
  8
0
  0
POLYLINE
  8
0
 62
7
 70
1
 66
1
 10
0.0
 20
0.0
 30
0.0
  0
VERTEX
  8
0
 10
-33.33333333333333
 20
16.66666666666667
 30
0.0
  0
VERTEX
  8
0
 10
33.333333333333336
 20
16.666666666666686
 30
0.0
  0
VERTEX
  8
0
 10
0.0
 20
-49.999999999999986
 30
0.0
  0
SEQEND
  8
0
  0
POLYLINE
  8
0
 62
7
 70
0
 66
1
 10
0.0
 20
0.0
 30
0.0
  0
VERTEX
  8
0
 10
-8.333333333333334
 20
-49.999999999999986
 30
0.0
  0
VERTEX
  8
0
 10
-8.333333333333336
 20
50.0
 30
0.0
 42
-0.41421356406418086
  0
VERTEX
  8
0
 10
-24.999999999999993
 20
33.33333333333333
 30
0.0
  0
SEQEND
  8
0
  0
POLYLINE
  8
0
 62
7
 70
0
 66
1
 10
0.0
 20
0.0
 30
0.0
  0
VERTEX
  8
0
 10
-33.33333333333333
 20
-16.666666666666668
 30
0.0
  0
VERTEX
  8
0
 10
0.0
 20
49.999999999999986
 30
0.0
  0
SEQEND
  8
0
  0
POLYLINE
  8
0
 62
7
 70
0
 66
1
 10
0.0
 20
0.0
 30
0.0
  0
VERTEX
  8
0
 10
33.33333333333333
 20
-25.0
 30
0.0
  0
VERTEX
  8
0
 10
16.666666666666668
 20
-25.000000000000004
 30
0.0
  0
SEQEND
  8
0
  0
POLYLINE
  8
0
 62
7
 70
0
 66
1
 10
0.0
 20
0.0
 30
0.0
  0
VERTEX
  8
0
 10
33.33333333333333
 20
-16.666666666666668
 30
0.0
  0
VERTEX
  8
0
 10
-16.666666666666664
 20
-16.666666666666664
 30
0.0
  0
SEQEND
  8
0
  0
POLYLINE
  8
0
 62
7
 70
0
 66
1
 10
0.0
 20
0.0
 30
0.0
  0
VERTEX
  8
0
 10
-33.33333333333333
 20
-25.0
 30
0.0
  0
VERTEX
  8
0
 10
-16.666666666666668
 20
-25.000000000000004
 30
0.0
  0
SEQEND
  8
0
  0
POLYLINE
  8
0
 62
7
 70
0
 66
1
 10
0.0
 20
0.0
 30
0.0
  0
VERTEX
  8
0
 10
33.3333333333297
 20
-8.333333333326063
 30
0.0
 42
0.41421317557750187
  0
VERTEX
  8
0
 10
16.66666666667393
 20
8.3333333333297
 30
0.0
  0
VERTEX
  8
0
 10
-16.66666666667391
 20
8.333333333329717
 30
0.0
 42
0.4142139483236119
  0
VERTEX
  8
0
 10
-33.33333333332972
 20
-8.333333333326099
 30
0.0
  0
VERTEX
  8
0
 10
16.666666666673944
 20
-8.333333333336968
 30
0.0
 42
0.41421356237309476
  0
VERTEX
  8
0
 10
33.3333333333406
 20
8.333333333329696
 30
0.0
  0
SEQEND
  8
0
  0
ARC
  8
0
 62
7
 10
-16.666641922908898
 20
8.333358077091102
 30
0.0
 40
16.666691410424438
 50
-179.9999149391182
 51
-90.0000850627734
  0
POLYLINE
  8
0
 62
7
 70
0
 66
1
 10
0.0
 20
0.0
 30
0.0
  0
VERTEX
  8
0
 10
25.0
 20
49.99999999999999
 30
0.0
  0
VERTEX
  8
0
 10
25.000000000000004
 20
-16.666666666666664
 30
0.0
  0
SEQEND
  8
0
  0
POLYLINE
  8
0
 62
7
 70
0
 66
1
 10
0.0
 20
0.0
 30
0.0
  0
VERTEX
  8
0
 10
-33.33333333333333
 20
25.000000000000004
 30
0.0
  0
VERTEX
  8
0
 10
-16.666666666666668
 20
25.0
 30
0.0
  0
SEQEND
  8
0
  0
POLYLINE
  8
0
 62
7
 70
0
 66
1
 10
0.0
 20
0.0
 30
0.0
  0
VERTEX
  8
0
 10
16.666666666666668
 20
25.0
 30
0.0
  0
VERTEX
  8
0
 10
33.33333333333333
 20
25.000000000000004
 30
0.0
  0
SEQEND
  8
0
  0
POLYLINE
  8
0
 62
7
 70
0
 66
1
 10
0.0
 20
0.0
 30
0.0
  0
VERTEX
  8
0
 10
-16.666666666666668
 20
0.0
 30
0.0
  0
VERTEX
  8
0
 10
33.33333333333333
 20
0.0
 30
0.0
  0
SEQEND
  8
0
  0
LINE
  8
0
 62
7
 10
16.666666666666668
 20
-49.999999999999986
 30
0.0
 11
-33.33333333333333
 21
50.00000000000001
 31
0.0
  0
LINE
  8
0
 62
7
 10
-16.666666666666675
 20
-49.999999999999986
 30
0.0
 11
-16.666666666666806
 21
49.99999999999993
 31
0.0
  0
LINE
  8
0
 62
7
 10
-33.33333333333333
 20
-49.99999999999999
 30
0.0
 11
16.66666666666667
 21
49.999999999999986
 31
0.0
  0
LINE
  8
0
 62
7
 10
16.66666666666667
 20
49.999999999999986
 30
0.0
 11
16.666666666666668
 21
-49.999999999999986
 31
0.0
  0
ARC
  8
0
 62
7
 10
16.6666663241755
 20
-33.333332990842166
 30
0.0
 40
16.66666700915783
 50
-89.99999882260212
 51
-1.2074182697257333e-06
  0
LINE
  8
0
 62
7
 10
-33.33333333333333
 20
-33.33333333333335
 30
0.0
 11
33.33333333333333
 21
-33.333333333333336
 31
0.0
  0
ARC
  8
0
 62
7
 10
-16.666666771458964
 20
-33.33333343812563
 30
0.0
 40
16.66666656187436
 50
180.0
 51
-89.99999963975064
  0
LINE
  8
0
 62
7
 10
-33.33333333333333
 20
50.00000000000001
 30
0.0
 11
-33.33333333333333
 21
-49.99999999999999
 31
0.0
  0
LINE
  8
0
 62
7
 10
33.33333333333333
 20
-49.99999999999999
 30
0.0
 11
33.33333333333333
 21
50.000000000000014
 31
0.0
  0
LINE
  8
0
 62
7
 10
0.0
 20
-49.999999999999986
 30
0.0
 11
33.33333333333333
 21
16.666666666666668
 31
0.0
  0
ARC
  8
0
 62
7
 10
-24.999999951885595
 20
49.99999995188559
 30
0.0
 40
16.66666661855226
 50
-90.00000016540514
 51
0.0
  0
LINE
  8
0
 62
7
 10
-16.66666666667391
 20
8.333333333329717
 30
0.0
 11
16.666666666673933
 21
8.3333333333297
 31
0.0
  0
ENDBLK
  0
ENDSEC
  0
SECTION
  2
ENTITIES
  0
INSERT
  2
SKETCH
  8
0
 62
7
 10
0.0
 20
0.0
 30
0.0
  0
ENDSEC
  0
EOF
